<mxfile host="app.diagrams.net" modified="2024-07-07T09:14:55.486Z" agent="Mozilla/5.0 (Windows NT 10.0; Win64; x64) AppleWebKit/537.36 (KHTML, like Gecko) Chrome/126.0.0.0 Safari/537.36" etag="Q1XEGhcgj2F8g0J7D3RZ" version="24.6.4" type="device">
  <diagram id="hrmhZQOjq4m7jqr7pMMc" name="Page-1">
    <mxGraphModel dx="1764" dy="991" grid="0" gridSize="10" guides="1" tooltips="1" connect="1" arrows="1" fold="1" page="1" pageScale="1" pageWidth="850" pageHeight="1100" math="0" shadow="0">
      <root>
        <mxCell id="0" />
        <mxCell id="1" parent="0" />
        <mxCell id="c3Bb5KOv40KCeekuW3EP-1" value="" style="edgeStyle=orthogonalEdgeStyle;rounded=0;orthogonalLoop=1;jettySize=auto;html=1;" parent="1" source="c3Bb5KOv40KCeekuW3EP-2" target="c3Bb5KOv40KCeekuW3EP-4" edge="1">
          <mxGeometry relative="1" as="geometry" />
        </mxCell>
        <mxCell id="c3Bb5KOv40KCeekuW3EP-2" value="User" style="shape=umlActor;verticalLabelPosition=bottom;verticalAlign=top;html=1;outlineConnect=0;" parent="1" vertex="1">
          <mxGeometry x="130" y="110" width="30" height="60" as="geometry" />
        </mxCell>
        <mxCell id="c3Bb5KOv40KCeekuW3EP-3" value="" style="edgeStyle=orthogonalEdgeStyle;rounded=0;orthogonalLoop=1;jettySize=auto;html=1;" parent="1" source="c3Bb5KOv40KCeekuW3EP-4" target="c3Bb5KOv40KCeekuW3EP-13" edge="1">
          <mxGeometry relative="1" as="geometry" />
        </mxCell>
        <mxCell id="c3Bb5KOv40KCeekuW3EP-4" value="Upload File MSD/MSEED&amp;nbsp; &amp;nbsp;" style="ellipse;whiteSpace=wrap;html=1;" parent="1" vertex="1">
          <mxGeometry x="220" y="111.25" width="100" height="58.75" as="geometry" />
        </mxCell>
        <mxCell id="c3Bb5KOv40KCeekuW3EP-5" value="" style="edgeStyle=orthogonalEdgeStyle;rounded=0;orthogonalLoop=1;jettySize=auto;html=1;" parent="1" source="c3Bb5KOv40KCeekuW3EP-6" target="c3Bb5KOv40KCeekuW3EP-8" edge="1">
          <mxGeometry relative="1" as="geometry" />
        </mxCell>
        <mxCell id="c3Bb5KOv40KCeekuW3EP-6" value="Extract Features " style="ellipse;whiteSpace=wrap;html=1;" parent="1" vertex="1">
          <mxGeometry x="535" y="111.25" width="100" height="58.75" as="geometry" />
        </mxCell>
        <mxCell id="c3Bb5KOv40KCeekuW3EP-7" value="" style="edgeStyle=orthogonalEdgeStyle;rounded=0;orthogonalLoop=1;jettySize=auto;html=1;" parent="1" source="c3Bb5KOv40KCeekuW3EP-8" target="c3Bb5KOv40KCeekuW3EP-10" edge="1">
          <mxGeometry relative="1" as="geometry" />
        </mxCell>
        <mxCell id="c3Bb5KOv40KCeekuW3EP-8" value="Merge DataFrame " style="ellipse;whiteSpace=wrap;html=1;" parent="1" vertex="1">
          <mxGeometry x="530" y="210" width="110" height="58.75" as="geometry" />
        </mxCell>
        <mxCell id="c3Bb5KOv40KCeekuW3EP-9" value="" style="edgeStyle=orthogonalEdgeStyle;rounded=0;orthogonalLoop=1;jettySize=auto;html=1;" parent="1" source="c3Bb5KOv40KCeekuW3EP-10" target="c3Bb5KOv40KCeekuW3EP-11" edge="1">
          <mxGeometry relative="1" as="geometry" />
        </mxCell>
        <mxCell id="c3Bb5KOv40KCeekuW3EP-10" value="Fill NaN with 0" style="ellipse;whiteSpace=wrap;html=1;" parent="1" vertex="1">
          <mxGeometry x="380" y="210" width="110" height="58.75" as="geometry" />
        </mxCell>
        <mxCell id="c3Bb5KOv40KCeekuW3EP-11" value="Identifikasi Arah Guguran" style="ellipse;whiteSpace=wrap;html=1;" parent="1" vertex="1">
          <mxGeometry x="215" y="210" width="110" height="58.75" as="geometry" />
        </mxCell>
        <mxCell id="c3Bb5KOv40KCeekuW3EP-12" value="" style="edgeStyle=orthogonalEdgeStyle;rounded=0;orthogonalLoop=1;jettySize=auto;html=1;" parent="1" source="c3Bb5KOv40KCeekuW3EP-13" target="c3Bb5KOv40KCeekuW3EP-6" edge="1">
          <mxGeometry relative="1" as="geometry" />
        </mxCell>
        <mxCell id="c3Bb5KOv40KCeekuW3EP-13" value="Menampilkan Sinyal Trace Pertama" style="ellipse;whiteSpace=wrap;html=1;" parent="1" vertex="1">
          <mxGeometry x="385" y="111.25" width="100" height="58.75" as="geometry" />
        </mxCell>
        <mxCell id="c3Bb5KOv40KCeekuW3EP-18" value="" style="edgeStyle=orthogonalEdgeStyle;rounded=0;orthogonalLoop=1;jettySize=auto;html=1;dashed=1;endArrow=none;endFill=0;" parent="1" source="c3Bb5KOv40KCeekuW3EP-16" target="c3Bb5KOv40KCeekuW3EP-17" edge="1">
          <mxGeometry relative="1" as="geometry" />
        </mxCell>
        <mxCell id="c3Bb5KOv40KCeekuW3EP-16" value="User" style="rounded=0;whiteSpace=wrap;html=1;" parent="1" vertex="1">
          <mxGeometry x="910" y="361" width="100" height="38" as="geometry" />
        </mxCell>
        <mxCell id="c3Bb5KOv40KCeekuW3EP-17" value="" style="rounded=0;whiteSpace=wrap;html=1;" parent="1" vertex="1">
          <mxGeometry x="954" y="439" width="12" height="321" as="geometry" />
        </mxCell>
        <mxCell id="c3Bb5KOv40KCeekuW3EP-20" value="" style="edgeStyle=orthogonalEdgeStyle;rounded=0;orthogonalLoop=1;jettySize=auto;html=1;dashed=1;endArrow=none;endFill=0;exitX=0.5;exitY=1;exitDx=0;exitDy=0;" parent="1" source="c3Bb5KOv40KCeekuW3EP-17" edge="1">
          <mxGeometry relative="1" as="geometry">
            <mxPoint x="959.73" y="760" as="sourcePoint" />
            <mxPoint x="960" y="800" as="targetPoint" />
          </mxGeometry>
        </mxCell>
        <mxCell id="c3Bb5KOv40KCeekuW3EP-27" value="" style="edgeStyle=orthogonalEdgeStyle;rounded=0;orthogonalLoop=1;jettySize=auto;html=1;endArrow=none;endFill=0;dashed=1;" parent="1" source="c3Bb5KOv40KCeekuW3EP-22" target="c3Bb5KOv40KCeekuW3EP-23" edge="1">
          <mxGeometry relative="1" as="geometry" />
        </mxCell>
        <mxCell id="c3Bb5KOv40KCeekuW3EP-22" value="Sistem" style="rounded=0;whiteSpace=wrap;html=1;" parent="1" vertex="1">
          <mxGeometry x="1124" y="361" width="100" height="38" as="geometry" />
        </mxCell>
        <mxCell id="c3Bb5KOv40KCeekuW3EP-28" value="" style="edgeStyle=orthogonalEdgeStyle;rounded=0;orthogonalLoop=1;jettySize=auto;html=1;endArrow=none;endFill=0;dashed=1;" parent="1" source="c3Bb5KOv40KCeekuW3EP-23" target="c3Bb5KOv40KCeekuW3EP-26" edge="1">
          <mxGeometry relative="1" as="geometry" />
        </mxCell>
        <mxCell id="c3Bb5KOv40KCeekuW3EP-23" value="" style="rounded=0;whiteSpace=wrap;html=1;" parent="1" vertex="1">
          <mxGeometry x="1168" y="450" width="12" height="40" as="geometry" />
        </mxCell>
        <mxCell id="c3Bb5KOv40KCeekuW3EP-56" style="edgeStyle=orthogonalEdgeStyle;rounded=0;orthogonalLoop=1;jettySize=auto;html=1;entryX=0.5;entryY=0;entryDx=0;entryDy=0;endArrow=none;endFill=0;dashed=1;" parent="1" source="c3Bb5KOv40KCeekuW3EP-24" target="c3Bb5KOv40KCeekuW3EP-25" edge="1">
          <mxGeometry relative="1" as="geometry" />
        </mxCell>
        <mxCell id="c3Bb5KOv40KCeekuW3EP-24" value="Halaman File Explorer" style="rounded=0;whiteSpace=wrap;html=1;" parent="1" vertex="1">
          <mxGeometry x="1344" y="361" width="100" height="38" as="geometry" />
        </mxCell>
        <mxCell id="c3Bb5KOv40KCeekuW3EP-25" value="" style="rounded=0;whiteSpace=wrap;html=1;" parent="1" vertex="1">
          <mxGeometry x="1388" y="579" width="12" height="41" as="geometry" />
        </mxCell>
        <mxCell id="c3Bb5KOv40KCeekuW3EP-26" value="" style="rounded=0;whiteSpace=wrap;html=1;" parent="1" vertex="1">
          <mxGeometry x="1168" y="519" width="12" height="41" as="geometry" />
        </mxCell>
        <mxCell id="c3Bb5KOv40KCeekuW3EP-54" value="" style="edgeStyle=orthogonalEdgeStyle;rounded=0;orthogonalLoop=1;jettySize=auto;html=1;dashed=1;endArrow=none;endFill=0;" parent="1" source="c3Bb5KOv40KCeekuW3EP-29" target="c3Bb5KOv40KCeekuW3EP-47" edge="1">
          <mxGeometry relative="1" as="geometry" />
        </mxCell>
        <mxCell id="c3Bb5KOv40KCeekuW3EP-29" value="" style="rounded=0;whiteSpace=wrap;html=1;" parent="1" vertex="1">
          <mxGeometry x="1168" y="620" width="12" height="41" as="geometry" />
        </mxCell>
        <mxCell id="c3Bb5KOv40KCeekuW3EP-32" value="" style="endArrow=classic;html=1;rounded=0;exitX=1.019;exitY=0.034;exitDx=0;exitDy=0;exitPerimeter=0;entryX=0;entryY=0;entryDx=0;entryDy=0;" parent="1" source="c3Bb5KOv40KCeekuW3EP-17" target="c3Bb5KOv40KCeekuW3EP-23" edge="1">
          <mxGeometry width="50" height="50" relative="1" as="geometry">
            <mxPoint x="944" y="630" as="sourcePoint" />
            <mxPoint x="994" y="580" as="targetPoint" />
          </mxGeometry>
        </mxCell>
        <mxCell id="c3Bb5KOv40KCeekuW3EP-35" value="" style="endArrow=classic;html=1;rounded=0;exitX=0;exitY=1;exitDx=0;exitDy=0;entryX=1.045;entryY=0.156;entryDx=0;entryDy=0;entryPerimeter=0;" parent="1" edge="1">
          <mxGeometry width="50" height="50" relative="1" as="geometry">
            <mxPoint x="1168" y="559.9999999999998" as="sourcePoint" />
            <mxPoint x="966.5399999999997" y="560.076" as="targetPoint" />
          </mxGeometry>
        </mxCell>
        <mxCell id="c3Bb5KOv40KCeekuW3EP-36" value="Memilih Model" style="text;html=1;align=center;verticalAlign=middle;whiteSpace=wrap;rounded=0;" parent="1" vertex="1">
          <mxGeometry x="1004" y="420" width="90" height="30" as="geometry" />
        </mxCell>
        <mxCell id="c3Bb5KOv40KCeekuW3EP-37" value="" style="endArrow=classic;html=1;rounded=0;exitX=1;exitY=0.25;exitDx=0;exitDy=0;entryX=0.25;entryY=0;entryDx=0;entryDy=0;" parent="1" source="c3Bb5KOv40KCeekuW3EP-17" target="c3Bb5KOv40KCeekuW3EP-26" edge="1">
          <mxGeometry width="50" height="50" relative="1" as="geometry">
            <mxPoint x="1178" y="569.9999999999998" as="sourcePoint" />
            <mxPoint x="976.5399999999997" y="570.076" as="targetPoint" />
          </mxGeometry>
        </mxCell>
        <mxCell id="c3Bb5KOv40KCeekuW3EP-38" value="Memilih Tombol Input" style="text;html=1;align=center;verticalAlign=middle;whiteSpace=wrap;rounded=0;" parent="1" vertex="1">
          <mxGeometry x="1014" y="490" width="130" height="30" as="geometry" />
        </mxCell>
        <mxCell id="c3Bb5KOv40KCeekuW3EP-39" value="Menampilkan Halaman File Explorer" style="text;html=1;align=center;verticalAlign=middle;whiteSpace=wrap;rounded=0;" parent="1" vertex="1">
          <mxGeometry x="1014" y="530" width="130" height="30" as="geometry" />
        </mxCell>
        <mxCell id="c3Bb5KOv40KCeekuW3EP-40" value="" style="endArrow=classic;html=1;rounded=0;entryX=0;entryY=0;entryDx=0;entryDy=0;exitX=1.005;exitY=0.439;exitDx=0;exitDy=0;exitPerimeter=0;" parent="1" source="c3Bb5KOv40KCeekuW3EP-17" target="c3Bb5KOv40KCeekuW3EP-25" edge="1">
          <mxGeometry width="50" height="50" relative="1" as="geometry">
            <mxPoint x="964" y="580" as="sourcePoint" />
            <mxPoint x="976.5399999999997" y="570.076" as="targetPoint" />
          </mxGeometry>
        </mxCell>
        <mxCell id="c3Bb5KOv40KCeekuW3EP-41" value="Memilih File MSD/MSEED" style="text;html=1;align=center;verticalAlign=middle;whiteSpace=wrap;rounded=0;" parent="1" vertex="1">
          <mxGeometry x="1184" y="550" width="180" height="30" as="geometry" />
        </mxCell>
        <mxCell id="c3Bb5KOv40KCeekuW3EP-43" style="edgeStyle=orthogonalEdgeStyle;rounded=0;orthogonalLoop=1;jettySize=auto;html=1;" parent="1" source="c3Bb5KOv40KCeekuW3EP-25" edge="1">
          <mxGeometry relative="1" as="geometry">
            <mxPoint x="1179" y="620" as="targetPoint" />
            <Array as="points">
              <mxPoint x="1179" y="620" />
            </Array>
          </mxGeometry>
        </mxCell>
        <mxCell id="c3Bb5KOv40KCeekuW3EP-44" value="Menampilkan Sinyal Dari File Explorer" style="text;html=1;align=center;verticalAlign=middle;whiteSpace=wrap;rounded=0;" parent="1" vertex="1">
          <mxGeometry x="1194" y="620" width="180" height="30" as="geometry" />
        </mxCell>
        <mxCell id="c3Bb5KOv40KCeekuW3EP-45" style="edgeStyle=orthogonalEdgeStyle;rounded=0;orthogonalLoop=1;jettySize=auto;html=1;entryX=1.159;entryY=0.674;entryDx=0;entryDy=0;entryPerimeter=0;" parent="1" source="c3Bb5KOv40KCeekuW3EP-29" target="c3Bb5KOv40KCeekuW3EP-17" edge="1">
          <mxGeometry relative="1" as="geometry">
            <Array as="points">
              <mxPoint x="1124" y="655" />
              <mxPoint x="1124" y="655" />
            </Array>
          </mxGeometry>
        </mxCell>
        <mxCell id="c3Bb5KOv40KCeekuW3EP-46" value="Menampilkan Sinyal Dari File Explorer" style="text;html=1;align=center;verticalAlign=middle;whiteSpace=wrap;rounded=0;" parent="1" vertex="1">
          <mxGeometry x="988" y="625.5" width="180" height="30" as="geometry" />
        </mxCell>
        <mxCell id="c3Bb5KOv40KCeekuW3EP-47" value="" style="rounded=0;whiteSpace=wrap;html=1;" parent="1" vertex="1">
          <mxGeometry x="1168" y="680" width="12" height="80" as="geometry" />
        </mxCell>
        <mxCell id="c3Bb5KOv40KCeekuW3EP-48" value="" style="endArrow=classic;html=1;rounded=0;exitX=0;exitY=0;exitDx=0;exitDy=0;entryX=1;entryY=0.75;entryDx=0;entryDy=0;" parent="1" source="c3Bb5KOv40KCeekuW3EP-47" target="c3Bb5KOv40KCeekuW3EP-17" edge="1">
          <mxGeometry width="50" height="50" relative="1" as="geometry">
            <mxPoint x="934" y="720" as="sourcePoint" />
            <mxPoint x="984" y="670" as="targetPoint" />
          </mxGeometry>
        </mxCell>
        <mxCell id="c3Bb5KOv40KCeekuW3EP-49" value="" style="endArrow=classic;html=1;rounded=0;exitX=0;exitY=0;exitDx=0;exitDy=0;entryX=1;entryY=0.75;entryDx=0;entryDy=0;" parent="1" edge="1">
          <mxGeometry width="50" height="50" relative="1" as="geometry">
            <mxPoint x="1168" y="700" as="sourcePoint" />
            <mxPoint x="966" y="700" as="targetPoint" />
          </mxGeometry>
        </mxCell>
        <mxCell id="c3Bb5KOv40KCeekuW3EP-50" value="" style="endArrow=classic;html=1;rounded=0;exitX=0;exitY=0;exitDx=0;exitDy=0;entryX=1;entryY=0.75;entryDx=0;entryDy=0;" parent="1" edge="1">
          <mxGeometry width="50" height="50" relative="1" as="geometry">
            <mxPoint x="1168" y="719.73" as="sourcePoint" />
            <mxPoint x="966" y="719.73" as="targetPoint" />
          </mxGeometry>
        </mxCell>
        <mxCell id="c3Bb5KOv40KCeekuW3EP-51" value="" style="endArrow=classic;html=1;rounded=0;exitX=0;exitY=0;exitDx=0;exitDy=0;entryX=1;entryY=0.75;entryDx=0;entryDy=0;" parent="1" edge="1">
          <mxGeometry width="50" height="50" relative="1" as="geometry">
            <mxPoint x="1168" y="740" as="sourcePoint" />
            <mxPoint x="966" y="740" as="targetPoint" />
          </mxGeometry>
        </mxCell>
        <mxCell id="c3Bb5KOv40KCeekuW3EP-52" value="" style="endArrow=classic;html=1;rounded=0;exitX=0;exitY=0;exitDx=0;exitDy=0;entryX=1;entryY=0.75;entryDx=0;entryDy=0;" parent="1" edge="1">
          <mxGeometry width="50" height="50" relative="1" as="geometry">
            <mxPoint x="1168" y="759.46" as="sourcePoint" />
            <mxPoint x="966" y="759.46" as="targetPoint" />
          </mxGeometry>
        </mxCell>
        <mxCell id="c3Bb5KOv40KCeekuW3EP-53" value="" style="edgeStyle=orthogonalEdgeStyle;rounded=0;orthogonalLoop=1;jettySize=auto;html=1;endArrow=none;endFill=0;dashed=1;exitX=0.5;exitY=1;exitDx=0;exitDy=0;entryX=0.5;entryY=0;entryDx=0;entryDy=0;" parent="1" source="c3Bb5KOv40KCeekuW3EP-26" target="c3Bb5KOv40KCeekuW3EP-29" edge="1">
          <mxGeometry relative="1" as="geometry">
            <mxPoint x="1184" y="500" as="sourcePoint" />
            <mxPoint x="1184" y="529" as="targetPoint" />
          </mxGeometry>
        </mxCell>
        <mxCell id="c3Bb5KOv40KCeekuW3EP-55" value="" style="edgeStyle=orthogonalEdgeStyle;rounded=0;orthogonalLoop=1;jettySize=auto;html=1;dashed=1;endArrow=none;endFill=0;exitX=0.5;exitY=1;exitDx=0;exitDy=0;" parent="1" edge="1">
          <mxGeometry relative="1" as="geometry">
            <mxPoint x="1173.63" y="760" as="sourcePoint" />
            <mxPoint x="1173.63" y="800" as="targetPoint" />
          </mxGeometry>
        </mxCell>
        <mxCell id="c3Bb5KOv40KCeekuW3EP-57" style="edgeStyle=orthogonalEdgeStyle;rounded=0;orthogonalLoop=1;jettySize=auto;html=1;entryX=0.5;entryY=0;entryDx=0;entryDy=0;endArrow=none;endFill=0;startArrow=none;startFill=0;dashed=1;" parent="1" edge="1">
          <mxGeometry relative="1" as="geometry">
            <mxPoint x="1393.58" y="620" as="sourcePoint" />
            <mxPoint x="1393.58" y="800" as="targetPoint" />
          </mxGeometry>
        </mxCell>
        <mxCell id="c3Bb5KOv40KCeekuW3EP-58" value="Menampilkan Ekstraksi Fitur" style="text;html=1;align=center;verticalAlign=middle;whiteSpace=wrap;rounded=0;" parent="1" vertex="1">
          <mxGeometry x="988" y="655.5" width="180" height="30" as="geometry" />
        </mxCell>
        <mxCell id="c3Bb5KOv40KCeekuW3EP-59" value="Menampilkan Merged Fitur" style="text;html=1;align=center;verticalAlign=middle;whiteSpace=wrap;rounded=0;" parent="1" vertex="1">
          <mxGeometry x="994" y="680" width="160" height="20" as="geometry" />
        </mxCell>
        <mxCell id="c3Bb5KOv40KCeekuW3EP-70" value="" style="shape=table;html=1;whiteSpace=wrap;startSize=0;container=1;collapsible=0;childLayout=tableLayout;strokeWidth=2;" parent="1" vertex="1">
          <mxGeometry x="82" y="1151" width="375" height="879" as="geometry" />
        </mxCell>
        <mxCell id="c3Bb5KOv40KCeekuW3EP-71" value="" style="shape=tableRow;horizontal=0;startSize=0;swimlaneHead=0;swimlaneBody=0;top=0;left=0;bottom=0;right=0;collapsible=0;dropTarget=0;fillColor=none;points=[[0,0.5],[1,0.5]];portConstraint=eastwest;" parent="c3Bb5KOv40KCeekuW3EP-70" vertex="1">
          <mxGeometry width="375" height="52" as="geometry" />
        </mxCell>
        <mxCell id="c3Bb5KOv40KCeekuW3EP-72" value="User" style="shape=partialRectangle;html=1;whiteSpace=wrap;connectable=0;fillColor=none;top=0;left=0;bottom=0;right=0;overflow=hidden;fontStyle=1" parent="c3Bb5KOv40KCeekuW3EP-71" vertex="1">
          <mxGeometry width="188" height="52" as="geometry">
            <mxRectangle width="188" height="52" as="alternateBounds" />
          </mxGeometry>
        </mxCell>
        <mxCell id="c3Bb5KOv40KCeekuW3EP-73" value="Sistem" style="shape=partialRectangle;html=1;whiteSpace=wrap;connectable=0;fillColor=none;top=0;left=0;bottom=0;right=0;overflow=hidden;fontStyle=1" parent="c3Bb5KOv40KCeekuW3EP-71" vertex="1">
          <mxGeometry x="188" width="187" height="52" as="geometry">
            <mxRectangle width="187" height="52" as="alternateBounds" />
          </mxGeometry>
        </mxCell>
        <mxCell id="c3Bb5KOv40KCeekuW3EP-74" value="" style="shape=tableRow;horizontal=0;startSize=0;swimlaneHead=0;swimlaneBody=0;top=0;left=0;bottom=0;right=0;collapsible=0;dropTarget=0;fillColor=none;points=[[0,0.5],[1,0.5]];portConstraint=eastwest;" parent="c3Bb5KOv40KCeekuW3EP-70" vertex="1">
          <mxGeometry y="52" width="375" height="827" as="geometry" />
        </mxCell>
        <mxCell id="c3Bb5KOv40KCeekuW3EP-75" value="" style="shape=partialRectangle;html=1;whiteSpace=wrap;connectable=0;fillColor=none;top=0;left=0;bottom=0;right=0;overflow=hidden;" parent="c3Bb5KOv40KCeekuW3EP-74" vertex="1">
          <mxGeometry width="188" height="827" as="geometry">
            <mxRectangle width="188" height="827" as="alternateBounds" />
          </mxGeometry>
        </mxCell>
        <mxCell id="c3Bb5KOv40KCeekuW3EP-76" value="" style="shape=partialRectangle;html=1;whiteSpace=wrap;connectable=0;fillColor=none;top=0;left=0;bottom=0;right=0;overflow=hidden;" parent="c3Bb5KOv40KCeekuW3EP-74" vertex="1">
          <mxGeometry x="188" width="187" height="827" as="geometry">
            <mxRectangle width="187" height="827" as="alternateBounds" />
          </mxGeometry>
        </mxCell>
        <mxCell id="c3Bb5KOv40KCeekuW3EP-61" value="&lt;div&gt;Merged DataFrame After&amp;nbsp;&lt;/div&gt;&lt;div&gt;Filling NaN with 0&lt;/div&gt;&lt;div&gt;&lt;br&gt;&lt;/div&gt;" style="text;html=1;align=center;verticalAlign=middle;whiteSpace=wrap;rounded=0;" parent="1" vertex="1">
          <mxGeometry x="1007.25" y="780" width="141.5" height="20" as="geometry" />
        </mxCell>
        <mxCell id="c3Bb5KOv40KCeekuW3EP-62" value="&lt;div&gt;Prediction Results&lt;/div&gt;&lt;div&gt;&lt;br&gt;&lt;/div&gt;" style="text;html=1;align=center;verticalAlign=middle;whiteSpace=wrap;rounded=0;" parent="1" vertex="1">
          <mxGeometry x="1004" y="710" width="100" height="10" as="geometry" />
        </mxCell>
        <mxCell id="c3Bb5KOv40KCeekuW3EP-63" value="&lt;div&gt;Prediction Percentages&lt;/div&gt;&lt;div&gt;&lt;br&gt;&lt;/div&gt;" style="text;html=1;align=center;verticalAlign=middle;whiteSpace=wrap;rounded=0;" parent="1" vertex="1">
          <mxGeometry x="1004" y="734" width="140" height="10" as="geometry" />
        </mxCell>
        <mxCell id="c3Bb5KOv40KCeekuW3EP-64" value="" style="shape=image;verticalLabelPosition=bottom;labelBackgroundColor=default;verticalAlign=top;aspect=fixed;imageAspect=0;image=data:image/png,iVBORw0KGgoAAAANSUhEUgAAAkYAAAIQCAYAAABkCqGGAAAAAXNSR0IArs4c6QAAAARnQU1BAACxjwv8YQUAAAAJcEhZcwAADsMAAA7DAcdvqGQAAP+lSURBVHhe7N0JoG5T+T/wdQfXHKFQSOZCRMgUMidJytDoNggZUkqTodRPKA3mMZQ5ogxRmYcmkpTMkUQUhQx32P/9Wfc85/86XdcdznXec87zPXfdvffaa9zvep79Xc8adjniiCOacePGNXDVVVc1Cy+8cLPiiis2v/71r5uJEydW/3//+9/NN77xjeaKK67o9YMIX0ppTjzxxOa///1vM2HChOaOO+5odt111+a66657XvhpxQUXXFDT3mKLLZo//elPza9+9atm0003bZ588snm05/+dC3njTfe2LzjHe9oHnrooRrn8ccfbzbYYINmrbXWau67777mgx/8YO+93/72t7W8a6yxRi3bX/7yl5rO1Vdf3RxzzDE1r3PPPbc577zzmmuvvbbGgX/961/N6quv3iy77LLNYYcdVsvy7LPP9tz9XzzyyCPNRhtt1HzoQx+qz+SFoKzvfOc7a77HHXdcLedpp53WHHrooc2tt97azDbbbM2ee+5Z6/Gd73yn/k7y3XnnnWsd7rnnnp6Ummb8+PHN3nvv3Sy99NLN73//+x7fSTjllFNqHn7rr33ta83tt99e/eXBn/ObTQsuu+yyGs9v4Ln63QPKecsttzQ77LBDDbPSSis1119/fc/dSRDm61//em/+r3nNa+oz41wrpzoFIr8PfOADzX/+858e3+fjH//4R40/uWcQbemjH/1o89RTT/X4Ns2ll17am/8vfvGL57XXP//5z7Xsc8wxR/P973+//j4XXnhh8773va/51Kc+1VseZbv//vtrnM42Ju0f/OAHNd0p4Zlnnml23333mp42tskmm1SnbXzlK1+pz+nss8+ucgja/4477ljDe8bKec011zTvete7ann4f/jDH26OOuqo5pe//GWNE8+vb/2BHL/QPXLg3rvf/e7aXgM33HBDM/fcczerrLLK83SF3/Xoo4+ucTrb1IMPPtj722qnd999d3PxxRc3m222WbPVVltV/89//vPNwQcf3Nx55501Tsgk/862MDV4sfZywgkn1Pt+30suuaTm+aUvfanZaaed6u+36qqrNieddFItA4QM7bXXXv8j+3Fv//33f177ufLKK2u7cs9xl112qb/ncsst16y88spVr8D0/J633XZblT16jh7rRNzzvMlEgP6UFrfuuuv2tjO6Whuj2/7whz/0yvK0/GZ33XVXbTvrr79+fX7koBMhm8qlfFMD7YccyUc5tbPnnnuulmO77bar/nPOOWf9LdXNc5gZbSx+36lph9qGNiK89kBn0ANjx46t50sssUSz9dZb199eGf32MC3vXs+ZPKqr98sXvvCF+k4KhK7zzhDvrLPOel67DGiLES44QCfU5ROf+EQt80033VTfS9pmIJ6Ldn755Zc3p59++v/kI43ddtuthtPO4l08tfC8DznkkBqfvlEGz0696WT60r3Qw3/7299qvBd6F/z85z+v6cw///w1vjZz+OGH1/hLLbVUldPjjz++KZ0PxPnJJ5/czDfffDWzN77xjbWhf+QjH2nuvffenlD/H33Dc84PPPDA5wnk9EKj8TDjoXz2s5+tSq6z8alQZ14eGiLlHmXSec8L6Mtf/nJvWd/+9rf3CimlwI+i9DLo/IEJ47777tsbj1MeAnfsscc2Dz/8cE/ISRDffWm+GCjlUJ5+5HPOOacqJool8vrud79byw5+SMrw4x//+PNIFzKmPJN7EfjhpUO5dL6sOomR86kBAUSwPKeIOzmnLttvv31VWo8++mhP7OdD+T2jvu1H+lFfddGAV1tttXrfc0UMvTg6ldTNN99cXzyRznve854qBA888EBz6qmn1nYc6WsDXgDykL80+94DbeCMM87oLZ9wn/vc52q7POCAA+o1oe98mYSiivTIx+SUTl/4XbRH8V7IeUmEAqSg1l577eqvHPvss0/zz3/+s1fwKVkEn2L90Y9+NNn6e7aUWdyLdDxL98TTEel7D9TXbxBlpqi9XJVRuMnJP+Ufikw5PHvPK0iK3xjh0pbd6wzrmUbeU8LUthe/oU6HMJx6/O53v6tkAGng50X497///XnPj6wedNBB9fkpJ/IUsuCecvMPqE+UhVMeL0S/VSem9vfUlpCAzrb+sY99rIZTd0dtP+4JF89NXOQq2vMLOb9jtNmp/c08DzpSWfkj9T/+8Y+rPu5bXuXr+3u8ECYnF/S6jpYXmWevMxmdhv5sY54n3dH39+1LRPvCizjiSDf0mQ4u3c2fHpF+oO+7dErv3k4iveGGG1bjQCfOPPPMek/dtJnJkSLwntaWX0g/Pf30073vX79B57sD4pl6LlPSc0HAOsnbtGBy7VbdvCv322+/6k+WQw/7DSf3LvAbSAvRinaqPei4+i3imWpfI2TcXjwP7QMpLbOr5694xSvKXHPNVc9fCML/9a9/LW3Purzyla8sY8aM6bkz42iFp7S98TLPPPOU9gGUESNGVP+2IqVtIGWhhRYqI0eOrH6Bxx57rJZpcvfaRlJaVllGjRr1vPtRh8UXX/x55fcc2gZUWsZfXv/615eWSJX2QZaWnZaW2ZcnnniitA2jtOy5rLfeej2xpg3K2yrBsthii/XmrZytAJaXv/zl1c0IPMOWIJRXvepV//PbeIbwYr/xzIRnf/vttyPp9Rm3vcCeO92B9iVf2h5xaXtOZcEFF6xtUHn9Ltp7XxAp7dOznn322Xt8pwzt6qKLLip77LFHaXuE9fcH6bQKtbYR7bAV8tK+sOs9v6v2N8sss/T+ftOT94xAfo8//nh9PsrRvqym2JbaTkYtM10R5VPX9sVWf/e+7XNmIp6V/OmXTl2gnC972ct69c2MwO909913l7aDUJZbbrnn6bFOzOzfU/ptJ6lsvvnmVWe1hKH6h66Rz29+85vavu688876W8JA/2byopu9B5Zeeukqg/QWP8+zr47vhjZGhr1nFl100d4y+C1bol3LG3qkL7S9qXn3CkcvtYT5f+rjd24Jfpl//vmnqEs9T++E0aNH9/j8L9TDu2ly4TxTdSQn5OeFcPzxx5dllllmut+PAWVpyVWVD+8J9aaHF1hggVrXaYH2433TEqTeemk38lCXyRKjxCRQDn5QROitb31rj+//h8bpZeZl1bLMcuSRR5bZZput524iMXV4+OGHy2abbVba3l157Wtf2+P7v/jjH/9YLrnkkrL33nv3+CQSUwdq/rTTTqsvZu3nhQifl91BBx1U3v3ud5e2V97jm0hMHxAXZOad73xnv3QyXio8n2onnocf/vCHZfXVVy8rrbRSj8/zoSewzTbblH333bcqnr49l0TixTBhwoTyjW98o/Z6pmRp0b5uvvnm2h4TiWmFl9MHPvCBF7RUBFghkCfW60RiRoAUnX/++WXLLbccVKQI8k0+BTCzGS5jLnwhuGeI4yMf+chLYqJNDC0gRtzPf/7z2pP/wx/+UE3hnTCMdsghh9QhtbXWWqvHN5GYejzzzDP1SE9973vfq22qE9qcYTRDM7vvvvsMD9slhh/+9a9/lRNPPLHqKdbtI444ouy2225THKrrWhhKS0weJrlZqeIxmXRnFZiJxJyJZN/+9rfrhGaT3ya+wAS3ROLFYIKvCbQxIbCvM0HwZz/7We8E70RiWqHtWHFr1dPk2pi290KT5hOJqYEVuNqSNmZFnknvgxX9PsdIcsxmxqodB5sJbXIwae/Pf/5zNUebsGXIzNwjE/8MgeQQWmJGQW5Mzr3lllvqRF0wubtVMnXCqcUC3YyQ+0R3g/4yxPH73/++TjQNXbb88stP8wTWRKIThmAvv/zy8uY3v7kuVJlWfRBUpBv0SL8RI8kgQxwlbsUDoWOSDb9EIjF0QOZD7g0Hhsm8s0OUZCmRSPQFnUF30A+OuILFTKajdMPQW78QI0kYo+YQIdedJCktKonE0AQLBGdpNPkn+50EKZFIJDqBFzz77LN12T2EnsAT6A/XA607+nUoTYXtBWB/CXti2EMBC5x11lnrvUQiMXRAkSFBVAi5ZzVCkGKir60r+CcSiUSAsYSjG+gQHSuWIns+ue4Gq1G/ESNKEQu0Udgmm2xSV2upnF7kCiusUP0TicTQQWwOClZw2lSvL/j3Y98rkUgMctAH5rf1xc9+9rOy4YYbdoWluV+H0hAhy9tNvopksUIM0HWa1hOJoQMy3Tm3yDk9wEJ83HHHVV1wwgkn1HuJRCIRYFXGB+gKFiOE6GMf+1h573vfW61GQ2YojUJUWfsXvP/976+7RrMgBSlKJBJDEwgRRRZD6WTefiY33nhjJUiJRCIRoCc65xM533rrrcv2229f3vGOd9S5R0NmKE0y3PXXX18+9alP1d4ihckBZZlIJIYWyDxFxzkn5zpJPo9jWfhRRx3VEzKRSCQmAS8w9I4AmZdod+yxY8fWT9F0A/pluVgoR8yP88FSfjGpKklR90ND9ZuBY5wHXHvh9QX/eCl2xum87jxG2Ljue97pFy/cRPeCjLMUU3B6en670APxOyYGL/yGk5PBkNMp/cadYSLc5Pxgcv4h/3Ht2FmWF9NZie6F3878Q0Np8duxNneLvu8XYhTmsKigbz455gdVBwc0UvtOeck55zTQUDzO3ev8GndnGC9G547CI1AcvwgTfoZXO9Pl55pQRJr83Jcnl+he6PTo8XXOCaALBtoUnphxkMWQQfIY8tkpp1yE7ZThcO6L7xjXnf6cOJ3x5MXRJ/Gy5JxHWsKbwOsaOvOINBLdC52o0BNWqPlCv/Nu6VD16wZDAz1hKjHt0AgpFWTW70cZObL6GQoJJcTft3DMHXON4PDTkLF+Ssu58M5j/yppUVS2bZCXsO4JFwIgvBdshAf3CU9aGxOJlx6hF8j8HXfcUb/h5wsAZJX8k9OQceHoAh2n0Bf0hx3cyb14999/f3nkkUdq2Hvuuadehw7hF3IfOoHOiPQD9AEX+sh2MPJTNt9+E1489xOJGUHuvJioCoVComz0/ilDH5L0AUDKi+IyHvyud72r+lM+wtnMk+KiLB9//PFe9h8rDTpBibkXSitIEL9QdqFUpeOevPklEomXFuSPnF933XVl4403LltttVXdn84oANkNOUZ8bNtA5uedd956j674+te/XtZZZ53yz3/+s35+ZKmllqoLc1h5fAh5m222qTpDh4wOoEPkB2Se7IduQbjkF/fDSum+z+i84Q1vKD/96U97P3EivURiRpDEKFEVEYWCvFBASJLx33nmmaeSFASI/2qrrVb9kB6K66677ipXXXVVVXyuKSZxpWcfq6uvvrp+sfvhhx+upMt9PUU9vJtuuqn2RCnRe++9typgq5h8b0f6QZCQpkQi8dIDqfnVr35V5feVr3xllVmySVeQTxYhsswSZNHNzTffXOWZzC6yyCJllVVWqZact7zlLXUfO9u4IFLLLrtseeMb31iJlG9QIkz86Q3kix4I/YAM0UXSoWfoFGVCiJRhwQUXLLfeemvZbLPNKpnjp4xheUokpgdJjBJViVBAnT21hRdeuCoZvUH3+FF6/IRnKtcrXH/99euGnl/4wheqyVxYH9vde++9670tttiiLt2m+Pjbq2LnnXcun/nMZ8qZZ55Zrr322vKlL32pht18883r8m5KL3qsiUTipQfZe/DBBytRYTleeeWVaycHWSL/rMqHHXZYtf588YtfrOTHUutLLrmkEiN6hOUGqfnJT35SFl988XLhhRdWCxFdwsJkSM0KZiTJOfL0ta99re5ls+6665b99tuv6gxfUfBxUtvAbLDBBuWtb31rTZNO0dGygbD9sugv+onu4BKJ6UUSo2EOCoRpmlJhoWGidk7xUWAxsVYvbKGFFqoKj9LUq6OsfvCDH9RenPt6eUgNP709pOr8888vl112Wbn44ourxegf//hHVXoU6P77719uu+22Gsc1oqT3SNnJm4LNnl8i8dKDnJtj+Mtf/rISkVe84hXloosuqsNfZJOjB1h/9tlnnyrXhtwOPfTQGo/cxhAZErTtttvWYTh6gtVZx+qYY46pYex47Ov+5i9atu36u9/9biVl9AMrsg4TEkbvIGS//e1vqxUp5iCyPiFFkENpiRlFEqNhDgoMEQLKzjXlRblQaPyAvyEvChJZsopAD08v7uc//3n57Gc/W97+9rdXqxGTuh7ilVdeWYfbEC49Teb4pZdeuiy22GLVT49vgQUWqARrxx13rIrwq1/9annd617XazFKYpRIvPRAgJAQMsuSu+mmm9ZvWRnGIpc6LXTEq1/96jpsZrh97bXXruHpCZaiWMVKh0gvvp3HaoRksfqsscYaVd6lxyqF4Bx99NHVsVDRRXSN+UonnXRS2Wuvvar++dznPlfzNkQv74ceeqjmE524RGJGkMRomIMiobAQlbjWC5tvvvmqxSd6YfyQGNYdvUlDX9/61rfqPALDYquvvno57bTTqlKiFCk+JvYvf/nLldxQXtIzH4Gii3zXW2+9Ogz3mte8puy0007VHB/KV7wgZolEov9BxsgaOHI6SsiNOURIi3mELLksPSw1ZJhc0gOIifA6UdKKThV/eoCMC4cQueea7JN3R9YhliLD9HQFvbLmmmvW4XcTvgHZetvb3laH4KX1oQ99qBIkc4ukgUxJF5SLruKfSEwv8q2TqOSHcgvF5priQoKM71M2en8c5UjxMJ1TYIbRTj/99OpnvpB0WIQ++MEPlmuuuabOETD+P3bs2JqO3l4o0yBe73vf+6rVCdEy18BEbOVQHi6RSPQvghA5huyHHiDzhtDMCWI10sEhw+T7d7/7XSVNiAgnDaRGPFYbxMUiDsQk0oQgLvwMjSFAhxxySPW74oor6vC59Pfcc8+6+7F0WJmlozwsSt/4xjfKueeeW/XFeeedVyduy196yJhzHTx5cInE9CKJ0TBHKK9QKAjJ/PPPX5Zccsn6WRdj+xSk4S5LYhEeYZxbZXL88cfXdJjbDZ9xK664Yjn11FPLKaecUg488MCy3HLLVbJj6MzcJaAopWOegfkFFB7StMMOO5Qllliikij3E4lE/wOJYMVBPIJUOHJWlJoTSKaRFkNaVp0Z+hKHNRhxIcMI1C9+8Yvywx/+sBx++OF1IjX5RWrIO+gIsT7F0BoSRQ9stNFG9RtZSJdhdJOuEZ4jjjiipocohc5405veVJf4m8cofWGXWWaZSsKAvuAgSVFiRjHqgBY95zMMQqaBX3DBBXUlQ5ozux9+I44C0iuLuT+vfe1rK2ExIZq5m4XI6jEmbYTFShBmdsSGSdvcIb+5OUisTeJToJTUN7/5zTpkFhMxxROGYqXcWJjOPvvsqoSFM2+JwguyFgov0b3olHXnhlws8zbvLNG9IFtIEQfkjaybK0gWTXhGZOgGR7/tq171qjq/xxAbeaYnTj755Nqp2WWXXeoiDWTGEJchdsPo5iGttNJK1Y9+IffmFAlrzhFLNFJFR1isoYNFL9AzSJEOGUvVj370o7psXz4s1giYsklbHJZr5K6zPSa6G34rRNh7QVsKv4FEv35EVmVYBgybMHPmC21wgMLTq0NU/IZBYPix4lCaoUANf4WpnB9rE0UEoWDDn8IC6fN3zR+xQnqkwYnPv5MEuYYIl+hehOyHKnFu8uwtt9xSj4nug98qfi+ySc4cgbwiLwiLc/JKDwQx4kymNrcQAWbtRXwiDNmlP8STJrIS8k0HRL70C9l3H1iU3A+9Ia706IRw4vKP9hb6QjhpuRdhE92LaAPgt/RlfRsIW73oHr+BRLaeYQ6NkAILk3QoFv6UJeVFSVI8/Cgtfq6F5cdRfFyQnFCKodjEcw3SBWH6puMcMePcSyQS/Q8vHnLpyIWskjv+sd8Qh7iQTeHINz9Hq9C8yCymiE1gI92Q+86OTRwhdEWQGboAmQIESTnkSW9Ix31+QB+5loa4jnRS5B+6JJGYXiQxSlTFE0QkFBsl40gpdirGUFYUmnNxQhHxi/QoOUorlKFwcd2pyKTlCBFWfNaryDeRSPQvyFXII3lzHiCrZFIY98i1I1kFYa04+8hHPlKH160aEz46OqELpC2se87jGtznHzrHUXwg96EXQm9EGaStExdhxDXfCTFzP8qeSMwIkhgNc1AsFEz02BwpIj29UEpx7R4lFAqJQ2Dcd4/S4vhTTqGgwk88aXIUGdM7ZeZeKNO4lp740k4kEv0L8ka+OmWWjHPklCN7EcY5uQ1ZdR66wjW5pT/IsOuQ3Ygbx3Cu5QXCIjrSCAgTeckH3OcvPDiHTh3knniJxIyg34mRBhpzVSAEItG9oHCYzv1mfrswaTvyc/Q7UnomT/o943cNf/HAtTgUnXjS5kIJ8gszvbDgXBrRZpwLJ42Il+hedLaFOMZvmehOkLno4ED8dtFx4U/2Qgbd5w8h7yGbwsZvLl1HaTnKI+KDc/5c5BPn0o3w/OJaJyr0Axd5BPlyLb6wOlvuJbobfjttItqd4VFHrhvQL8RI5aKRBqLhhkDEQ0jX3c7v5hjKh0KK606FxXUquU5/553pdV6Hk15n2lzn+eTipOs+R+YdwW/m2hFinki67nbkjSxz0THqGybu+W07ZZUMxzH8kCkudAGHtHARhh/CE+HkGWlEmAjnOtKJ/PgFaeOPEEX88Iu00nWXg06u4PdEbEOX+O0GGv2yKk2FKEGN2z4TlldavhmNuVNZJhKJoYFQHV5IOkGOnOFWS64tr9511117wyUSiURwgTCmIMw+GGwDz3e+851Vhww0+nW5PtgZddVVV63L7/QIKEljv1hhIpEYOoheHkWn9x4ybmK9jwjb34oeSGKUSCQCVh2y6jGk0B/gKwlHHXVU2WKLLXotfgOJfiFGklBBTM9upTbo84FR/pxK9kM2iUSii0CmY7icknPOIUl2TLcrsl2NE4lEIkBH4AQIUMA3Mm3iaXfzgSZF0K8WI+6GG26oX0J+6qmn6rhv3OuGyiYSif4HRccqzCSug0TefQmdxcjnHRKJRKITdAS9EeeG0D784Q/XI64w0CNM/ZZ7kJ8gQNigioeiTCQSQwvkmnyHORxiki3F1umfSCQSELyAwxfoC/tidW7/MNDot1VpQYzAhl+dvcfwTyQSQwuh5GLFUizB7gbllkgkug90A50Bjpx5RzpTDCrdMB+5X0pAEUZlnPuQqGNnJYM8pUuXbmi4kHtHoODCPA7OJxcvXbp0w9fF5Oo4diP6lZqpNOVo6b6jSqdLl25oOrDggnU4zk28BvIfpCldunTpwgFd4dyRnoj5yHF/oNGvxKhbKpVIJBKJRCIxPehXYpRIJBKJRCIxmJHEKJFIJBKJRKIHSYwSiUQikUgkepDEKJFIJBKJRKIHSYwSiUQikUgkepDEKJFIJBKJRKIHSYwSiUQikUgkepDEKJFIJBKJRKIHSYwSiUQikUgkepDEKJFIJBKJRKIHSYwSiUQikUgkepDEKJFIJBKJRKIHSYyGO5o+rgdxObHjvNPxf6F7U4Om52/qYyQSiUQiMfORxCjRMpyWnExoac6ECe35xJbwNGVC68Y1E8tzzYTyXHs1vr0OMuR8XHv2XI8bX++3xzb8+IkTyrg2rTaZXqbUhKuX0vE3ocdFwEQikUgkBh5JjIY7cBKkCJNpiU0Z0ePFtecT6/WISVSmkp5xrWupUBtWOP9Pojbx10YY0Tp+bQCu9fSvhxz5E6vzmEgkEolEdyCJ0bBHD3MZ2ZKZUSN7iBB605RR7Z3R7a0R48aV0RMmlFEtsxnd+s/S+o/h2ntjWr9RLakaLWxLiEa1bsTEpkxoydaECS31wbcm8aSKntx60HEjkUgkEokuQBKjYY6mJTLjR3Ejy/iWHI1rJpTxE8aXZuL4MnJiS4ba89EtuxnZkpxKgMa3xGi848T2Xo+r9ye04dtjS4o0qpEIUst7RvS0MOSoukqG/r+Lv0QikUgkugFJjIY5WIjGtYTouZbFjGtpC2I0sZIihAcZYjkaWUYw87SkqLQEqQ69PTehlGeeKeXZ58qINmx5bnx73Z6Pb+O2aY1qydbINl3R5GG4jZtEiCp1qn9tqOqbSCQSiUQ3IN9KwxzIyjhWo55zMCQ2esSoSWRoXEuAnhvXkp5n2+Nzk4jRiNGlzDKqDTjLJDPQk/9lCmqhOTWlGT+uTHj22TKB5Yl3ByZdsxG1YRvh01qUSCQSie5BEqNhjklToFGiSUNgo9v/Z0GKzL5+uiVCSM/Tz5Z/3n5nuf78C8oPjzqinHLwweWUQw4upx12WPnxSSeW26+/oTx2719a4tSSJ8xn/PgyoiVH0jN1aXLUB+mqxKsvc0okEolEYgCRxGiYA2mx5mxUy1BMoDaheoTlaCxFTz1d/v2Xv5Yzjjm2nHj00eWEY48pJx13TPn+iceW048/oZx2wvHllGOPLccdeXQ5rT1e8+Mfl0fuurONP76MHDOmJT0Ty4Rxz1UCFLYhbmSSoUQikUh0KZIYDXMgKuYRjWnJ0ejxE8rIcRNtVFQmPPp4uf6iS8oxRxxZTjnppHLeT35crvvdTeW2++4r9/797+We1t35wAPl1rvuKpdfc1U577zzWtJ0Qjnj5JPLH3/zmzqUNpIVqiVJIya26SJcCNGESdOvGalsm5QWo0QikUh0E5IYDXOwFI1pJpGiESZUt6Toybv+Ui78wRnl7NPPKJdeelm5969/LX/756Pl0WeeLo+3bKa6ceOq+/dzz5V/PvVUue/BB8tNLXG65KKLyzlnn11+e8015anHHy+jRo2qQ2uFFaklYL1DaIlEIpFIdCGSGA1zWDc2SzOijDB0Nn5imfjkM+U3P7+8nP39H5Trf/ur8sC/Hi5PTRxXnmzDPd2G5/7bc3ymdc9WZ5l/Ux57+qly+1/uLT/72c/K+T88p9x16x/bu23aEye26bMcTawNbqIJ3C1G2iipmo8SiUQikegOJDEa7qgWnJadNKPKhGeeLbdde1256soryv0PPlAee+Lx8vSEcS0RaiaRoDbYcy2ZGReu9eMmjBxRJo4eXZ5pydETzzxTHnzwwXLjb35brrviyvLw3feUwmrUtMRr4oRKxJrGdO+mTBzRlAm2w04kEolEokuQxGjYo8dk0xKXZx/9V7n04ovL9Tf8sjz97DPVGoQQcc+1LWXiqJbWzDKiTBg1ukywZH9ES6ba+M+03OapluAIP3HEiPLcc+PKfffdX66/8spy0/XXlzK+JUVt2PrJkdaZ7G2S0cQ2zsT2OqlRIpFIJLoFSYyGPdCSlqQ883R58P77yq1/vrXc988Hy5PjninPtXfGt4TmuZY7TdRSWm7TMqPWtdSm9ZjoOGJk3Rzyvy3BEZ4FyEaR/33qqfLAX+4rd//h1vLMww+3cdp8JsqrdbXVTdoiwF8ikUgkEt2CJEbDHZUXTSjjnnmq3PT7m8rfHnqoJTcTW6IzriVF7W3WIeFGtk2lTgpCcMSZtEmjfbHHtWGea+9PbO9PsFlkS4L8/feJJ8o9t9/RkqM/TpqALWKbV9NMqJs/MlaNsNFRIpFIJBJdgiRGwx6IzsTy7LPPlJtu/G156MEHWrYyomdYbGR5anx7NqptJvWjZ4jRJEz6yOyIMsru1SZTS6Yeej4D0l7856kny5333FXuvv22Uj8f0qbLcmT4bDyChBjFx9QSiUQikegC5Ftp2KOlMYbDWiLz93v/UkbXSdQTytOt/39HtDRnlpFlVEt86v5G48ZPYj8t2Ipmbd2YltyMZkmaNDLW+k+yAJk59Mz4ceVf/3m8PNK6MmZ03RkbjxoxqqVUY2Yt49uwZhxNSjGRSCQSiYFHEqPEJEsOcjNuQl1SP6GlKhMNcc3aNo/236imqV/YH+HjsU3rejYjqivMWmozob3H/DOyTYObRI0mYUIb5znDZqPb9Ee1tKlNd2RLxEaOHN3G7QyZSCQSicTAI4lRog5vIUSjR48pE55+rszSkptZ2pYxYfyEMrElNkFfDH1VUjSqpUMtzzHcZv8i5GjEaEv2R5bxLa0yJ4ljRBK5fn3fyrRZZm09R7QEq5FEGd3e1ACTHiUSiUSiW5DEaNhjUhMYOW58mWuOOcpss89WZhs1SyUvI8ZPIjDQ8plJQX3bY3R73Z4/0/pZxl9aQtTMMqqMnziuPFctTpPIzuhRI8sc0pu1JUS+zN+SKENxI8a3JKw9HdOGMWspiVEikUgkugVJjIY7EB8WojnnLosv/toy15xzlYk+39H6z8K1tKWXuLAWGWKr5p4JZWIbYOKoHtvQxPbYOlOQxrREaZbRIyrJWnChhcqiiy46KS7LUc9E7ToaJ3DPnKVEIpFIJLoBSYwSdSn9rHPPVVZYacXyspfPW56bOL4lRKXMbt5QS1w0kkqOKofxX0twEKT6Zdj2aN5R65CdMW1gVOrZ8U0ZPcvosuhii5Xl3/CGlmHN1oZpb8ay/5pM+595S4lEIpFIdAmSGCVaktKUWcaMKSu88Y1lmeVeV+adbe4ya0tuDHUZ8kKSGIlG4DDcOGSo9aif+Wg9WoIza3sQdmTrP3H8hDJmllnKKxdcuCy34oploSWXMq42qbVZ+o9U1blJk/hRIpFIJBLdgiRGwx1MQaNnKRPHPVMWWG7pssbaa5ell1iqzDpiTPHl/dna24jRaA458nE0ezXWj6S1kVtSNGbCxJYYta4nzGwjRpQF5pmnrLLKKmWNddYtZY7Z27CG3DAnu2WbnN0yKSRpdDbBRCKRSHQP8q003MF407aCEbPOVkbNM3dZ/S3rlLXXXqcstvCry5xlTJl7xKx1gjTSM0fLa+ZsWc2c40eU2VpyNGZC0/qNKPOMGFXGtMQIiZpz5MiywMvmKSu+bvmy7nrrl2VXXLElQC2tmq29O0tLtdq8Jo4eUcaPHlUNT76tlkgkEolEtyCJ0XBHJUYjWmI0SxnZulcsu3TZ4u1blA3X36AsvvAiZWIzvsxRZmkp0shqORrDitS0hGhiS4JaUjRHez57S4ZeOeucZa42zDyzzV6WXWrZ8rbNNyvrbbRRGT333G0ebSZWro0aWb/EP2FEe2y9emxIk5b1JxKJRCLRBUhiNOzRkqKWsNjQ0d5Eo+eeoyz55tXLjh/csWz1ti3LG1+3cplztjnLbKPHtMRoRLUczd7SGW6W1hliGzFxfHs2sSy5yGvKOmusVd733h3KNtu/t7zslQuWMsrcohGVfPnEiK/x96xj63WJRCKRSHQLkhglSv1KfkttnmsmlPGtGz3P3GXBVVYu7xs7tuw4dseyYnu+9LLLlVcv+Ooy/+zzlJePnLPMO2KO8rKRs5X5xsxZlll08bLqiiuVDdZfr3xiz93L2967fZntlfOXpiVFE3wGpGfILCxEAYNoXCKRSCQS3YIkRsMcjVVkdWL0yDJixOgycjQbUFNGzD6mvGy5ZcpG792hfPXow8uue3+ybLzFZmWFFVYoSy25VFlh+eXLm9+8Rtlks03K+z/wvvKJT+5RPrHf58vyq61SZp191tIYOmup0MhZ2/MRzlEgX1Kz2/WIuuu1nMxfSnKUSCQSiW7BiPbF2NmJn25IZsSIEeW6664rY8eOLX/+85/LSHvWJLocTWlszDiyqR91rRs7PtsSpWfGt62jpS1jRpUJE58tT/z3qTLhyafKs08+Wya0923OOLKMKxObcWXOOWcrcy+2aBltgvWE8WXis+PKhDbeiNGzVQvULLPO1kOMJlGgEUxIjlz736SrxGBFyH6oEudHH310ueWWW+oxkUgkOtFJO+iL7bffvrzrXe8q2267ba8+GUgkcxnuaElK/WLZxFKH0mzuOGmnxtF1FVkZ1d6ffUyZfb55ytwLLlAWWmzhsuhrX1MWWWap8qoVX18WWXn5Mu9rFy2jJo5r03iumoBGzj1HG3eWlls9W+cYIUU1lzavUVybFzeydXVvpEQikUgkugRJjIY9WhI0cWL9Kv4sI0aXUXaltrweKTJpevxzZWLrN6L1GzXbbGXEHC3pmXO2UuaYddIeRL6rNmbWSf6G4WYZ04YfWZflzzrbHK2XtWwdFqLoKDgiRY7hl0gkEonEACOJ0XAHk6WVY21TmKWMKmNaclSvbb7YkqMRs9kDe2Sdh/Tcc+PLiNGjyoMPPlB+dO7Z7X1huZYk+eSH44hZWj41uswycraWN41qU/Q3aV5RtY5yWh03KdtJfolEIpFIdAGSGCUqOcJNJvGU9gyDMT9s1IjStOcTnhtXxoycpcw6Zrb6abN7//5gOeyoI8q4cRPqMFkZ2ZIjhIqrqbRUaETQoUm8h6uIiyBHvTcSiUQikRh4JDFKvAhYeibNEYIJEyaUiRMnlv/854kyyvyh3mGwYDyJRCKRSAxeJDFKTBFI0ejRoysheuKJJ8qYMT4tW8p8881XVx3mysNEIpFIDCXkWy0xVUCA5jDBugWSdP/995fx431NNpFIJBKJoYMkRokpwp4SiBAYOhs3bly1IHXuQ5FIJBKJxFBBEqPEFGEojbXIvCJw5LfUUktVgpRIJBKJxFBCEqPEiyLmEiFFs846ax1Cu/vuu3stSYlEIpFIDBUkMUpMNQylAYvRvPPO27MqLYfUEolEIjF0kMQoMdVAiJIIJRKJRGIoI4lRIpFIJBKJRA+SGCUSiUQikUj0IIlRIpFIJBKJRA+SGCUSiUQikUj0IIlRIpFIJBKJRA+SGCUSiUQikUj0IIlR4kVhiX7nx2Jt7Bh7GNn00fXTTz/9vA0f415+Ty2RSCQSgwlJjBJTBIKD8HBPPfVU9fMpkDnnnLPua4QgcbPPPnu9fu655yoZ4sTJz4YkEolEYjAhiVFiikB2WIsckSGEh3VogQUWqKQpXFiO3A8y9Mwzz9SPziYSiUQiMViQxCgxRXSSHphlllnKbLPNVi6//PJ6LyBMfDLkv//9b70nLJdIJBKJxGBBEqPEFMFSxAKE4LAG/fvf/y5zzDFHWWSRReo1sAzxF9aQGie8a9alRCKRSCQGC5IYJV4UrEGsQCxC88wzT/nHP/5RbrnlljJmzJjy6KOP1i/uv/zlL69ECFlClIJQhRUpkUgkEonBgCRGiSkCKbr//vvL7rvvXhZbbLFy2mmnlbnnnrustdZa5e677y577rlnJT8XXXRRtQ4hQ5xz/shTIpFIJBKDBUmMElOEideLLrpo+cAHPlAeeOCB8v73v79sv/325frrry9LLbVUueyyy8rb3va2ss4661TLkVVpiJF5SOYlue52dM6VSiQSiZcSqX+6D0mM+gkIAOsKIARWY7nmNPzB6qL8SNCHP/zhWr8HH3ywkiAwtIYosQ4JZwiNE8+wGotRZ3rd5sA2BH4/18ocv13cTyQGI+ghQ+DQ2d4d3Qu/dC+98/zDPfbYY/V36XxXJAYWSYz6AZ0N3TmSgBx44boOsjAYXSzVn2+++SoxiqGy2PBx+eWXL5tttll52cteVusaE7LFiflFnel1m4O55pqrEjhzp8yPUj8woTy3G0gMRnjJarsWStBLTzzxRPnPf/5T2zdMThbSvXQu9OojjzxSdavfy/sitzjpDiQx6gdo4LESS8OmiJACc3EcNfogToPNEVJ1omDNMdpxxx0r+WFhWWaZZcoWW2xRXvGKV/TWEalAkAZLnZ999tneOtqbyV5Nys8P2cvtBhKDEdFJceToItZdQ9zxcp6cPKSb+c7vYtGK34DupEv50T1+n+h0JgYO+Qv0E0IBIQYa/5NPPlmPCAIBQJAGo1MfpE89FlxwwTrXSA+HhWXppZeuRAm5UFfDazHZWjzXk0uzm5zyIj/xW+lVU1LKHr9pIjHYoG2zhGq/2rXFENEJCMLUVxbSvTSObkSI/A6u6SDHIKzuJwYWSYz6CUzVyBC270UbzJ8lggB48Q5GR4ESVkqV8CJDW2+9de19brrppr3kRxhhhYs5O8Bvcul2iwtSp7dGIbES+d34KXsiMRih7YYllD7y8nXtnLxCpxyke2ldkFW/k3N6KK69LxIDixHtD9Ev2l8yXo7XXXddGTt2bPnzn/88bEyCwfzVnyLS0FlZrOLysh3MPQC/ayjUENi77rqr/PjHPy777LNPJUBhJQqBj16P8OKL2+1QdoQO0WMZU+cgfYkpI2Q/VInzo48+uu515Zh46aH9mjPnhasdh4zy19Y7CVLipQU5QYJY9Ogc7woI3WlPuMGgM2cEoStAnS3gede73lW23XbbXn0ykEhi1A+IR6j+FE+QJCu57rnnnnpvqGLxxRfvtQ6Bev/tb3/ruSrlVa96VV3FNphw7rnnlq222qqea8MDLaTdjpD9TjlIYjSw+M1vflNWX331Oi/QPmSJ7kboySWWWKLuDzfU0Uk76ItuI0Y5lNYP8COyjmD8mD6iwI/V5Le//W31H8xODxPhs0rLtbpyej333ntvJULhWMmEEV4Yfp1pdZuLHrQjgdx4441rDxshCoKbSAw2aL9vetObqnxG+3YMizbZ7SsLfR15GGj3QuUY6PJ15j+5c8cpOWFY85w70pN+Kx1pejMxsEhi1A/QyJEgyojy8WIF5+55uQ5mp17qZ/6Na4SBM49qchBG+DDVd6bVbS5+N8dQaFFm14nEYIR2HJZa7Ttc6KbO1Wkv5KRBh+noxdYjrr24nSNZ8cHo6Cw558SJeTPCBBkQJvSi+NEhCRd+wnDK4Zq/a2lJg3/kwV8+seBFWYWJIyd/4aMcjlE/aUeYuBdpOcqfn/QiDfm7b26pc/Hcj3PHKTlhdKKd+12AH4sRXZQYWCQxSiQSicTz4OUfzgvbHKUgR9HhQbJs44FUICaIAjh62TuKbw6Nc2HEdw/BkI5z/tJAEuQTxEAYpMS1e8LEohbpRFrIizDuyS+s9q7FF8ZRfo7qgWAhNRDzeeQRxMdiDITJUXxx1DXKJgx/2yA4l66w6omsJQY3khglEolE4nlAEuIljwwgD7Fykz9i4V4QpdgkNQhDuJj03UlcEI5IUxh5gbQQEESJXxAbZEU6/MQPKw7ErtHuBVmSNjImrSA64iNCyipddRFGPH7SUS9lEh8Ji7KD8GA7D+mYVqCc4FmIA/Yn6oyXGJxIYpRIJBKJ/4GXvZd8WIOQhbDssJ6wGAUh4Y+sIEsRBuFwD1zHkJV4/KWJuMiHk497XISVT1hkkBbx+Enbtf2ADPEjQdJzP8gXMsMZUkRenP/rX/+q9+04Lf0oh3ScIz2upQ/Kh7wFQZOXrUrmnXfeXgLEP4berGiVV2JwI4lRIpFIJJ4HBAdJCItOEA7+SAMSgCzwFwaxQVRYY+K+eI5BrFhopIE4iCOuOPyQFHFdu+c8rDDiCYuASNsxyFecIyxhiQoS5f5f/vKXsuaaa1Yi9Ic//KF86EMfKrfffnv9vNGVV15Zw7ICOSqHdKQX9UTSXEvPubooi/D//Oc/a70sr5cXKxI4TwxuJDFKJBKJxPOAmMRiC4TAS5+1hWUEwXjooYcqEWGNufPOOytJQCwQFef33XdfJSDiITosOsgJwsHvjjvuqGkgJUGk+N16663ltttuq3swISHSEu/hhx+uJMeqV/k6WtYeZEnZkBdpWt0l3ccff7xuV2DrGBYhdUFyXv3qV9dreYpvnpC8EUHX4qmXev7973+v5Zeec/eEVWdfAEDyxDGU6HkhTTHslhi8SGKUSCQSiefBC77TcoIkfPSjHy0HHnhgecMb3lB3vbdH1Wc/+9my7LLLluOPP77O02FJufrqq6tlZoUVViif+cxnKomR3le/+tWy3Xbb1X3uXve615VDDz20khy4/vrrq7+0fZj67LPPrnkfeeSR5ctf/nLZc889y3LLLVf222+/ctJJJ5U3v/nNdRf+n//855W0KNcBBxxQLUHiS1t8eduCAzlaaKGF6jAYwmX/NWTKcNhVV11Vy2rJPGL1iU98ou5Bt/LKK5dPfepTldQhelH/t7zlLTX8BRdc0Dux3LNirXJMDH4kMeoi6HFRIAFKJuBeJyJcZ5wI4zr8HDv9A51hOtHXP9Lvmz9EuIjzQmH6phHxYEpxOxHhwk0Jkd6LhUskEpMH6woLjBc/PeSFz1q09tprV8uKj0d/7nOfq8TnF7/4Rbnxxhsrsfj1r39dvve975VvfetblSjNP//85Qtf+EKNz6Ky8MILlxNPPLFuQGkD0GuvvbbGO+200yrpILOXXnpp+dWvflVJDQLz+9//vnzta1+r16ecckq1HP3pT38qxx57bI1P1hdZZJFy6qmnliOOOKLeVwZ5sN4gdo7imxzNusMyxXIkn0MOOaT6r7jiiuWMM86oGw2qM6vV5ZdfXi1fyn7xxReX9ddfv1qTDj744HLmmWdWwhTkSNmRoxfTZYnuRxKjLgGh0ntyjF4Hs20InN4POCd44a/3Q4j5xfh39GCcM/NywC/ixrkwEcdRPsrhnnhxHmmDY9yPc05cx8ibk26UQRru84s4EV7cvv7hIg/HSMt1hO8sAxfpRTkSicS0g3yRI1YVRGnRRRctb3zjGythWmmllcp3v/vdasUx1MZq5Ih8sLbQXYaexOFC/ldZZZVKjrj11luvDtm5j5y85jWvKX/84x/rsNkrX/nKat1h1dlggw3qPB7kZvfdd6+70hsKUw5DZSA/RA3pkc43v/nNctlll1Uyt8ACC1Q9ILz76iQMy9bHPvaxmre0DZmxFimj4TxWMlYj9Rd3tdVWq5Yiaa2zzjo1vLQBIYqhusTgRxKjLkC82PU8YjzedYyDEzj+zpEggs3PNYEmlOI4p4D0kIQHyoryAXFAGIIujHOQFggf/nqGMfHRUb6dREM+UTaQDyKlLJGXe8KJ5758grzEufLLV92idyqduO8ovqNyCx/3A+6HA+Eij0QiMW0gd2Q4VqW5ZpVxTTeYW0POyRm9Y94Q/UDGzz///LLJJpuU17/+9WXvvfeuMuizJIgOR8Yh5FlarD2G5xCPD37wg9WCY4iMnCNa5gGFrhIfERJXeVimhENSXNMBCBWypg4sPPQXMhY6xg7TiNv73//+ajXipzy+AWmYz5DehhtuWK1P9JeyWA0X+lZY6UKQIfkKmxj8SGLUBSBQCATl45zyCEJACCMMBUXwKARHwiwcwaQ0HKUjLP+IJx1Hwu08yE6k/9e//rXGp9woMGlTetLT42IuDrIGjp3nwiFRenrSifIrnzIHOXItP+fudxI88Th140dZSs9ReIqPshMHKMCIC/yVgflbHGWKvBKJxLSBbHH0RFzTH8APAaJHyBl/coY00B+G10IGkQ8WGfN+hBHHkayTVzrn5ptvrtYbw1/SNm/IEBorkXBkn76Qp/DSsFxeZ8rkbENidI68hQ+dJR/6xCRpw3WsWcIBS9NHPvKRaiEyj8g98RAlw2fKYQgNuaK/WJoM6YXFKSxTsXWAMHSRe/RcYnAjiVEXgNIJIhEvekcKIe6FcCIolA4EaSKYhN89fkF6Iq7wrika10BpyY9y+vznP987bk8h8TMZkkKjHIyrm7wYe4pw8qBI4lyvbf/9968KTl4UFH9xlF25KCl5BmlxD0KBxSoYaf7sZz+rkyn1HKVHKbKgUYahLINwuU9ZUtC++G+OAn9pKUMikZh2kCuySvbIHbLBj+ySfZ0ecG2FmHssRT/60Y/qZGwfFDf0tddee1UCw9EtIZfkmEwbSgvicdNNN1WrDT2iIyQPsu0oH3pOPnREkCD6zdCb+UX0lrjnnXdeWWaZZWoYug0RklfMF0KEzEFSt6OOOqocd9xxNa23vvWtdcWZuVI//elPy09+8pOqV3XEOKCrhI1NITmgj6QX4RKDF0mMugCUhBc95eOFThkRaCsk9HQI+g033FB7S5STcXhKQzxKBnn45S9/WcmLSYV6LdKxbDWWziIa4lMITMfuhbAbj/eNHkTl3e9+d1VAxtARHb0xvSY9LYrkd7/7XVVElADztrJSDGGuVi4OLLNVdvH0HNVJGdRL784Hdu+6664aV51M4GS9UnaKbskll6yKlLKk0CjHsBhJR7qUKbM6f+WwwRoCGMSISyQS04YgLvSSzgxZf8973lNJATkknzpR9AfC8d73vrfKqrlH//d//1f1lTlEZJgFSXxzd3xFHui6ddddt5fsbLTRRuXcc8+tK9DMY5IePUMP0SvKQMYNq9E9ymZit3k/CIr5QFbImRT99re/vU7+lr/y7bzzzr16iYWIJXqzzTar+ch/8803r9YuZMckbyvh1lhjjTo0RzciYer2vve9r+pIeobFyvwqz0c5Qw86colBjlYA+gVt46nHa6+9tll66aWbtpHU6+EAdY/6t0LRe94qhaZ9edfzKSGelXjO//Of/zS/+MUvmpVXXrlplQyTR7P66qs355xzTtMqgnrdCn6N05KCplUo1W+hhRZqtttuu6YlGk0r5M2b3/zmphX0phX8er8V8mafffap5/xawtS0JKVplV1zxx13NC1halrFU/P/4Q9/2CyyyCJNS6ya3XbbrWlJUtOSpBq3VRxNqyh6yysN991be+21m5aENW0Pstlll12qn/ZwyCGH1DjXXHNNs+mmmzatsqr3WkXZtMqw2X777ev15z73uaYlgzX/trfZjB07tvq3SrS58sor6/NtSV2z5557Vn/uO9/5Ti1nS7aaVgk3F1xwQX0urQKfpnaoPhtuuGFz4YUX9l4nXhzxnBzjvO2F1984MTD49a9/XWUr2n+nHExNuxZGnDi2L/+qU+JeS0yalqhUf3ItDBf6z5GDznQcxeGcg7Q4CD9xO9OMcw4ij7g+4ogjqs6gB8JPuSJMhIc4j3uO8o9raIlYPUKUrSVBzwtDT0nLdTjX3IuhM1zkdc899zRtB7WeD3VE/eMZeG+dddZZ9Tz8BhJpMeoC6A21v0U9gl4Jc6+xdz0XPTS9Gj02pl1DXszTeiusQdtss031Y5UxedFKCz0gPR7WGMtMjdt/+tOfrj0zvR+9J+nrUZlsqNcDb3rTm6o5GOTJGsOaIw6TdKt8yhe/+MXqD20jrj23HXbYofa27B9iFclFF11UrTwsXkzrltmefvrptbfHimV4Tk9PL4wJXFz7iaiDITFWH1autdZaq/bw1NGSXhYl4fUeWb9YygydyU/vL6xEYdKeHouR3yKRGM4gAy0J6LWCsMCGtYTMk2OOzPEXPu45hhw6p9ekEWAtYnniJzwI6zzCyi/u0U0tOamOX6d8Rn6G4ug8Mu++sK6VUXr8pB26Vn7ycM5S5FpYeUmPfpGG+3SffCJt4VzHijThw/EPPZ4YvEhi1AWgKAgcQSXEhNOL3SZmiI5zisT+H4aKwH4iCARCZMMxRAWxYLI2tEY4Ha30cC6eiYWIBgFHehAOCsXqEYqBydreIgRcGEIub8NoiA8Yq7dhWl+lBspCoVAk6hTLaq1msZcJcqYeq666ak2H4kLKzHF67WtfW+/JS97K8I53vKOsvvrq1WzPZK6siJOwnouwsSGcYTsEElH0DKSlLNKZEjx39XCMeoTiS0wd4hnGOcSzTMxceN7xzONcm5/R508G6CNpkSUySebpEvfkIw+OnLnmHy7K5D7yJC3n2knIpHPkQ/i4F2EjPpB7+iQ6bBE/iIv4NpSkl5C0SAeEjbSkwd/90A3O6Qth1I0OdE436XjKQydN+dS/M93QU/w8I07ZlScxuJG/YBeAcBFKAkmwCHAIZJwTPoIaYVhxWJXAPJ6ddtqpfOADHyif/OQn60ZlyJW4xu+Fl4a5OqEo3KcEKAbzdaSv52TCosmGwlBEykUhUDihHMR17V4oMecUTMwHQFCk3akkg9RRIOYuRZ3BOShnlF0eyiAM0hNlN58AKCb5W4YrH2nIQ5hQju5PCcJKV70in0hLGokXRjznaL8Q555nYubCs47nH+3YtZc+WZ0RSI8ckNWQA7JEptyTvvv8IkzEceS0AW0hriHSch1pdbYdcaI+UYeoV5xHenSEMM7DvzNcpKt8ygXSV2Z6RRj3hItyx33nCBld5Fw+/N13LR6oQ99nzS8xuJHEqAtAkcVLPoSZoIblJ3prjkAoWYhCEdgrxAoQE5oNNSFHSJPwiIq0CCsCFApAngTfERlxNKHQcncKR76sMKF8KAhgpVGuUL7SAuGEQaoQOhMTTfBWbv42TFOGIF2UknvqEsqGshKGY3Wy0iVWfiBtLGTqY6I4ksgZqrvmmmtq2ZFA4fmD59lXaU0O8lMfZVA+zzSeU7oXdp6T3y7al9/J89Z2PE/Xk4uXrn+c56uNe/4B/joUZHpq2v4LoTOuNIGfvHQe6BnW2yAifn/3lSnahaO24MgJbxg90hYWpCk8f+k45yDyBn70RWf9IcJIx/MI3eAZRHmjXMojvLQMxetU0k0WctA5/C0Iifj0nfDiSUu7lk5iaCOJURcgrCIEkeAjNMhEKCL3KAzm3XjpAAG1suMb3/hG/W6POTlbb7113Q+EkCNKCIVwBB5xcORA2oiA+UbyoAwoliBpUQZK0FEYeQunPMoqbU5aSAurlDwpFKvffNforLPOqp8NsNW+oTUfYRRGGtKLMXxl6bQ0UVCG9i655JJaJ5YwQ3CIkU3kzLeytBcpYunybILIcZShMk8JoTCDQIovjrrFvcQLwzPjtKl4EXkx+/2dJ2YOtHVD4Z47edROtVftPkip8+lFyE3IUifIqXmDZC+gPCAs3QF+/5jno1NDF5x99tk1frQN8kbWQFz1CJIlTfVTFmlqX+rFhZ/wwvKLNihP1utOK7dw4oR8y9/cSyvXvv3tb9cl+5bp0znmP9KJyhHpS1d56OqoX2LoIjVXFyCUWig016wuJlsTSmCBQWwIq0l/9uthHbEHiB4PRWV5vS3sTWSmbAytuU8RcD7gGIJt7o48hDNZmyIh/PJ0NK/HHCFKd7fddqt5UybCGc8PpcVPeiZgy1vPy4Rv4/177LFH/dCkZfmW7CJx6ihdH3SUhnxM+KawKLTtt9++WrLU0QZsrFPf+c53anl9xNEL1460H//4x+tuuVdccUWNYz6WOlJqyuoZhpsSggCBsMoUdQuC6DdI97/Ob+/ouXlOXkTgeXqGfcOn6z/HYuwTGDoctr/QXrVlMqBDEwRgRiC+vPzOnbLktyWr7uv82BCR5Va+dAdLDCuufYDcR4ToHfHIL2s267VOlIUTF154Ye3EAYu1c9twXHnllbWjxDm3VYgOVXQk7V5tXqWOk/mNngHrUHyl3ydB6EX5q4fygfYpjPS+8pWv1D2M7Jlm+T7dIQ9h1dfRM2ZZ0klzHfoiMYTRNrB+QduI6jGX60/fcv2IxzmHVnnU65ZM1GvHeK6tgPYumX3iiSeqn3stkXleeGnw5yJOpB95OYrnCM4DkZ94EbdVPjWse3HdKp/eJfz8ogzCRLqtYqxpc8K4hjgXTlpRH/4RX/qRb2dcR9fSFEZ4TlkdpwbiRXnf+ta3Nq1C731W8ks3eQeesWflN3PuN/JbtIS4aYntZOOlm3Fna4qWuDct0Wg++clP1i0qbJERstW+yOt2GyEDnbIg/otBmM445Cxk5O9//3vz9a9/vW674Tf2Gtlrr73q8vW//vWvzaGHHlq3F+H/ute9rjn//PObRx55pG4dcvbZZ9e2ory24LA8Xbj99tuvxrX1xqc+9ane7Tve+c53Nvvuu2+zyiqr1GvxW1LYtCSl+cQnPlHT57/mmmvWLQrk8+53v7su/95ggw3qPVuetISrll+dyLvtJNzjWmLVtB205qKLLqpL5jfaaKNal5Yg1fwiXNtpbFrCVtv4jCJ+Rwhdlsv1c7l+ogNtQ6i9Ha79TWrPqhXg2rNyrccG/EC4GG5zdJ+f+65bxVPDgTT0ltqXfO1p6VW6jnycc+K1iqP6c9JyVDZH8cK0LKy4UV7WAj1U163SqemBMK0SqXlLT1xpcK0Cr/kJIw0QTjosD8JLRxyOv3ziGTiKKy3xhDEc5sgfohxTgrCeC0gztiHwTKNc8YzSPd95Pp6TtsF59o5hrXBvcvHSzbhjobVtBcuLYSBW2K9+9at1x2dWl7DozCg60+iUB1Ycw002c7TbNOsNq41FIXSAYTbhd91112pRCjknXyzdhq1Yts0jZPVRD9Zh1mLpsYjzMy+JP4uNekpXvvKxlQkLNbm1kSTLGWsPaxDrNYuVoTsWKeVVbmUg7zvuuGP50pe+VMOwMtvYVtsF1iawyGPbbbftnc9pNSwrdeiXxNDFiPYHn3HpaSEZDc8k4LFjx9ZdmOOFPtQRj1D9CWm8EOzSeuaZZ9ahoikBoRDe0YseASB8BFXa0vTSCUKCCCAP/NyXH5LhvnSQESTBuH6sXBNW2sJH2oCgCMtfGPE5kG+Qkfgt5S1uhJGXclPEwkoDpBdlA2nIP9LinEvPubKL6zzSlq6y8ou40hRW3eQnX3UAYUB89yL/SG9yUH71iXLZaddeT4buxE+8MOL5eG7Oo4353ewrZUjFTsPRJhL9B88cEdhzzz1r+w8iRDYModtl2jCROTPChmyBcFOSiUD8puKRD+fSly+C4NwnP+xXZs6frTNsAxJzA7UFQ2rKhuiYC2l+oPIhO8iNeVLeFciHnavPOeecSoi0GzJ+2GGHlS222KLOBTKP0uRt8yitPrWHGRJI9yFN8iC3hvo9F0P38lBW175tBuqhPvZjk+7b3va2mp+90uhqhAuZQ4zMP/JRW0OAyooI+lyIof6peYYvhJAdaYTet1iF7kEWhzqi/uAZmA5hDioiOrXtc2YiiVE/IB6h+scL1vnUEiOKTS8bQkhAGqGYKAnze4CfFz+I68UeBEZZxHcOcd1ZRvHjnFLRgwo/RCRIStwTTrmUgwsyE+WUF7+IF+HAMQiOcjoPUhZlg84yBeK8s16O0nBPnePcPWWIOJ3HeFZTQuRPUZr74CgvpDHSSjwfnovfl4XAyy+shZ63lyMLAmWX6H+wpHjmiAc5DfmHNddcs36aw9yY0MMhl6BdT02bFifixTkZlzcCo9OFhJjj6DMa9jqzEAJBMbHZ/mjagE1ffeLDZzrsOYaI/OAHP6ikw2IKYeITREGSWHB0/lh1kC37sdkglmXK1iTXXntt/XyITWfNlaSnWKCkYz6jOYj2bBPey5blCCnzrELXmqMlvE+ImM/ovWUbEcSNZcpnTeylZg+1WPDx4Q9/uOabxGjGEPUHz6DbiJFC9AtaoanHnGM07XOMBhpRZkeuJTF1roLfsFUk9Zoz5h7hXMcxzoUVhxOfv/CunTu25OV58boJyuqTIOYaxHXixRHPqfN5mWOUnwSZeSBrl112WdN2lpqWuHjL1Hk97cu9aV/qTUvuZ2iOUSeEJ7fydP7AAw80hx12WHPSSSdVGW6JUf18j08B+d3N/XnsscdqWHOGvvjFL9Y5PgcccEBzxhlnNDfeeGPTEo762SO49NJLm5YANS2ZrvEPP/zw5uGHH67zIz/96U/X+sinJWM1LXORWtLTfP/73695mLO044471rmB4rUv2PoeUufbb7+9aTum9ZNHUX6gy3zGSJotEatl9skhnxtqyVs9SqMlYfUTS2AO0C9/+cs6p25GoRxRltCDOcco5xglugSt8qjmaOPqrYDW3iHnHPRknLdtpdfy0zbceu3IAYYvrDDSdO1ohYleIH9x+DtCWIC6Dd1YpsGCeHb5DGcuzLPxwVTzCW1jwdphaMgq0C233LJXZvsDZJZFKixHrllnw0LLAsxqYzUqi4v9z3wCiLNEn+wLx6JIH7B0WS1rexGrxszzsSu+utBF5k4qO9eSmZq3fMVnNXfts0NWqp1wwgl1DtHJJ59ch7rEZXEJXeQ6Plwb6fAH1nblci1vw3Shu5SRxV9ahvNaQlefr6P7iaGNJEbDHJSPMX1LXikh1wTfJEhHypDp2ZFSCoJDGVIyju7xo1SC7PA3f8dESp8yEY+yjjBh+hc2kUhMG8iToTKTiA888MBKQAwJkTtkwP3+eIGTTy7SIvOGuAwvGSpzTf59osi8JvOMLHs3x8xw6n777VfnCCEhPl1kWgHyxM8wl8nib33rW+vwF31g+Et8Q3bq4Tq+4u8ofee+sWgoz7cbERo6xjAdHWU+EaKGuLk2J8lQm2ciD/6ek/CG8ug6233YQsT2IeYUgfTtn4boIWDmGZngTn8lhjZyjlE/IB6h+hM89XY+tXOMBhIUm1UiPihLcel1WdWhDuYSGEs3Z4FS8ZvqSRnXV2eTFN03GVNvkaKkcJwjRRQOhSJt4/8mPyJZQZ44+XRLO1Ee+y/5QC/F7bo/Xi5DHfGcHME5y4UJuI6J/gfSYA6MuXDkiRyTOQRAp8PEZPN0WGjIVxAYmJZ2LR4XHZmAc7LunvSkzU84jl8QETKPGAkTcZRZR0nYOIJyRXxwFF6nTd0iH/6RluvQKREuyiI9c5boLXGFiTzEBf7IEsKlnMJEGeThfoTlx80oOZIGKIvnJL2cY9Q9c4zSYjTMQYFYVWJCI8sREmMDxXPPPbeajjfZZJNKlJjufWrEyhIvO8uDTUakjClofoSbSZr1yYRLO2Zb3cHkbbIkpRUKEZxTOolEYtrAamM4yQvcS93LhCx5yXJe5DPycpFeEBCQVqQnT4QB5Bn3gkyQb3qBX8i78Jxz6QZxiXJy6hFEx1FajsIhO67VLcILF2WIsBB5RNlZeoJEBVmLuCBclEU4RA5JEhaQJVAn8dQpMbSRb6VhDkqBImGmZnbWEwWmbUtdmaWN/wvH4sMMbkXJjTfeWFeVMIdbucV0TWlQUpTK0ksvXZfOWoLry/p6A/ZeCcUWSiqUWSKRmHqQR/KGTMRL3gvdC9618xmRLXG5ICEB+fKPPKNj41o411yQhwhP1pXVvSBQ/B3B/bAmB6RHN7knjiM4F859+UY60pYGIDjuR/oQpKezbHHfUTpxLl16TZ7KwI/VqW+aiaGJJEbDHASdwIcCQmosV11kkUVqD8nGaZSEMBSbZbN6YL55xvyJIBmLD2UZijEUCKJlqwFx5AGTU0yJRGLqQb64TpkL4oEA8Hd/ehHpRxrktPO6U8YdXTunBzqJSsh8ELYIAxGOPhAWXEcYx04SJYw04h7wC5IU4Tqvwy+OUdZw0ufn2HnfubLLz5QA92MiOL/E0EYSo0RVGpQqIoTAcHaQpWApAsSGsqA0YpzfvCRzi+zvwZ+yEB65olTEC8WilyYMUFqhsCL9RCIxbSA/ZMqQGvlyDWQTQt6mF0EaQFqRH79wIcdxHSDjrsk+fcGBTldnuTrjCcvJt5PYdOoL5+7TL8Lyc+4I7nWmT6e5x4+LPAJBfiJ9uks4fpGXskea/DvTTwxdJDFKVIXAbExxmaiIsOglURzuGSaL3pLN3CgHJMoyWxu6mX9knhLlYo6Rj8ZSKpQQxUKhcOJLE5yHQkskEtMGMhikAuIlHucwo/IlD056XFwHwj+gPEFqHF3TH0E4As6jbM7pBMdIK0gPxD3QQbMbtSX9/IV3FLbzyAUJci6+c8fQRRD+EYfeC39wHedAJ7pWt8TQRhKjRFUKlA5ixBn+CsWk10V5UBK28bf8/rvf/W7dN8SQmyWu5ia5Zy6RHW+tbEOkgmwhUFbJUJAgbWm6lncikRhaCMLRSVY6rx2DmNADyAZH33R2ooQJwmJZvl21rd5yX1j3gyBFvCBYrGnSlxcXeTjnLy4yKTw/ccOfSwxfJDEa5qAUfHdot912qwpqmWWWqfuKUDqUiP1KLNenKHxE0d4frEasSLvsskuda7TqqqvWbfJtwAb8LeWnqMxVsoLN0FtnT40SoowSicTQQ5APcu6befYbOvzww+sKVdZmizZYf1ib6RnXFnsgP7Z58HFYW50cd9xx9ZMhdAf9ZN8hOosT3iaSPjVi5SxyRAf5KK2NIzkdNtMCLr300pr/WWedVfOH2L/Npo1Wz8ZSffmkbhreSGI0zEFxWZHG+qP3ZO8lH1PUSzPh2t5GvidkTyNfxHZuaT4iZJUZiGeJPyVm2T9ixUnDhmyf//zn6/eR9OAglE72zBKJoQl6hbOnme+q+VbZT37yk7pbty1BkA+rWhEa1mpkJr6Ub1PFQw45pJIoYayC1bFCoBAnQ1r2VLOpJcIV5MieTYjQpz/96frtNkP6wvru2THHHFN+9atfVT2nPKzithOhl6RhM0qdQbopLE6J4YtsAcMc0UMKC47eFMVAQTnXC6MwWIZYgliK+AFF5Z7wJoCGKVtc50iPo/DuyyfJUCIx9EGXkPvf/e53dedo+5ohPzYwvOyyy2oHzAdZfakewaEfNttss9oZo3foGV+yNzTPgiQdMDRviN4WIiw8hvQRqL/97W/1g7ry1CHbY489yle+8pVKgJCmT33qU5Vg+QwJqxGCRX/BvvvuWz8ia9GJ+KmfEkmMElUZhNnbkaM0HAGhscO15fmsS+C+eI5x3jlU5josQ5EO8HPtfvbMEomhiegUmQ+EsNgBH1FhrTHcxZJkiN5WH751ZnWrz3HAfPPNV9Zff/16j77xuRHDcfSG754hO7YJEQYJEs734WJnfvFZp5WBBQmBQrAQLYTKEBx/JMs0APFBeRG0RCLfTMMclAdlEMSG6TmIC+WCLPFDjsI/yA24D0hOJ5midISVPn9xKDHhOgmRMIlEYmiB3APZZwFChHzqYqWVViorr7xy775mdIKNYOkL1mf6I3SEc/ODxDdsj+DEwhD3DK/RH3SQfKQnvLRjmF/67hsqM3SmDDvvvHMlT+KbA8kCJVzooih7YvgiiVGiKgKKgcJxTkk5D1BSemLCUEChOCicCCdMpMHFtfDOOxGKLBVQIjE0gWSQfws7WJq/853v1LlAu+++e/2mopWsPiXEEvS6172uDnEZDqNnzGfkDyZnmyuE9LAoIUk6cj5Yi2zRIbYYET++1WiYTP7Ik06d9Pfee+86N9KcJbvyW00beg7hoqOiMxedu8TwRRKjRFUKFEzsgxLkqC+hCfAPYtMZxjXFJG5cu983vGOch8UpkUgMLZDtFVdcsZIZy+x33XXX8vGPf7xOvja8ZoK0771Z7LHooovWVWRIkfmMVpFZ4HHAAQf0fnHfHmk+YM1q5OO5FoOYHyRd85isoKVXpBH5L7zwwnXI7dhjj61DeSZfSxt5QrZiqC06dJx40kkMXyQxSiQSiUS/IjpEJlm/5z3vqVYa1iDbgrzzne+sG8Oy4iBO/K12RWyQHlYeZMbRqtatt966fppIx22//farliNDcr7j6Jz1x/whliEdMyvafNMxOl8sVuYSIVbmKwnLksVZMasspgqwFgUhQpASwxcj2gbQLy1AMhrVddddV8aOHVsnwmmUwwHxCNU/xsidUwr24njTm95U7ye6G37HjTfeuOy1115liy226G3TiSkjnlOnHBi2sJrIMfHSw9J3BMS8GvrISz/08UvVruUjX5YZFmPOxq/yZlXmD1EW9w2P7b///nXvs0022aT6Rdm5WAXLSR+hMbTGKuXafCE6WByQtrAIlzmTzpUhLOLSQ6aURZwo58xGp6yogzxNVLdqzzyooY6oP3gGyKsPjW+77bb1XrSJgUJajBKJRCLRr/By45AUL33nQYTiXrz8EBThbLiI2BjushotwjjG4o+Aa4h0I58gRZEH55r1KfLjB0gRv/jcEYLlGKQqMXyRxCiRSCQS/YogIYgGsmIeDzLDP6w9ju47BlhyLONfbrnl6nWQFg6RcQyLTlh7EBnDbO6Bo3zinnNHBIplaXLzJ10L00m+EsMXSYwSiUQi0e9ANBAgxAQZQVjiOixArhEWxIS1CPgFueEfYYP49IV8QFhxxEee4hqB4geuw8LkviMC1QlhEsMbSYwSiT4IJZpIDGbEKtOBQJAVJAMp6nRIC5KDmDh2npsHFENvCEuEl45rYYLUxNAXQhX+wkV6rE3CxHNwHmHdD8uTa/lFGZIYJXLydT8h6h+P0/myyy5bV11YkZHoflCsPl1w0UUXlU033bS231SSL47Jtf2cfD2wMPnaxolWfiEAQRKABSZIwcyCoTOWmU75QTqAH+KkHMiOduOcvHHkECHir5ydYfmzAEkbQkaF4SdMEKmYswTSDILUGVc5+UcbFndmPxuQl3IggjaaNAfqoYceqt+JiyHCoYzQFeBZdNvk6yRG/YAQag09hJ9weSnYXyMENdF98HvZ04SC4nzQ0jec7H+iTXuZDJd2PL0I2Q9V4jyJ0cDCS9Y3yAaz3ok2FfrVNQJk7yIvUHsbRZsbTFAP9Qmy5xMpQQTpIJtgvhTkbCDR+bt5HkmMhiDCtBuTAz0HjZ4Qa/Ah1InuQrTZUEyUlJ61342/341f/nZTRjzHUCXOkxgNPOJ3GYwgg+QvOpvqEp3ODTfcsJIH2xEMVoSsOHLxjjA53HEgh0FfCkT9QX1zuf4QBIGNbeU5144ad7xoQwDSdY8Dvw2rEEHk53dzRIg6wyUSgxHRhgebI4dkM4bkQAcGyKrO6OTiDRYHOtLqpz460urnnaHuiYFF/gL9BI1ZAyfMscQ0ejtxL133Or+V38559NacJxKDFZ3te7C56EzqtBhWokdZdcN/sOtUiDpB1DF0UGJgkcSoH8D8qWFHTyCEVq8mJtFFTyFddzm/kyOlBHEdw6LZe0sMVnS288HmgiDQqzot5NE5efQJkcFePy7I0JNPPlnfFUgg/yRGA4/U+v0AjVtjZg51DDJEiFmPNPZEd4LC9fvEbxbwm4YCSyQSLz2QI6BHOfrV0JPPnAx20CvqA6F7YmgNYUoMLJIY9QM07Bg+I8Ax/q2Bc8hSuu50oXT9fn43cB2/pTCJxGBE37Y+mFzIHvIQshgdmFjB1TfOYHPqgPzZUiD81C8IYWLgkMSon0B4+5Igfhq684FE50TFmMgIrqPXMlwR5uxwoZAducQLgwLXnkLBRzt3PdBtPjG4of3QTdGu4pqMdn73bLCCblGXqIejd0UsBEkMLFLz9wM05FiWD/Fy7RYoixdYLAVlsjWu7QWmrI7D3VFKoahcxzHdC7to54i3c20sVtm4jmHKdOmm1WlD5NFCCO0IQbLHj7Zmr7GhADLCxbk6QxwTA4fcx2iIw++CBIVSid+EcjnyyCPLH/7whyG/Z0Zi5kAPPohQ7DDsBcbddtttdR8jX0pPJKYV9NZ///vf2q4efvjheoxhtDPPPLNcdtllZeONN+4JnRhs6KQd9Edu8Jh4yeHlBQiQlxbceeed9QvWxx9/fP2d+qkZJIYJyHq0pWg/jl5ceviXXHJJueuuu+pGfBEukZgWaGPIEEukNsSCZC7g/PPPX97ylreUBRdcsCdkYrCh832TxCgxIPDbUC6UjF4Y65GX1jLLLFPv9VMTSAxzxFw2euC4446r1sijjjqq524iMfVgjdSOzAGku7QtpNsRYj5nYnCi853jd8ydrxMvOWIITa8LOYIgraGA0qWbVgdBrLUtL6toZxBzttKlm1anHWlX5kU6akt0FX/3+SUSMwtJjIYBKBOOGVqvSw+Mg1QwiemFFxQSFOTaUbvSxuJFlkhMD7QfLixD9FS0pyBHicTMQhKjYYJQLuZ/UDYx4Zry4Z8u3bS6AHIULyrtiYUSQZpcnHTppsZpU450FWhfCHecJzFKzEwkMRpGQIYolLAgLb744r29r3TpptUBIuSF5VpbiuG0OO8bJ126qXWhm8JyFG2LXyIxM5HEaBggFAkFk0ol0Z/QnqJNdR65mGuUSEwrOttVJxmKYyIxM5HEKJFIJBKJRKIHSYwSiUQikUgkepDEKJFIJBKJRKIHSYwSiUQikUgkepDEKJFIJBKJRKIHSYwSiUQikUgkepDEKJFIJBKJRKIHSYwSiUQikUgkepDEKJFIJBKJRKIHSYwSiUQikUgkepDEKJFIJBKJRKIHSYwSiUQikUgkepDEKJFIJBKJRKIHSYwSiUQikUgkepDEKJFIJBKJRKIHSYwSiUQikUgkepDEKJFIJBKJRKIHSYwSiUQikUgkepDEKJFIJBKJRKIHSYwSiUQikUgkepDEKJFIJBKJRKIHSYwSiUQikUgkepDEKFExfvz48uyzz9bziRMn9rqnn366+kHTNM+7x/FLJBKJRGKoIIlRomLUqFFlxIgR5bnnnivjxo0rI0eOrG622WbrCfH/EWRI+EQikUgkhhKSGA1j/OUvf6kkh1UIyRk9enSZZZZZypgxY6oF6bHHHqtWob5IQpRIJBKJoYokRsMYiy++eCU5s846a/nvf/9brUWuORakOeecsx6h00oULpFIJBKJoYYkRoleIEgI0IQJE3rJ0VNPPTVZq1EikUgkEkMRSYwSFeYSIUNhGfrPf/5T5xgFWUqLUSKRSCSGA5IYJSoBQnRMukaInnzyyXLxxReXv//973XeUScxSiQSiURiKCOJ0TBGTL5GiABBmnfeecvf/va3ssMOO5SNNtqoHHbYYZUcTc5ClFajRCKRSAw1JDHqJ5i4bG5OwGRm188888yAz9HpHPoyb0jZYlI1f+fK+Pjjj1eihBztuuuu5a677ir7779/WX755cupp55a47lvxdpQsiL5neI3speTaw5hHCp1TAw/aMNkVtu28jT2JAu9lBg40Ct+gzgG6Nac0znwSGLUD/AyRS5isvITTzxR5+xQQJa/Ix8a+0C5gHI+/PDDZY455qhlW3LJJas/AkBpzjfffLWsCy20UPnIRz5S/Q2r3XHHHeUTn/hEWXfddcvxxx9f/UDaBLtvfoPJdSqi+L38jvxjiDGRGIzQfrVnx9lnn7068qpNmzvYVxbSvXSObo3fwO8DzpGkuE4MHEa0gtIvXeIQuOuuu66MHTu2/PnPfx52P3A8Ss9BT2299dYrv/3tb6vfQCImVnfuYo0cKWNfUJ4RjuWIACNUiII0+qm5dDXMr9p8882rBc1zsq9T4oURst/Z/o8++uhyyy231GPipceNN95Y3vSmN5V55pmnd0d7SEtRd4KO9tu89rWvrZb6of7u7HyP0Bfbb799ede73lW23XbbXn0ykEhi1A9gJWJl0APwDExg9kJ94xvfWI444oiy6qqrDuizkPc///nP8spXvrKWj6LUkwS/m56K8hsOdAS/3yqrrFLPw/q17LLLlo997GO18bIuBZCmwQr17RTCt7/97WWXXXYp73jHO3qfRWLKCNkPVeI8idHAAjH60Ic+VC666KKy8MILVz+/D0cfOJLpxMDAb+A9gbiGpdqcz2WWWaZa5O0hN5QRugLoi24jRgrRL2hfrvV47bXXNksvvXTT/tj1ejihZfy13i1RqNdLLbVU85vf/KaeDyTGjRtXj8r173//u/5Wyvroo4/2+rfEqdf/wQcfbD75yU9qudXNP//8zbHHHtu0BLDWL9JriVTTCnc9H6yI5/DEE0/U63XWWae5+OKL67nnEu068cKIZ+QY50cddVSz88471/PES4+bbrqp2XDDDes5eX3sscd65daxffnW88RLDzJCD//jH/+o53QQd//99zdLLrlkT6ihjdAVoS+222675qyzzqrn4TeQyMHMfgDmb/gJy+XCghJzcQYS7W9cy+GoXHPNNVcdItJDYfVxj8XLsBlLEqsX69K3v/3tujP2kUceWecl7bjjjr1WJpaUVrnWus4999zVb7BCfVviV59Lq6xKS+yrv+fVCmg9JhKDDWQ99I9VpWGZCOv2ULdIdDPozZe97GVlgQUWqMNndBDdSv+kvukOJDHqByAHhpvMRdGwYwimG5QPIaQUTQhXLiZc1176luUjBJxwQQaQpBNOOKH88Y9/rMNKFKq6UbDuc8A/SOBgRdTZC4Oy2nLLLWs9vVQ8k4EcAk0kphfa7q9+9as6j1CnTTv3AjaH0Mu4c95R4qUFffPII4/U34heDX368pe/vNxzzz3lX//6V71ODBxS6/cDNHAuluwHMaKAWFY0fIppIJy8KUbkrXOytfK++tWv7p1o7V7MJVpwwQXrqjRKNEhRkCCkIciCNFxPLt/B4rwgPKOYH+bDufw8L/6htBKJwQRt2+pScx3JNdmlj8gx64T23lcWhqpT55Bl5/zium/Yl8LRM6xFdK53hWvvCe+PJZZY4nnzNxMDgyRG/YBo8AhEp4WBQqKE+Gn8A+HkTTkCogP8KUoEALFxLQxF4RpCaTgCAY6hNOGdq29c95ejuCgI+bqOMjiHKI/rKGPEnR7nN1LnIHhBkCB+u0RiMILMhuxo36GPouPWKQd9nXjR0aMnQg6jsydMkC33vORZpUMmg4AIJ36kpSMmPid+EIIIGy7CO5eHsJ1lAWlFGEdh3Iu48Ne//rV28n7zm9/UxQD2Z7Ow5DOf+Uy55JJLanqd9Yv8O8vDmgysyJ1hOi076h/+fesyOQehj5WV3kl0D1LrDwMQVMqFUiSEBJ0ghqJ0P4aOKAl+IE6Qn5kFectT/hQaBR7kJJRQKHIQPpQv/yQuicTkQUamF9ERImshf2TNyxwBMR/GNXmlTxwNRQMd4x6yEKQCQralJ133yHyQAmma/0jv8HNEtpyLK106K9JVFkdW3qira+fC0yms4t/73vfKGmusUUmY9BZZZJFaBsNW8pemNIJQKYNzYekmUyKcO6qXciJF5iYKZzVZdD6VTd0Sgxv5VhkmoCgoDIJMcIOMUHKEPeZDUQzC8RdnZgPxofjMcwoSJm/lU9ZO5d5JkqKciUSi/0G+yGGcX3HFFXX5/9ixY6uusK3FMcccU7beeutKiA488MBKLpCZs846qxIRw9G77757JRLu/d///V9597vfXe8hNQcddFAlEmT96quvLptsskmdZ+OetOkFcx2l/ba3va0SGBaf008/vaZNb7H+CP+FL3yhHHXUUXWbDdef+9znqn7405/+VMt90003VZKEHPkG5EMPPVS3I6HjWJIMbdk/yEKaT37ykzUN9frGN75RyZZ7PpH06U9/us7BRIp+9KMfVfL4mte8puom+gpBein0ZmLmIonRMAAiRFgpIMqGwLum8BANyoISEQ45cc65J8zMBOUbBMiReZzCo5gowvBXRuWjgNx3dO1+IpGYOSBr9AY5Qxo22GCDOnHYHm277bZb+dSnPlU3RGVRMWz1u9/9rvzkJz8pX//618ujjz5aCcc222xT5RU5QiouuOCCctlll5Vf/OIXdYgLSTnnnHMqudFZO/fcc8uPf/zjeg8Ju/zyy2t6d999d90X68ILL6y78TuXDjK21FJLVUJz8MEHlwceeKCSM+V63eteV/N91ateVe677756zmL04IMP1vohTnb1V36bK0rjDW94Q9VDv/71r8uXvvSlahFCqpBD9aaLDjnkkFp+VifX9BiSB3FMDF4kMRoGoJSA8FJ0CAVhRpD4RQ8HEeIohZgvJezMRJAcyk1Z9MD4UcRBhsJKFCQoyJHrJEaJRP+DzIUsWsXqXEfFdxN1Wl7/+teX7373u2X99devVpJ//OMf5RWveEW58847qwUF+SC7rDLvf//7q8yKZwsQ+sau3Db0E0Z4abEYkWf5sSotuuii9b48WJJsVGluEGvQ0ksvXfUXMqbjZAXtscceW9NCYlinWJNuuOGGqkeQKmkgZgjbpptuWgnXaqutVk4++eRaX+VzziplOE0dbTxIHyrHiiuuWFZaaaVa/jXXXLMSOJYrulL8sLpLJzG4kcRoGIByoxwMVxFwpm3C7JyZWI+Q4tLTcaQE9dzcR1hmJpSNo2woFOcUkXz5cXG/kywpJ2XkmEgk+h/kjLwhHmQNAUJGnOvE0BFgFRVCYriJnLLWLLfccnWn/R122KESkNtuu62GRzaserVX2v3331/JlrTEYY1BNAxZ3XrrrVUPsOTYDVq+4hgGY+3hr3y+KqBc4tEP/BzlhQghZqzkSJvhL7qN7lOeP/zhD+V973tfTY8OVK/f//73VQ8hYfTlNddcU+NIX/gYjnPPsJ06sqQpj3DqMrN1ZmLmI4nRMABFQfABkaAwCDCTuN4ZZRbDbMzaFEQQFApgZiLIF2WjbMrFT1nkTxkibOqgTI5cIpGYuTCMTi4RCecICKsIeaRDkAWySo8YorLU3JFVx9E9egXpefOb31zJE3/xpcmqRPZ9T9JQmnlFZNsQlbToA6SMDuCPgCE3QVrcZylyj66QNr0hTcNf5g4hPTGh+/bbb6/1CoKH2Bx++OHlLW95SyVcCA5yJn/1NiTHsqTOSNx73/veutktAiRN1jEEjA71LEJ3IXuJwY0kRl2CeNl3vvQ7z/ticuH6+nVeUxiE1moKysZkRBMhCbyx85133rkqgpioaHzd3ADKBjrTgr559cXk/PpCGGSHIqEoO68pVHMVfM2f6Zuicq/TSqQ+nHjhAp3nicRwQX+2ezJJb4RlCAEKUsNCgkiQP0SDP72y1lprlbPPPrvqFKTFHCQTsM0JMh9HWGkiF3SLtJAUfq5tOvvTn/60zv3RYROOBYfMK0esCJMvXbDYYotVXbHkkkvWoTRkxRCac7v1iysNxM4wIIuQsiJjhsbcP+CAA8qll15a6ygdw4KIkjlOJ510Uu0ssgyZ9B17DCkvkqZcnjnipUzq47kkBjeSGHUBCBZh1eMglJQO4Wea5m+4iz/FRPkIr4dEAPWIKBP+yIM09GbEMdlQOsKGQqGEpG8MX8+IiVk8CksPjoJgfibwFA9HMcibcglHEYD8lENPCoFxLn3lEY4y6zR/C+8eJag84jnnp2eo7MIgR3pqlB5C5DlI3z1lk7/0pK3+yqee7svTtfDSTSSGIryIA3QCeQs9QGZmFNIk/0gAmYthKWkjCobEyCE/FiGyaA7OZz/72TpZGvFwX6fL5GeTmoFMk1MbUCorS1LMOdpss80q+TCvyHCacxYZsq08iBAyI776xxAa/WA+0Ic//OFazkMPPbQO24EJ2MIqn9VtdKN8EChx99lnn6or5GdCt+E/+dB75kchaMppiE868lYez8a15458IUVAxyYGOdqG0S9oG0g9DsePyKp71L8Vmt5zHwScmo/ItmSixmkFt1l33XWbVrE0b3zjG3X9mm9+85vNfvvtV89bYa4fH2yVX9MqgqYV2mbhhReu9370ox/VtNoeUTPXXHM1Z555ZvWXjo+irrnmmvV6r732quFaUlSvW4Fv2h5es+eeeza33357s8022zQ/+9nPmrbH1myxxRbNpz/96Rpu2223bdreWG9duVbB1Q+wfutb36phFl100eZjH/tYc9BBB9U8pCFd97ixY8c2rfJpLrvsspreHnvsUf21l69+9atNq3jqdatUm5YgNeedd17z0Y9+tHnf+95X/TfZZJPm5ptvblpC1bQ90JpepN32TOuHcG+77bYah1+roGp7nFqokw9vXnjhhb3XiRdHPKdoF5AfkZ258Jxb0lGPdA45Dri+4YYbmle/+tW9erhTH8dvNCUIE3Gch87pm1fftOK6JQ71o9MQaUlDmekN1+5L033+kW6k4cgvdGpci+tcHs65Aw44oOq8tkPUG1+a7rUdqN60ow7A37kwEOWDCAPKK57yRn5ADzmPsoF8Io0poW8cuOeee5ollliing91RP3jGeRHZBP/g+j16EFZ7cCC8vOf/7z88pe/rPtmLLvssrXHoifyne98p/ZOWsJRVl999WqJueiii+p+IszIejcsJqwpbQMr6623Xu0l2XNDD6klMXXiobys+tATdG78ndWIBUdvibXKZMOWHFVLDmuSfUKUTZxWIdQyicefdYr53DBcq1Sq5ci1XhprlfF+aeiF6QHqta288sq1/PKwLFbZ1NtKEmZ48xjEs0RYT3jzzTcvLVGsvVBLfvUI9fRuvPHGmr8PwOrJytPcAcOEerKJxFADGQxLDkcW6RBg0eHXHyDnLSmoMi0/ssfJyz1y6ZoViBXFUVliGC7KRd6F4+9aWHqMZVgaMUwur4gjT/VwX3z34pqj61yzMrN8S4vO46TvKC16TVjlFcZRemH9UmZ+wiifOOIqLz2mXKxUoR9B+la4OSonB2FhSwxuJDHqEhBQwz82Olt33XUrKUCEbGf/zne+swqglzwyQVjNvUFovPyZjk0MNI5v3xBAIiiXFVZYoS5dJcQICTBPUwCUCQVhmM49Ky6Mm1MC7jOVWxZLIcjXhEdxKQ7loUyQLSZwYeW93377VWXFWfaqnIgax08dpaM8JjqKg+DYSE1ZDZ+ZC2BZL0JlyM+SWnGN//NX/7333rvOIXCuHEz4lBLlRvkhm478EomhhiAOjmQDyfAy50cetHv3phfSDASBCPJARuXFLwgQR94iLOKiLCF/4rhHb0QaQJdIgx+CIrz4SIkyqIP7wtND4gsjLVAmunKnnXaqm07qGEXe4jkqKyee/DwraTkCf/rJPfpQWaJu8lUW6XAmfiuXuoJ0xI/nrzwz8twT3YEkRl2AECZExdg60uCasJ144om1R0QQ9ZiMgzs33r3ttttWixBhNTGQYBJa4/WIjjQ4gh7KExmhBCgYhIRQIyriIkgsRfJDdBAvSkcaSJOjeBSPOJQICxALE0XFn3WJgqFQLHXdcMMNa1yTMll5EBbhlEcawnLxHDhpgrDCOKoDEkVhycsGcJ6V1SssZzZ9E1YdbNRmwzd5SC+RGIoI2dHGyQdZhtADMwKyHi966YYOIXv8Q7cEYVAOR+FDRoN4RBhANiJewLX48gkyI65rZEl+dIYw0lYOYZxz4B4CI/8gNO5Jw5GuCl0gP+nFNZ0mfOQJ4vB3dM98yMgryi5NeYZFTbk8J2VJDG4kMeoCEMYQaiC0rvmzHlEMhNYRCTKc5b5hpnvvvbeem4C85ZZb1p1nESw9GeGA5YWyiB4ZixACwdqDJLECCUugTZBEMFhi+FMKBJ9lSprSIfwUgSMrj6E5aSNs/JTHCrcf/vCHdTIkRYRwsfAIR2kiOeqrPPILJeqe8DER21HZlNNwmeFF5NDmapYFU15WmugtKjNCiNCps+cYyiyRGEoIkkJuyAtZciRP2rzzGYH0Ix0y5ki25RN6KvyE5eco/wAdgTwE6C9pccJLP/Qa8KODIk3+dFXUiYvrqJ84EY4j80iMdPh7RvGsonxxTU/RR3Sc4XdlVWZpS0fZ6BSbQwpj2F4c8elb9+k8+ku6QZji+SQGL/Kt0SUgxIQOASFsBJewsbpEL8p9Qsuas/HGG9c5OeYVmWPDKvOzn/2sDin5ajRCgdgYGmOBAkTDMlXpumeOkbQso0VUWIcQGnEJP8uNc0oBKaIkKDXloaQoBMN98rW01Rwfc5/MiYr75johYOYOmUfE+iMPc4tCqUtT2pQU5eRangieeU7SppzUEwFCxoRVPsoKQbS0P5Sd4UjnyplKKjEUQR+Y70JvIBKIgLZObl0HcZgRBJEgy9LjIg/+rskhBPHotMSQb/5xTv9YLXbmmWfW8kuDvJJ3edB7Ue5IJ9KMeqmvMNKDyIuftOgZmzZa7g/yEV9cecgr0ojhNLrFPEzkiB/QHZxl/6zPe+21V9WVOqLmVRrW11HTaYR4/qAeicGNJEZdAkSA8NvlFZkhxIQ6vh9EsPWI3COA5vIgQ8KvvfbadSjprW99axVUlpQQfopAXDD+bixeGArAMBRyYSmtOUSsSIal5EO4kZAoB0tMzD+Sv3SdG7b74he/WC1bNnIzOdzmavIyjIakyBPBMklbfsiU5bIUD4WCAFmyK0+EjZJi8XHPcKFymYQuvL2XEDpp2mtpu+22q2laqhtltXFbKOqo+5QQyhjivNMv8cLI5zUw0OHw1XgW1BhqD/gtglRMCcJ1ugC503GxAEInBuEIouLcPZ0dckfPyIdVVydFWXymw7n5hDp6ZF88ZdQxQoiE16njT/eRXXoJOUFUkD6kixNGGvylqxwcSNM5nSM/OkIHLwiZeKw7LNbSpLOUGanhYrFJbCqp7upDj6i78iNbPlmiHIbp6S8kyfxLeSu3sJzySyMxyNEKRL+gbWz1mMv1p325fsRvlUCPz6QlnPziObp2HuEiD/nFPXAeaJVZPbr31FNP1ThRvggfaYJjK/z1XDiIOBEunGv+0m2VR9MqpqYlKs3GG2/cXHDBBb1xXwyRHih7lD/K91LA84xntf7669ftDZQjnkFi8vC7eUac5xXXjsccc0zz8Y9/vCdkor9B3qjvBRZYoG6pYauNljT0ttmWME1xuT4X8saRY2Gct4SobqchfdtX7Ljjjs1pp51Wl7d///vfb9rOWL237LLLNqeffnrTdtyatkNUZd92H+757b/yla/0hrviiivqUvpvf/vbza677tqsuOKK9d6BBx7YtESryuDll1/erLXWWtWfE1YcW3lsvfXW1e/II4+s23JEW1NedY04tgtpO4h16btn8uEPf7hpyVO9ZxuPlgzVrT6WW265pu281W1MbE/ivvDxHNqOX/O1r32tN93zzz+/WX755atu8OzbDlctmzLYViTC2VKkJYw9T/r/Q5qT+w1AHSCX6+dy/UQH9MaAWbdtFLUX0gpL7bW4bn+n3h5SWEHCX+8reoauO496Yc45PSW9rzAlR3zQ45Ff+DlCHCOPuKdc0jLsZZhLj8tqMRu5ffCDH6xb7AvDRblfCO7riQkbZY1843pmQvqep+eiLHq84Nl5Ji9W/uGMzt9GG/Gs/I7RHj3DxMwBy6qhdBYUW1iQOUfz7cyxmRpLqd/H78axvJBp6RkSZ5Vl1TH8ffPNN9fheENI5jC2JKmGtTHi2WefXeOw6pLjww47rA5tmwdIpliVrKy1cSy55m94vCUT1SIlbX4sM1aw7r///rVdsdK4rwz0C6uSulnpaoheXtqbulqt+4Mf/KBa0QxxsT5Lw5QCVnQyHdYhliFzEMU74ogjyvXXX183gLSYhbzHEJ1nwlrva/sWemy11VZ1/qUFKyz4LOssU6YmWJWrzvL03GxuqWyd8tFXRye6GyPaH6pffinJ+PGvu+66Mnbs2GpqHS6KMR6h+hMI9XZubNp4uuGmF4M0vFQIfJiWpSUd9ygVwhrPlBCHYiOoBNo1hShOkAugMJh/pRPDaJQZ5SoOf+lEPSDyhMgTpA3uhfDLU/xQLI7Innyi3C+EyCPSDUT64k4p/owiSKn8ld0L5j3veU8dGnStfsqR+F90/mbaSFw7mhzvheflkuh/kDkve0PN2qd2TGa8mLVfw9EWPpgT47dxL+Q4ZJuuMfQkfrR1RMZKWOTCFiCGoJAJukJeyI40zQlEkhAknxE69dRTq/7yCRCLMcz5s2KWHB133HGV+Pgq/sEHH1yH5e0obWgeOTHsZV4QwmMYDmmRhvmVhsyvvPLKqq8++tGP1nLJJ/QCQmK36k984hN1bqP4Omhf/vKX60pY5Y+O1yGHHFLDWcBiuP2UU06ppAip+8AHPlA//4HsqGt0ivbYY4+6aMR0BemaAqBeym5upuFAnxSRljjIm2kNngd06i7PF8hH57my+T09VwTNkOFQR9QfPANTIRBMbcy90CUDhSRG/YB4hOpPmOIlMbXESHxCRYicxxGhITCsPREu0pYP5UahRZ6UFEUX98WNeO7FuDtBFJ5y0xOkOPQY+YsrfMQF+YB7nb+pcAGKGelCwEBaUZYpQTjpq3NnPqFQXiz+jEKeeqVInDpvsskmVREHzL3yskj8L7QF803Ac9L7B7+7duWF40WtbSf6F9ok64iXqOcdHREy6Mv2nAnICIbfSTsP2SW35CrkzTV9IR1xPv/5z1crD/IgfdYYizpsPsuiY0IyYmD+DgvOQQcdVK1ISJNrhM3WHCw59lhDjOSNqLFqKTciRO6kZY6hvdos4rDnWkyc9mkOROprX/taWWeddWp56AXlVGbnV111VTnwwAOrpcpWJKxM5l6Zg+kdhCQiZQF5+FSJDXHPOOOMSpLMTdIhsrEs/UWngvQRKSTTfEkEaZdddqkEjG5XfhYzJM88zZAF8yBtnwJ0SuiwTn0ZcC+JUfcRI4XoF7RCVo85x2ja5xiJw8Uza18kdYw7/FqlV/1dtwSnnkP4G+PvjM/fODzwi3j8lc15q0DrfdfCdF7LP+IFIlw496TXkqrerfmF4c+vVRrPK+uUIJ0IG2lHPjMb6h3PG9oXQPPTn/60t77gPDF5xO8NfsM4b3vxdb5HYuZAm/zd737XLLjggt4wdR6NeTMbbLBBnePn00BTmmPk2m9lTk3oA35//etf62eITjjhhOpnPo45PuZ/mGfzwQ9+sGlf3DWs+UU+3/Pvf/+7+fKXv9wcccQRNW15t6Smueiii2p+wpmDRCf53JG5R//6179q3q6lcfXVVzctOalzeMBnecw/+sMf/lDDtySmd26R8mp3ji35aVoSVz+BorzmOZqnFPOOzjnnnKofybdPC/FvCXvNSznVwxzJ1VZbrdZVmsKaT+X57L333lUf0BHty7uW06eOVlhhhVpv5VIHaDua9VNG5kyJG/o24LyvA2lDzjHKOUaJDuhN6Z20glR7cdiyXlErtHU8Xs+s/a2qP7++YFGSRiuMNT5Lk+E16bVCXq1F0WvUm2PutepLz0QY54Y9pC0fYfsydv7hAsJwyi6O+PITRs9LL0ieU0KrFGpPS6+uM/+XCqxoyu8ZmTPl+ShTlNtRmRzTPd95Tn4zbbV9UdW2oLftORr6yOc285zn++1vf7vOm2HB8Nkcq1F9Hsh+ZqwZfWW4E/FbsRSTU0e6wNFqK6uwrHgzh8Y8o9AxLfmolo2WwNQVqOYd0TdkCEI/xaav5EpZDXFJX1hWHtZFc4Ckb3d7+sKqMNYbabLsGH2wjQjLo3pGe1IO58ptbiOrjzlM5kb59JE48meVslKMDmXBYtUy30iZxFdWZVJO4Vyrh2dgWI/eZZnzrOSr7tq89OlL8NwN0RkZsDKOhYm1Stkmp0dhSr9LojuQxKgLEISA0AGB4igDQxQEzounr6CJwyFEjgRaGiYUMvFSAszrodS8sJiCTRxk6jV+Lh4FyKxMYYTSkI84kUcg/CkQwk+5OqqDexSKF6VyKHNn3MmBAjcfQZnlLZ44fes6s6CMHMVsbld8WgSiTsqS7n+d392z8pwQYs4LxHM0wdULZ3Lx0s2486zNazG52PCWeS22riB72iy5n5Ls+Z3oDW3f7+daXENkq666ah3akrb5RUiSe2QDCTPXBjEybGaIC2FwzxJ28htyFEvzkRef9QFzjnwb8fvf/36dPI502cHepGYkw1DbbrvtVic62y5Eh8n8Hvkqg7yUlVM/foaydPIMg8vbsBdSo5wmcRsCNG/J9xPVVxkNj6mrNiotw1/0Z6QL0lIuc44QOvOR1JHOsn0IPyQJkfOMzIGShnxCbwSkOaXfI9FdyDlG/YB4hOpPyai386mdY0QYgbIjWIiQXhYhNBZulQOFAj7SiozIk6AiIhQcxWDOkMmJ4pkUSKiRDcpJz4ilyBi+9Nyzv4cX2OWXX157WiYxUhx6hBSLfMxVkId6xW/MSVc5kS8KRC+Tnzq45pRLOhSL/JWPUmKhMq9AT098cxjMSdFuhNF7E4biUh8vYD1JYUF6MYeFU05j/CZOKoM8haX0+Cv/lKCc8gBE1JwJynu4tN/phfbQ2fad+321N/NK9NS1qUT/w0sZafGCj45JECakSGfHfA3Egj8dE+055Dh+O3HJDd3jSC8gIMKYYBxzdhCmTpBpccWLtOSjPJFHlMuRCyISftqL8FEHcdzrbEuu+Sub85BVfvSVo3Dqjig5j/wjL0fph+4Mf+eO0nYvyhDliXChQ6UvjnyFB/rDMwi4F2UMSEe6HEgDXEf4nGPUPXOMUvN3AQgeJUChMd1+9atfrRMX9ag0Ei92gsu8jCAhEHpBJguC1SF6dx//+MfLySefXL9qjwARxlAsCIeeDFO7D7YyYzM3h0JAJAi4yYvMwVZ06OVRvhQO4Y0Gy/JkF2r5CWdSJEWMkOjxIVrqYyn/Zz/72Uqg5GeFid6tdL/yla9URSBvFi1pI0N6ooREL9HGkVadeAkcc8wxlczplekFUthM2Ein3ilyhUwiVdLW4zS0II8XA6VGMXlWiKLnxXUKb+J/oS14To7hvDg8S+eJmQfWGFYdz9tvQI60X7oirl+s/bofxIQM0hcIkWEnHQRyZVNWu9mb2EwHCC+esPLggjxEe4h8gwzEMfJzDAISVsW4po+Ecc5FOpFfXAdpUXbpKRs5jrTCgTTd93zEce4IUR7lcC4MB47xXMGzBuWKskAnKQJl6ot4PonBgSRGXQBCGj0pZMj8IMLMFMzKE703itAqE6s2EKDzzz+/Ci3BREosb913330rwZIWokOAxWV9sR2/ZamWsiIZlJ34eohMwggIUoHAiC89ebpPsEFadnc1vwGBolRYWBAzaVi6i8AhZ0gNcsPqpA7KbmUK8seSY6ds8UNRWlp7wgknVIsWkqOMTNZInTBM9/YUMXfgnHPOqSTGc0LAWLyQNauglNf8h1NPPbXmnUgk/hdkKhAySE/Yu0dniJ8hOkNczqNzFPEc6YNO3RAEIEiUc7okdBzSIO2wNkWajq7pMjpJeGGlF8SEPpMehF+URbjIh05wlAcgNEFk+IkrLWHcc5R3kDTXieGNJEZdAMJKwJEHww977713VQqGp1hlCLI5MF74CAOLDLLA5IpEEWZLUA0v8Q/FY5gJKB3h7B9iKE7vkIUIkWH9MVwlnvRZWKSHFLm2sRnSpQzCUiCGtRwpPuGcW96LMC2//PJ1roNrZfDJEkpIfEtnWXiU0/JYeRqvl577ymt4UE8VuWM1opQRKfcNTRqiQ6CQLM+L1Uy5xJNOfO9okUUWqWEn13tLJIY76JtOB2SMrnBEJIJg8HMkS2E1iTh0RZAVfsI5is8FyYgwdAX9w0kv8ndOn8jLUTj6w5GDsI65L90IF2Xg5yhtYTnXnWmoG7CsuSc/9ZSWcggXYRLDF0mMugAhwIDseLkTUISAwiDwXv4sPobSWGVMnI75M4gHcoMoIFAE3LfKfEtNOhQU0zviYagsel7SFN6wFDIhLWTFRESbmBnSCnIlTWFBeRAi1icEx1E4BMo9eUmDOZ7S4qc3xp/SkjdiZthLuuZEKac0XFNMwonLioXQOVdG96TFz3ChMlqFYzhRXGnLV89XvlwikfhfkCm6J8gB2aEryBHnPKwo5C46GXGff+gt1yFvce7oPke+uSA+EcY1/ygLP/nIj7/rIECRlzK5716kKb2Ac06a7gsrrvDOIwzIS3pR70gzMbyRxKgLQCAJI+LgRR8WJMTGMBGhZiWJ5bmWvpr7w6JjtQVhZiVypOAQmLDCRK8PaWIhsnMrshE9JmDVMVmehcXcHEN18hfOLriIBhKlXOIgMttss0254447ajhlQNps5obc/OpXv6rEBFlhgZKueJboCist9TEBG9lhNTK/iIVMeq6FQRCFQ9aUnQJTFwrU0l6fFRBGeOcsUhSdJff8lDeRSPwvyBnCAQhEkBzy5V7cD+LBHxyFC5IEwoY/nSMtiLiu+xKsSM/QWeTlnvCRnzj0HZ0hbbos7nP0AEIjPWmLE+lGmXQClUN8cJSXIycdYUB4aQkvfmL4IolRF4BCIJTIDUuLCcvm0hjf9wV5CiIE1Zwjw0fm0PCzQkv8ME8jFISb9UZ64oYC4H76059WoiI/BIhSQC5YnJClTTfdtOy11151X5BYvYbsRBkQLATOV6atOJKeeVHm8iBqJk8btvMpCNYtnwhAbuRjzpH7sX8JSw/LT5A0RMlQoaW8JoCayG0JruW+rGeIjvohU+YS+bbSD3/4w7pqxlwo5EgZ1U8ZYzJmIpGYPOgEMhPExXV0KIJ0ICDuIQx9SYNzjvwK40i38Iv4rsWLjpVr+iD8Ix15k+1OfWceJX1An/GXJmITFi7xXYsb8TrLSbcog/v85BnWIeBHb9KhQaKEl3Zi+CLfGl0CSoVwss7Yx+PUU0+t+2OwEhFcc3dMcrb1PUJgG3yrwZARBAChEd/8HUKPdFAA0RviT7kgO0gDfxOjkSekyOoySoHFyr4itr83mRkJY7miKCggigYZY51BQDbffPNKrAzRhbXKN5aUwVCfIT/WKBOlDbtJk6Kz9wjixBqEZJkILh/fU2LtEcYnAQzTqT9LlnlDluTL1zJlyzstC7fSDgHzPJTTs/JM1IdLJBLPB32DAJBpDmEAOoO8uQf8OaRGOPG4CN8X/OkBuuuyyy6rmzmy+pBDG7mydruPbFmtSncgLfSYDpT9zMShqwI6T+RaPJ0rGzlaBRtWcTrM3ExbxehwuZamBSA6lyzXyq9urNzC8pe3crFqs8D7FBDrlLBBnBLDFG0D6Be0AlGP+UmQaf8kCLREpcZrlU/vs3MOraDWI0TarfDXYyeeeuqpnrNJn7oAaXHSiLK1Cqb30w0Q+TryF74zDP8ogzSkzU+4KHdnvZ2HP7TkpznttNOar33tazVOxBVOuhEO+EW949wxnOvwk0ani3I493zUYVog/oYbblg/RxDXiRdHPCfHOD/qqKOanXfeuZ4nXnr4NEbbMamyAHGE+J1CVsLPeVy7R34cofO3jXt90+H433bbbc1+++3XzD///NhFlXufGrnkkkuaz3/+803biWoeffTRZv/996+fgfCJjbYz1Wy77bbNeuutV+OcdNJJTUuo6qdGTjzxxPpZj5YUNW3np97njjzyyPppEfmtueaazayzztrsuuuuzZ133tm0pKxpO1A13DrrrFPz/ve//93stNNOzRZbbFH9W+LU3Hrrrc1ee+3VtB3H6qdMLWHqfQ4zC53PM/RdfhIkPwmS6ANmYL0iPTU9Mohem55OIEy8LCJ9wQwd0OuD6OFJQ+9KfL01+QUiX0f+wneG4R9lkIa0+QkX5Y60I0z4t22shmM9YplqlUDtpfEH9yIeiBv1jnPHcK7DT9xOF+Vw7vmoQyKR+F90ykpchxyBe+THEdwPOeVHBtsXWK/liDyTa9YWw+X8WWRYjizusJKWVZtl2jC9qQJWqBoqNx+R9YjOMHRmYYcv3bMuydPQvCF0e6DZZNLCDdYoX+ZnjVYefrb/YGGHljRVS7Jy2SLE9ibSYG22gtf8SZZxXwBgzTaEb7jeVibSVJfE8EUSo8RMByJlQ0pDXUGwQtGGsk0kEoMXIcsIisUPHGJiTqShLcNp5ifauNYwmUUdFnEY4jckZpjdLv/IkWFz+6IZ4jJ0rpNjeB2p8V01w/k2iTXtwPxHJCa250Ds7PovL3mbq4g42QEcaVMOizz4GTZD4pTbZ4kM4VmIYshv/PjxPTVLDEckMUrMVOixUTJ6mBRXp8JxHj3ORCIxeNBpXQprkSPCofNjjqA5kb7NaB4hazFiopNkTiHrEYLDGoT4iIegOCI15hwhRVar0h3SR2TAubDmM8qLFdoqVVuUiC88IsT6w6pkniMrkXAgnLIry5JLLlkXj9hMV3mll9aiRBKjxEwFBURZUTZBgiguis3RvUQiMbiABIUj1+SZc+1TQz7RY9sOFh2rSw2bmUQdnw5CinzaBzGyFYeJ14aygMXGfm70g7QNgSFTvq0Ye58ZpjORml4xFId8PdOzqsyUAhvDmshtF35fwkeOkCdlAGkgYDprhu2ka5K2c9aqHIYf3khilJipoICiJ+g8emTOubQYJRKDDyG7ZBuJcAQrXg2RGSqznYc5P4bQrRizW72tOnz93j5oiInhK8NkhtMMaxn6su2GuUjm/kgX0XHfMJpvt5kv5HuS9k1bffXVK7kyjylg6xCkyvyhM844o24/YgWuNJAvBIr1CqGystWnhmz7gcDJQznTajS8kcQoMVNBgYa1qJMQAb8cy08kBh8QFtZgx5BnQJIQIR9wRobM87FDvW09DI/5erxP+7Aq8TOMZtiLlYa/ydfmJNkuxP5l5hshOrYI8Y3Ej33sY5VAxSazhtPk7/tuhsjoE0NwvhlpGO7MM8+seflwtjRsASIf5aaPbGuCZPkgtXQRJPOgYi5kYnhiRNuo/n+rngFIRmMjDGPHjq0z+2MMeqgjHmEIWygMAkgwmZGHMxAgznOicOIaPKduGU5Tvo033rgq2be//e29bToxZcRz6pQD1gJ7zjgmXnrYMd+mp1Z20UfkLfRxf7Xr6OiQXxYYYKl59tlJO1QbpnJP3vILue8sh3NlZFlCUkzCjvvScB7WZmmYJ8RPPs6FQcYcQ484uidMtEtHFiqTuxEv84ukE+U3FIdkqQcd1R/PZ0qQL8hH2ZXVZHPE0TDiUEfUHzwD++ex3m277ba9v9dAIi1G/YBo3PFjx5GCSEyCZxS9MMrR84JQZgOF+K2UCToVrHtxP5EYTCBv5upEu9aOEZlAf7RreYSLpf3yYwVCMviTpyBQgIwE8XEUHimwbN/QWdyjO4O4CBOODgny5T6iw1/+EdbRtfvKwE8ZDMkpD8Imjcifn/IKw/+lhPyjHMpqSLDzd0oMDJIY9QP0TjgCqXEHkhhNAsHvJECUD+X5UiuhycFvFsobHLlQsInEYMTk2q52rl33Fzrlmt4jz4gLf3Ds9BOWE9Yx7tvx3rCazw/x48Jq4zxkM3SrOgQR6wzrGISoE/LghKF3Ou+L4x5EepHPzIbfyHtD/Viq4jfrz98oMX1IYtQP0LD1XPqSI37AL113ulC8oRD9hkzu7iU5SgxmmEjspR9EH2mINs0vZKAbHVnklJNMRudF+aMOg9mpj/qpi3o5R8ysnEPWEgOLJEb9gFA4VjtEww+8lD2QxLSD0vUbUUqBmBsRRDeRGIwwV0UbDoIB2jpHX3UzlBl5IIfkMTqZUe7BrlOD3Hl3sGKpn/omKeoO5OTrfgClY9hM4/YMPAsCzURsdYVVEYnuBGUEetZ+NxvS2QV3iy226G3Tg10Jz2zEc3IE5zn5emDhY6p2h/aR5bC00Enau7buutv1s46mMgdZUHaTpvmDe4MVnr/fhcxE/XyWxGo67xKEaSgjdAXQF902+TqJUT+AwEZd45zbb7/96jeAKKLh8iwGI6JXDZTt7rvvXnfK9bsNtIAOBoTshypxnsRoYOGTHHZ+NnfFSzbmO9JDdBQrRTe3bTJJ/kyYtoosOp5IBLJn/6IVVljheS/YwQTECMlTr7AexaTwgw8+uN4byuj83bTDJEZDEJSPBu3oxRo9M0KsV+A5dLMSGs6I3ydeGH5HSpmy8vsNlzY8IwjZD1XiPInRwEN7DhLkGG3Z79Tt7Zr8aUfKGcSBXjX/z1YadrLeaqutekIPPsRvQP+oV8gQEtjtpLU/ELoC1DWX6w9BeIH6ITt/bA2eMtLoCYD76brPAcWL1HJ+Nw46f89EYjBB26V3WFm0Z2082nWQjcnJQ7c4UAc6VFk55yxIPicSL8/B6vwW6hCfMYlr7xLHxMAiiVE/QEOHzk3DhgPrHwrwG/nNEFi/n2NMhnQvlVRisKKz7XrhsobyizbfzSCHyhkETtlB+VlVBrtcqhOoZzh14rr9txkOyF+gn9C3oYcwh3+iO+G3CmLU97fin79fYjBCu402Hcc4j/vdDmU0PyrKHPUYCno16qATBs7pGwQ2MfBIYpRIJBKJRCLRgyRGiUQikUgkEj1IYpRIJBKJRCLRgyRGiUQikUgkEj1IYpRIJBKJRCLRgyRGiUQikUgkEj1IYpRIJBKJRCLRgyRGiUQikUgkEj1IYpRIJBKJRCLRgyRGiUQikUgkEj1IYpRIJBKJRCLRgyRGiUQikUgkEj1IYpRIJBKJRCLRgyRGiUQikUgkEj1IYpR4UUycOLGMHz++NE1Txo0bV6+dT5gwoSdEYjhCO9AGtAXtA5zzTyRmFNpU6JjQOzBq1KjazhKJmYUkRompBsU0YsSInqtJL8E4pht+LtB5rX1wo0eP7iXQ6dJNq+uE65EjRz5P9yQSMxNJjBIvinjZPffcc/X47LPP1p6cF19aB4YvtIV4YXFeYNE2wsKYSEwPtB3kWrtiLYr2Rd889dRT9TqRmFlIYpSYIiiiZ555ph5DUcWRSdsx3fB04GXFIUgQR8j2kW56XZBq59H5iuHa0D+JxMxCEqPEFEEBxQuOQoo5Ja5ZkDotR+mGp9MWEKIgSNqJNvP0009PNny6dC/mII6zzDJLbxvjco5RYmYjiVFiiqCQKCZgOXIdSsoLMJRVuuHtvKjiRaZn73z22WefbNh06abkOom2dhT+9A0/xIhLJGYWRrQNrV+ot2Q06Ouuu66MHTu2/PnPf66NOTH4EQqKdQhJeuihh8pVV11VX3xegqmkhie0CfM/okcfLy3XP/7xj8vNN99cPv/5z1f/RGJawSKtjUX74rS37bbbrpx//vllq6226gmZGGzo1Al+1+233768613vKttuu20vlxhIJDFKvCgoJy4U0y233FK23HLLstNOO5U777yzjBkzpt5PDC+E8kKY9eY5L7P55puv3H777ZUYffSjHy333XdfDZdITA0QoSeeeKLMNddc9R2iff33v/8ts802W5l33nnLvffeW/bdd9+yxhpr9MRIDDYkMUoMevhtER+/JwvRDTfcUNZbb71y6623VqU10I04MTCI371ThWgPrs8+++xKjA455JCeO4nE1EM7Yn2kczo7ZvFOWWyxxcrLXvayep4YfOjUGX7XJEaJQYkgRn7na665puy1117lxhtv7IpGnBhYRBsIVeL8mGOOKb///e/L0UcfXf0SiUQiELoC6ItuI0bJXBKJRL+jU/ElEonEYEISo0QikUgkEokeJDFKJBKJRCKR6EESo0QikUgkEokeJDFKJBKJRCKR6EESo0QikUgkEokeJDFKJBKJAUDs+RSbo9rE0Hn4JxLTC23o2Wef7W1fNuYF5/Ex3sQLI4lRIpFIDABinzcvraeeeqruIB/7t3ixJRLTC4QIAYp25Bzx1r7yE04vjiRGiUQiMQCIHr1PqfgMhheWay+v2Ew1XbppdcgQ5xMq2pT2pH1pZ53Wo8QLI4lRIpFIDAC8rLyoOOf/+c9/6kuM8825RGJ6oP0gQUgSS2Tfj/G6l5gykhglEonEAMDLKl5UjjGU1vc8XbppcayNjoiRdhTWIsNpzzzzTH6qayqQTyiRSCQGAIY7Yqjj8ccfL7POOmsdXtPL9/IKa1K6dNPitCsECBHSvlwHadLGEi+OJEaJRCIxANCb16s3KXbOOeesZMiLa/bZZ6/+rtOlmx6nDWlLyJFrhBtB0q6QpsSUkV/XT0wV9ET8nn7n/Lp+ohPRBkKVOPdV/VtuuSW/rj8FhEx5YTlfffXVy7///e9y7733lte97nXl5S9/eU/IRGLq8dhjj9X5ao477rhjOeKII2r7gtDhA/1uDl0B9EW3fV0/iVFiivC7EiomWZP4HK+//vryyU9+shKjMNNGmOiVhMLXK04MbYTshypxnsRo2mD4bK655qr6c2r0Zrw4WAKsPnKEmJtEHh05cggRxz2yHJYpq5RYF5zHbxlyHPOfIh5rg+uwdkG8bDk6gJUi4jz99NN1josyQiwZl598xY2JwvwjTYg6hN5xLrzzCCcvUN4oq/sQaYof95xLQ/n/9a9/lZe97GW9ZVY3ljuIsFFPTl08M5CGPDn1E9ZROo6RN6indNSHk4583I9nOsccc9RrYcVVJi7ug7wjzotBOHr64osvLpdddlmP7yREuQYS6hhQniRGiUEFv6uexw9/+MNy+umnl89+9rPl1a9+ddljjz3q9Zlnnll+/vOfl7333rusueaaVQGEYiLA4lNKiaGLkP1QJc6TGE0bnnzyyTL33HPXF2MnUXghxAsT4egkBfyRDySLv3TnmWeemp57ZDN+J/fjJS1fCCIQulsc4SLteMG731nGeKHzVxZEAaJc0nA/dINw0gH3I/1IszP9OEb4IBr8I033Ip1OkugZOQaBjHohReodREY8ZfW8PDvhxVMPZUdc5BHlDyIUR/Hlhbx4plFvThyWwL6/g3qIG89Xnq7FFeaJJ56oZYkyQ9RjSojnddFFF5Vjjz22/PjHP65+AfcGGn3L023EKJlLYorQQCkIAnvVVVeV/fbbr3z0ox8tV199ddl6660rIUKclllmmSqwBJ6gUxLidoMQJhJDDeQqXsgcmfMidU4OvXS9XL38vWhcBxnhvGA5L3xwj+yyXCEH0uPiJRXxyLp4ziMMciG+8giPmEEQJNf8O9PkH36dpKoT/OTjSJ8IG/VWRvlGmZUJ+EeYIC3S9UwiX3VQ7yBX7iur5xfh3Ivy8JNm1NsxyiKco3xjTo+j9JRNGsrndwidGPUSFoQDaQFiJZwyejYgbBCpiJeYeUhilHhR6AWttdZaZfPNN6/DZ7/97W9r7/b2228vCy64YNlqq63KK1/5yqoAKJ4ApRDKJZFI9B+8OMmWl20QBC9W8uelzLnvZepFG6Sl84VOrr2gvdSF5y8cK0W8uKXL37Ujuffid86BMJG2dNwHceQjTWGdR7mcR5riIxvyc49fEAFhpB1pRDhl56f+jvI0r0b6/CJvpEw64kpbWHVwj5940pcuIuI+yMOzFC7KF2WQvnjyEIaf8kgfuYoyBqlxrVzSklfEieckrDDSk1ekzcXziGfMT/jEzEW+tRJTRAjjIossUnbZZZfqxyRMAVCoJol+/OMf7xV8yqOvcCcSif5HyBm587L0EkVOOPBC5SeMlzl/150vVvIdViWy6iiscM7JuPOQbede7IaGIs/IR/ggXsIKFxYczn1HhMHwzjnnnFP++te/lrPOOqvcdNNN9fy4444rv/rVr3rzVEcdLnlFupyyKie9E+VC6NQ1hgblF3XjHn744V6SRH8pqyG1T33qU+Whhx4q1157bR36ffTRR2u+kS5y5Vz4+++/v6y33no1rSiPtJVDmuYsKYNrZEcZEbZDDz205iWOeoF6xTMRR17ScISoHz/1l1eQtcTMRRKjxBRBaAknc/JrX/vasvHGG1cF4dpcI/OK5ptvvtorJeQUD4EGAh5Cnkgk+g9kzYuXfJK3eEmzXHipg/teomTSPXKMUPATPpxwIavixn1xkA3nQUSElY7OkXB0AScufw6EVxYvfPE7yyTsBhtsUN7xjndUImGOIiu080ceeaTu6USfSAMirnxA3aM+IH1lEy70EP0Uegip8AxYtUG4mO8z//zzl3333bcstthi9f7JJ59ciYx78nOUfjyfBRZYoPz0pz+tKwaVjx/ipMyelfLzU46wTCF9d999d42D5Ci3NN1HdISP8rNaeUagjCBdcYRRF2VKzFzkWyvxoqAgCOXSSy9ddt1119oLdP2a17ym7LPPPlVYQwlSBI6ElzLiEolE/yLICivHd77znWr1II9f+MIXyo9+9KOy/PLL15fs73//+/ri9QJmmSGfK6ywQjn11FOrDN9zzz3lsMMOK5/4xCfqy5c1xHYcwMJx8MEH17wQkT333LNaih588MG62unLX/5yHUZfaaWVqkXkyCOPrFsOsCDfd9991Vmcccghh5Qtt9yydqyskFJuZMiCDuXir5PFgiIO/YHYnHfeebVurDO33npreec731nL+PrXv77eE/60006r6a+99tq1nMrxwAMP9JIaR1ajb3zjG9Uatdxyy9Vw+++/f/nnP/9ZnYUkd911V9Vjno/pAfSWlbfOPUfPCHFRvq985Sv1eQSBovuk+Yc//KEsvPDC9fmeccYZZffdd69xEC7ldi78t7/97Rr+Va96Vd2awfOU5kknnVRe8YpX1Lr/4he/qGUURznMiwqi6vdMzFzkE068KAhiEB9DZ5QcJbzNNttUISa8QNFSeoQeKAPCnEgk+hdesCwLhn2QIQshrBK99NJLK+kxTIUIuEcGb7jhhrLDDjuUX/7yl+Wb3/xm+fznP19+9rOfVeJwwQUXVGLy61//umy00UblwAMPrENG0jKnEPlChMj1FVdcUa0mSA3rirCf+cxnykEHHVQ7TAiElzdiMO+881YC84Mf/KB87nOfK1/96lfLiSeeWEmOcssj6qCM9IVrlpWzzz67kjoWaoRlp512Km9/+9vLbbfdVj72sY+V888/v5K0v//973VYTtoXXnhhOeCAA6qFRjp0lnTVURqeh7L85Cc/qUTkT3/6UyVACI2w9BwSQ4/pAKrn5ZdfXknKpz/96brSmlVL2ZA1Fh/PhHWIdefDH/5wJYLqftRRR1XrEdCJwiOBVm2fcsopdX4mEkefek5+C8/65ptvLt/61rfKpptuWt7whjfU5+05+W08H2mEfk3MPCQx6gdE74SAaLihtAgEuB7MjiBSGpTIEkssUb70pS9VM/j73//+2sNyHzmiXBzj2pGbXJrd4ijM+P0oROcUPH9+iUQ3glyRPTrGoog3v/nN1ZKy6qqrlu22265adxdaaKHqWCRYRFgg1lhjjRoGkbHPDWsIqwj/1VZbrayzzjp1PqG03/3ud5fvfe971Rqz8sorV2sQawzZkNcHP/jB6m9FKlJgeEw64pN/ZVMOS7ARgM0226xabKRBVxiCp1fIG91C/t74xjdWYocM2JxwySWXrOkhae9973trfHmyrCAj9Kw8xUPqPvShD9XOGhIhTTIsD7rZknB1Rzp06liSdPZYeYRVDvKPTNkUkRWO9Uee6oDAhH5X1iBynhVypb6I3IorrlitQuYtxZAaIuQayTr88MPrc7E8/W9/+1vNz2+w/vrr9/4W73nPe3p/V/lHp1PeqZdmPpIY9QMIS0zQIyyUFmGkCCgN54PdhSLmCC7hppzi3pRc37S6ycVv5pyydm7yp6MXQJDbRKIbgYB4yWqvXpiGpUJOvWR/85vfVBk0BGToyzm5RTq8tLX7xRdfvFppwrKCMCAtrByGxcQx7MM6xLIUQ+nm5yAUZERayhITipEB147IhfSli4iZb2MYikVFGu4hGIjOCSecUK1b5uwgdCAOawqioCwIkPv/+Mc/esmUfJwrp6NyxDNxLY2lllqq+kdnSJnN+WE58hykwQqlToiZ8shPnVmJ+AnjeZmTZKhR3ekQlh7kz3PzPpBn6BVOufwmrHXKoL4IHLIlHUN6yieMPBEm5RDW80bgPE86yv3EzEUSo36ABq6xhiMUHPOongOl9Je//GVQOmPgejscheb4xz/+sfZAmZbNUZhcvMHi7rzzzlpHvxHFt+yyy1bFRkFSepRaItGNoGu0Ty9LBEB79TL10vfiRT4sjvCCRz6suLLyK9o73eQFbGjLCz2sJV7A5NsGgUgBawjrks8AIRPyC/Lkhc259lKnC5EQ+k9ZvPQRIGnL27AZ8mZICkGhT4RHEJSXlUq5WKQMpYlr+M9wneEsMmroDzmRf1h3ARFhjVIW9fB84rk4Kic/ZZGfejoiOUHalAtsT2KuFv2G9CiX+kX96QckSX2RK5Y56eogK4cw6ilP9fIMpY/U8VceZQnrFuKkHvzkwUoUZVFOOikIqN82MXORWr+foIFTBBowASI0BECPSKNnDh6MbtFFF609Gb1Sw2iOrilM1jAKanLxBotjqo8Xh7o6gt+QQkokuhVeol68yEG88JGeaMP0kTk5yBO5td2GlzASYL6NuSysR+YLiuuel+8dd9xRz3WEpMsS4qVuXpEXehAgL2nhOeSg8+WNIMgX8TE/SRmRCdYZ+QP5o0PME0Ie4He/+121ksSeaYgUwmAyObJgDpA5Re7JBwEzF0h+noX6KB8HZDh0s/yFQVqkqazqg7xJy1FnyT0WKffpNx1BdWeBk555Qiw8zuVrTpXhM5PbkT/1Rt6kpd7yNgwYz+2SSy6pZUCWDL3Jy7OTFufdgZiqm7SC6IF4UbfEzEMSo34ABh89Eo1WY9bAKSkKhiNEg9GpC1AWhJywRq8GKI/JxRssTl0QI8rHy4GC93v6Hf1uiUS3gux52et8eXHGi56sarvIDJLkxWy1GUuM+TTIBYJijgsSQm9p8+FYa4RhJWGtkZYhoC222KJaiREZeYRukL406ARhEQX5etmvu+66Va5cmy9jDpCyBFFBHsiecjvqfNExrEHCmqytXjpjyAcSZ44RUsU6pKysXvKWHj9WJmmQZUcuoEzCIVxk3FHZlJEukK78kBzzkNSRnjD3inXZ8wJkzD1ERX4sRpbxI2+G9liehfEspI0wIUUxVCgvk6tNGqd/DN9LQ3p+A3mC5+RdIrz8lC3KkJh5yG+l9QPUnbAFm/ccNG6CYIx/lVVWqWEGK9SnE67Vx+/rSFgHKygtSijqY/4UZWWCZrw0kiBNGZ5dtAlwnt9KmzbodLAUeBFqb/FMXwjue2Fqn45B9LVnJEk62jMiID3hnJu34z4ygDgFGaK76CthxI08yAD5Fh9xQYjEQzbc5+8o34AwymKJuVVgLLEIkvIgceolH2H4RVnFk1eQCefSVl75KYtzeQornHTEDb3rOToXDuIZqrehKXGiXnQ2AigtZVB/+UYcFqQon3gIDCLlWUkjhrqcc+oTQ3lW/ZlbZQUdf1Yh/somXXmC30F9WKCcI3jC+E085yBF8ZuKpxxRxslBWdzPb6VNP9Ji1A8gTARHg9aQCafGrpfjB+YIx2B0obDAOUQPLI6TizdYHIXj96OQ1JNComwJJ8WUpCjRjaBTvMjJIEKlrdI5QW5ce4F7efPX1uknQ8eGwbV7bVs482xCDsTl7yXuHssNS4ZrL2ZpyFM+nLAIDNmRhrzkS1eQoXixy9NQlDDKIm3n4okjvPSUVzzpyiugjsoSdVVm+cYz4OTlXpRROsIgQQiQuOTbPeFMcXAf6G/loAeUSx3UWxxll7dnwwokLn/PS/mVnTXJsCASGGHf9ra31TSdI4TKqu7OpcF6Jy8WOH7K7zmrezwn5Qj96x6nPomZiyRG/QSN2Di5Bq3xEhrjxCF4hHQwOlAn9aBQgOAG+aP0JhdvsDjl91tRWhQqUz0/8CKI3y+R6EbQNdqotgzaspduEPxoy16m5Bb4kV1hnQeJId/SI++RHr0mfeHdkwYnfWG8tMmNPIXjL01+SIRNIe0/5B5/eYZMuRZP/pFulClk0z1HsqgsyuYahOFYUJQPiRAm5DnyDJLheShXkA33wkIjH/fVUVgQX/lch75zzl++kSboBBsOs5LP0J7l/uYneSfIT17yVA9xgwCKjzD6feTtvrDK5FmC+nk2yuooXGLmIolRPyAESWOPc0e9M4282x1EjwtCeIMIOSeQhJVSoGj0sJxTQu5DKCLX/AN985uci7TiOLkwL+Qol1AikUZgcuE7HVCi8TKIHi7Hj8JMJGYGtDdtlQu94byzPQtDDkOmOtu3NuplKW4QCG1WGLIKwrr2cnZOtoWNNAKugyxEm3cuX7If+Tu6T2b4Q5RVeIhwQUKEU0Z5RBndB3H5Rx7SjvAR1nnE4eIZhJVXuCAd/KXhOp6p60iLPygbWaezxePcD8LoWjnE9fyD+HGRjjSFB2HFY5niXAvLsiRcEFN+US7peo7uR92jnnEuTXm5FhbiGUhTetJxDP/EjCO1fj9CAx9sIEyUAKEj/KFA+BNIAkeBxHknXIdQdwokP048Pa0Xg/idx1AGlGYo3SmBoqE4lMdLhetb1imh83frPE8kZja0W+3dvBNzTLywOS9c8mACMdkkD66Fdx5xEQ8yEqu6Au5xXp6OIUtkWxv3knYMuZUfy4S0EQ4gQ/KMDpJ0xOH4RdrkT1jHSJc/P/k5hh5wT/ryjbRAWvSQNKRNhsF98aMs4ccpr2cVOkJe8uX4xzmIL80on7TCGhTkxJwoYfjFc1JO554Lf2XkL/1Iz9YH0jOEpiz8xHEenU15eQbimawNnZYrBEoa0lTmOPe7SM+1sHFfHHlAtJXQt/GbJqYfSYyGOULICRblSjnwowRYhSBM6CGwBC8UWwhpxAkF5JoyiDReCNKhbCDSCGVA8EP4XwihWNRBXMqGolOuKGci0Y2Il6Y2Tk7InvZqUjBZJEfasm+Q+e5WtGlkKV6EkYYXK9nzMhbOkTyQQenHS9hSccM8hnuC8HiZcuRIWHlKP2SZPAbkH0M6wrmWn2vxIcrlnjTkHTqEn3KR17B0uKYDvva1r9UdrqWrrOogTWUQTtnkFXWXlnD8gxxI0z2TnZEtYaQD8hSfv7DSjmX5rs1bko5rz8PvIIzyKXs8d4h6KJu5QsLJJ3SZo2cfulVafmNH84l8j85u4X7z/fbbr65Us3zfN+tsXCmOukUdQR7ahfLxUybnXOTXOWqRmH4kMRrmIIAEmgASKr0wQsYRRPcpQgpAGMJI8DgCyc+RsuEoJvcooKmBcBRb5CU9eXGEPxTNCyHKI5z81UUZQnGkkkh0K7zItFvt3gsUnIcckgttWFvmF6SAZYK8BOEQV7vnkAr3vODJrfCIQlgryJV9iuz3I3/3vbDFC7IhvryElz9/4fgrkzwdQ/bdC0LiWlmDkInvPqd8oTeUJzoxAel68XPKHwTJedSdjIsfZefP8XdURvGQHNeRrnzDUuU67nnOoa88G2EQIGWLZ66sjsintKMe8ldHz0k5xeH4y4dz37NRHmXzrD0nn1nx0Vh1QVSFk7ftC+QjP3WUrnvx7JEq6Ud7id9Aufgrm2eRmDEkMRrmCIEj6ATYNWXmSMgcCShBFIagEkAIhQKEmcIRlp+0CGiEfSFIvxOu5RWOUpwSpE8xyDMUraM6hdJIJLoR2rqXoWPICdnTbi2xJl+WfLMqxCciHO0DhBxp87ZD8EL3sVNfYbfkWTxfvLfaSXrxEhWffNpfzXfA5Ot7hzZyFM7eRr6BKN23vvWtdTIxK4btK+w4rVy2YPDF+yuvvLLGEdbRLtU+UktebU+i/PQHEuDr98rkpf7973+/hrE8/etf/3rd98dGuJZpW+Lu6Mv7NqZUltA7PkFkKbz8XIOJzvvuu2/9ICzC4Z5vkVkir2526rZMXznUeeedd65ltau1jSeVzQdn+ftyP73h+fimmWdleNP34Og26fm+nJ2wPW/ltLeTPN/ylrfUZ7XJJpvU9JVHWhbf+D0QH/HtQq7e9KSvInzgAx+oK9/svG0+qjYgXPzOnnNYlY4//vhaR3W32aWNMKVlR3JhTHB3T5p0dGLGkMQoUYFAEGZCSTgJOAVGWPXgAsIJA5RCEBNKU7jopfKj1ISZWggb4ZmcKaYXg7zkDeLq7VF44F4i0c3oKx/arJf1VlttVckOkuBDrjYy1LZ99d2wGqvPb3/723pN5liA7Ga922671ReylzDSFMQrXqo6K9L3Ekc+vKR9Dd6+c17ENlW0V4/VZPJHFKSBNNEJlqUjDshPdJJsXmgoyO7OhoF8ZFoaLC2nnnpq3SQS+Tr77LMrWbErNJk97bTTykc/+tFqJbHfEULha/z2EnPPtyYRBOWw4SKSQ0epDxlHWOzVgzggSepvE0qEym7Vp59+eq2jzpJ83/SmN9Vy2bjRbt50jPrZ68e346Tzuc99rnzxi1+seSAc9l8SThn4e4bIkZ2wlUU5fDzXBpDf+MY36rP3hX9hTML2WRF1VQ8fht1nn33quflkngniaUNI4XXmDO1pE//3f/9XV/V5DsjPOeecU+vk2SO1Nopk7fJsPTvk1W7gfk/PNzFjSGI0zEGRUWgmEFIyekj8CDQB10P0jSIbVRJwZAnhoTj0xFiGQmHqAVKQlAeF46h39WKQVjjhEaxrr722KlVKd0qgRORDSXtZUHLG76NcfV88iUQ3AWFBLmL4wzlHJr1wER7WEhYbbdnnNbzYY+8hBIe8kEn75lg2zgKx4YYb1pekl7d40iS/yBVrEgLhxeuL7mTFS9zX88kgyw5ywYJj+wrpHXroobWjgoDY10e68uTIOtAb9AMrCVKBGNErSJ56sg75kC1ZtUSdhQlpUbcYwvcc5E+XIH3m7yAR6kOe6QedLnkKa4dpREoYZAexsUO2vJAu9f71r39dnwXyIhxrGEuZ50eHScMnUzxTO1+zyHlWyM/YsWMrATP0pR7KoOx2rfY5D8/BM2c94ud52Jnbc0DKPL/3ve99dc8keZ5yyin19/Cs5KWs6mFCtnyUzXMXnvXHb+u3YmHip/7ahGcoL3l71vL03DwXzzoxY8i3xjAHhYiAECbb8TPPEv6tt9667L///tVkryfFjyKhlEI5EX6KgfJxFDYUu/sIC+GdEoQj5BQyhRGKVhp6iBTUlBD3lUUZw9Qtb2lLJ5HoRoTlVduPlxlZ0/MnC16K2rGXuXMv7gsvvLD6kUUEh7wgO+TWcIyXo3TJA7lCTqQfMulFaviGPzlDGKTliGQhA8IjWTo7zhEOJM3HZq+66qqy2mqr1TjyIWvm4iATCAiCY1iHBYo+YKHx4kYmlM9LH2EwtOXID3lAFFimpKXsLEfq5zmwqBi6Y52RrzKBOnkm4jsXn4uyxVwhjnVt1VVXrc+OtYsVJoYDDYvF87dBo2E2/urv2SuDMtEt0kcQ3XfPM5YmP+eerbyV1ZCX5yEssAaxWvkdhGP90fFTThZBz8Cwo/qwPHlGngc9iAz7rZFUxNPviEzJR3jtQ3k8K/kkZgxJjLoABIlgx0uc6ZaJde+9966OAiMYlBLhJmhMrMIB6wrh1Pv67Gc/W5Wre+J+97vfrcJIgfju0IEHHljPt9xyyyqgemt6NDEWr0dISf7kJz+p5meCSflddtlltVciH0rGUbkpKQJ6zDHH1C9gy9PKEor34IMPrkqK0JtboGdkaMC8APMhCDklpVx6qNI67LDDap1C8RjXp6woA9YrRIiyRdr0nNRFL4xykZc4npdziurFiFUiMbNAnoA8hmxDWIe0UTLo5RYgwyw3rDgsCGQsCAMiQW7NZ9G2vbjJns4N4mEOjjS1eU7aXvjKQba8WL00pe1amYTz4udYTs4888wahh4xLEeOyanwvjLPOuOlLC4/oAvMhSLj5NAcH+eG38i+NL24lUfdyT8dE5PIpSX/eKEbYqIHkCjhkQfWHvmodzxLz4SeUx91c4+TpvToAeWhv+hP86A8C/Hl4Vtw9B3C5zn4HegP6XnuiI16BBnyHJAXpMazlpcyeebC01nqYMgLQfX70FFIlXihO5UhfhN1QLg8G9esRHSj+spb22EtUiZ1pfvOP//8SoQ9P7+vfKUjb/pcG0rMGJIYdQEIFqGg5AioXoZGzjyr50YIKT5mb2PdBJxZllAQauPgehfIjSEwZmhpUCgIlKElY/RMy5SoOATXGLw0KB9KhAIxEdI1oSeUzgk0UhLDW8zKejSUD1AmymNZsS92mxtgnJtZW+8X8TFER9ApF0N2ts83gdA3yUx+/MIXvlAnTlIC5kAAP+H17NTRKg4KjVnfMzC+bpKnuQm+0YckUYTG8Cl0CkPZE4mBQMgHEkC+vTzjGsiYMCwaQaLcQ4hYbhAgMH/Ey9OLEMi2Fy2rijDavBe3zhQZpk/CkgPyIMde/F6wCJB7XvgIC11Af9AbOkBB2Azr0AuIgPS9sMkYeZdWvNzJsQnG5FFccqcedn4mf/HFfOUzl+eoo46q/obkPANpGzJjIUJa3PNyD1Jx7rnnVlKmLPJTH/HUkT6Tp/QdXSu7NBEz19LVwaIPpU/v0SesWobcPAd18jvQa+roOXnO/MRhqaO3WLikLW9QHk45O4G4SIdO06H1jJEiFh1piIPM0b+u5SeM31V+rHI6f9HRk6d6q5t5YJ69Z+BaWcTxzJQ52lJi+pHEqEtAsCkCSoFQURSbb755VWIUIqFBMDR8gkzgvfwJP1MwqwohNkmPckOmKCoKgb+0jdl//OMfr3ENmxEs6RE6ilK+BI1iptz0UMQlkMzhhFh5mMqFCUGlFAivOoBeizQpS+Pu4lhVwdROOSFWvrStruqGULmWBsJEaaivfU3kRXHovSmfPJSDlYsJWXjWJPuzIETG7SlySgcojERiIOBF7SUVbTFepuCcHIP2Lixo32TZS9gEanNfyIAOhLQMtXiZWwlFRnfaaafqj3Sx5iAs0iaT5EUeQTTIF8LiPv2gXPx1wsgbufQyFkbngxWXrNEBykIHsAyRe+mL65zVl78ODj+ToGPlnA4RBPFRHy92ZVdX8YPoKQeZ1wlj4dloo41qOKvryD/dIQ6d43khc+orvjIjF0EWdCRZys1x8mwcTS5XPlZtE5jpD7qKjvAM/Q70GkKjg6oeyu+5KYMJ6eZayoe1yXMB5JIuBukbkhSfThUOqRJWxxBJUj5pmOMlXc8JIeMnDj1m+BKpYkHyzOhAZZOeeZTyixEDv6fn4Lf2u3geiRlE2yj6Be2PXY/XXntt0/6QTdsw6vVwgLpH/VvB7D1vG3PTClI9fzGIIy4HV199dbPllls2Dz/8cNM2/OaAAw5oWgFrWgFo7r777mbFFVes56eddlrTCoy3f6/beOONaxotCWpaBVvTboWsaZVb0yqAGq9Vcs3ll1/e3HnnnU0ryE3be2raHk2z9dZb1zJcfPHFzfvf//6mVa7N+uuv3zz44IPVXXPNNU2rjJvbbrutptsKaNMqhnrd9sKa6667rsZpe7lNS4zqvbZHW8vZKpnmiiuuaHbZZZemVXJNK8jNGWec0Rx44IFNK+RNqzSagw8+uNb5zDPPbFpF1LSKo+ahrNKT/tixY5vDDz+8xleXo48+ujnppJNqGVqFWp+Tsrnn2U0txNlwww1r/LhOvDjiOTnG+VFHHdW0L8p6PpyhjQaiLTp2+kP7wq+yG/LvOdKh5KcT/FoCUeNH+wdy3XZG6nnoXsfIR57uu4483I8yOe/MO85bUlHjOEZ49zvzBveVQbyIC8Jw/MQXhhOeg8524+hZRFhh4l6gJRDVQaQvLEQZxRNG3Egj0nTshOcZ5e6bl7TpH3jkkUeeF9e9eL785SNs5EMf+U0fe+yxGgakH79plCvSjzTiHDqfpXv0pDjSlL9w6hnhnD/66KP1nB7zDgFxwnUD+pZnu+22a84666x63g1lTItRl6BtDLVnp9fS/i7V6SHwC6cnxZ9FhFlaWCZ2c3v4t0JSexIsRuYjtIJTTbHC6bHpZbUC1JPjpLlMLEfuxWRJw3l6Mczz0nM0vKbHJRxrk56onp609NT0hlqhrb1KPTo9Ub0hddLjFE5eemLM663SqMN0rVKp9RJeT8eRVUn+yq1Oerby0CuzLJUlSs9TPHmKo7elx6l8YTlrlWOtb/TEE4mBAAsCaKvRFllB+JNVMhryrs1r1875k9uwSpAlMhQWFvE5ciMdED9kDcSXHjkW333yEtec8MomjdAhrsV1T3z5KDO/OPJTNnGEl5a03Yt0yTcIp9zuRRhxOPlJQ/7tS706YSLNKGuEJdfK4FmKF8+Bn2tQZpAOuBfpuScv6SijOPSL8oFw5vEII7yyR3lYc+g3ccE9eQN/+URa8lFPc8Lci/z50euu5c1P+nEO7rGeufY86Dx+2oS4yk2XxnPVBsB9+dLjiRlDEqMuAAFAFhw1dKRB46bgCBI/AmJ8mlnX/BpDT+4x9dpS3rwhYWwpP3bs2GqKZbplUqZQCPvVV19d8yDAhrjMSUI4rI5AkJxL37LQIDTKgZApQ6TDhE3JSosfRyEARSENwr7HHntUAmd+gGE8pnrCS7GEkpYWhHIw7IbcuFZe9VJOxM1yWUMIyJp5U8ptkrgVJpa9KlsoLWVXvkRioECmA+RH+9Y+yS1Zi2Eq19oquQ/5IEPRcXCUlvDCedF2pkX2otPjOoaChOHkHURC/AgrTfnLI16ywtAP4ksr5JtuUbaok3AhY+JHOREK8TgyLN14qXfKpHt0hTyFVTdpKJvw/N3nJ8+oh7K5VibhpCe+e8Af4lq5uag/f+RC/tKKskrHfeF06pRHPvKINMXh78gf3BNOWuJLxz3l1gm0MMRcKvd1Ouku4bioS5RNOcVzTj/6fV07j3IH5Ot5xzMVB0ESLnRgYvqRxKgLoDFThJQlQSEIFEkIFGj0rEAEwHwhcwKsejA52QRnhIGCJCgmbbOgIElWXRB8Y/TmF0lf2nohSA/BM9ZOKFlerIiJSYrIE0uROQ6h4CgrkzIJOIHuFGwwz8AkbePsNjxj3UHUbEhmLpTxcwQv6orAUeTSUxa9YcSPsNuN1pi+52CSqfiUg9UyrFiWEFu5YsM7k9TFR+o6yxQKLJF4qREvuTgnmyHP3/72t6tssr5CvMjJWbzsvYAdyRw/YaQnHc65F6Qw0dZdO/dyJNPSEDesN3GuHHFPWtIAR37SkZ9r6UibfomXeeSjXgFlZ1WBKJdyCBfES15xX7p0ETLFX1hHsis/96RBN8rHtbK5jrJJhx84dp7HUXo6Tcohjg6nfKSnDJGWeilDEFHPXVxHkBfyGvol8qCb1U/6UX5wTZcjstLXSUWs5CmM/MVzLax68fO7KIe8pM3P/fgNQd7KFeX2fJzLX/zEjGFE+8AnSe4MQjJ+GKuDvAj18DW44YB4hOpPeELQLGu1VNUkwClBg49GLr5GHkdKQ3oEKBo+5URxEC7h+BEgYQle508aQigPpMK9EF7noUxDsOVB6BwjHdfyFC8EkF/UVRqhPDrzFj6ehbDKEmXgJ54wkTeEv+soYyggeUPfa2kI51oejp5H5DO1kC6yZWgSGZzW+MMRnhF4Tp3ndl1maXQczoiXHvkImdZe4+Vl5aVJveQE2ddBgJAt8UM+vCBDF0Ra/L1EQZr8OefyEQdZEc41OdbOxSFfXqp0hjhxXx5xrdziCsdP3vyFkT9ZBefCgHRDdjud+OKBNiIvEI+/ONJzzokjL2HFlUeUyz1liecJ0gt5dT8QfnQgvSDtqH/cgyAYUS5AahAW+YZ/1KezbJ6T58pFuCgzhF5Sv/g9lUOYiOOe38095/yUOfKP+MKIo7zxe9D9yqB+7glrAr+J2lbuTu55DCT6lmf77bevi2h0ft0b6DKmxagLoHFHQwhBiiOlRTDifggdoQbhggTEcFYoMXFCeUR4/qG0CBQhC0EjvBQGgRWXCyVFIIGlR9gQZmHEF0+a0qeMI59IS9gQ8E6Ecoj0pSFsKC33XUdenPrE84EIL6w8PA8Q9sUQZXb03Az7SSv8Ei8M7ccz0xbi5eSZcX6L4f78PBcvK+3T89FmvWi1L0vWWUp9+oHF1r49Xm5kMORB+yW/4Jx8x3W0f/7aO+dcXs7JoNVQrLb8yWekCeREGsoHfiv5+t2U1XXcY2Fh8bVizPC1sp988sm94dST9ctL2OdFXEvL0aove6kpi5e8OMoIyhR5Kpe0lCniGnryCQ379nhmVuWqv+1ArNKzJxrrsk91GHKP9KLdmaejzq7lHfCMowyhK8W1ws92KOEnXoSLegaEVw6GgNC/QX5CFoLkgjoqK4s2S1CE6ZQTeclXmelU9/zm8bs68gf3oi24py35vYRxLzFjSItRPyAeofpr2OrtfGotRjMKeRJ8+VJ4oEwEOX4D5XFN6CgZxxDoUHAhdMIJT/jFd5/Aux95hRDGPeeOEM9DOpSMNEJxgzS4iCe8MMpEuQhL2MUPhTCz4GXkeaibfAwTWpZsKJC/MkR9Es+H3yzalPagvXCUubkV9q+JDTuHI0LGtKuQT8/Ls0JcLMH2cnMurOe2yy671K0oDEHPSLtHwCz3tp+YYTv5ykuaIXvavnLx1/6jrMqiTCG3woY8GoJHfgzlKyf55xAmFgpDR9ttt13NQ3gkAGEyfG5oXLnoBDLlOcjbuTSkLX8veZCvMjgiWBZf2JLA50FAOuYo+syI52bxhzy1QXGkb1oAOWY1oxvVS12EiXbL33NwpH+kIYwyqT8otzpa+CKOMPaFM3eSfpefuNJU/pgqoD5+V/HFsY+Td4L01Q3pjHrqBBtatYhkRuB5yjctRjOAthD9gvZHr8dcrj99y/VnBJEfRFlaQa/LQJWnFdjee61CqOfgN+LC37EV7KZVANU/6hL+raD3ho/f13kchRemVQLVOecnrmvn4kU6/NteVS2n8850XyrI829/+1stg2fQ9kRJbLrpdPPMM89k/Ye7e8UrXtF7vsACCzTzzTdfPY9j+2Js2hduPbdNRfvC7Gmh0wdydd5559VtOT70oQ/VdNsXed3+gqy1hKl57WtfW/0XW2yxulSaP/1tyw7+yy23XN02gy458cQTm3322aeW61vf+lZz5JFHVpmWD9x3333NQQcdVLffkM73v//9KkviteS4piNvW24sscQSNf3NN9+8br8hfduDbLDBBtV/nXXWqf6Wxyvz+eef37Tkp97jDj300ObNb35z3dJEmrbYsIXJAw88UO+95z3vqeVRx9e85jU1zoILLljLRs5bwt60BKf628KEjlYv20v89Kc/7V2C78j/+uuv781bnf74xz/W+5aY275EONuQuG/bk0cffbSWL+J84QtfqOFj+X7oSVuTRJgVVlihufHGG3v16IwgdHIu159+pM1tCKAVzMqy2wZVe4Etuai9Gj2V6PXxE0avRm9JWMdg5o7i6slYku86wnN6NWBSt3jSbQW49oTi2CrE2vPUC+T01IC/c2lI17n4rpVR+eQlHU5ZHcXjZiY8O5PZQXlM0rRZpPJEmaIc6Z7v/E6OnpH2pJ3o8Xpu5hbpUfeNM5xctGPyQm6cG94xRGRRAwtBDLewVpAJFjaf7elcgTQ9IGfyslu8DQ3N97K60074zu2azZrk97JYg1XJ4g7bf7CW+g2FZXFRRjIrTeEtoLBIQpnpCzJE36inOhv6YuGxe7e0fD2fnBumkn5LImo6dnc+++yz6+iCTwoppzR8jiRWmJqw7GiFqyE5K22d+2SG8rQEo27yyhJkp30bvLJoaYsWn1i1ympluM3qVXWxhJ7VRrpW9Mrf81Y2+it0KL3k2ke07cbvmRhu86Fsz0Xe9JxFMOYmKrNVtT6lZAhQeGkaLrXrtTxYRpRHWYTRLgxD2riRhU8cZU8MLJIYDQFQWhQxBUWYKSsC5mXFz5EQE3gKKhQcoWfyDbM5iAcUAz+CL7z9hBAHispRmvKhEAkyJem882UpT/krn7BRRhBfWM45JaUcEYeThngzE8qtPuqpvrH7eOTvXBnS/a/TLjwfz0270Z78ntqU39OLf3LxhovzXDjnno9nFZ0A5Ic8Ovcyt+O09u+lKlwQpukFmfJ7+G6ZFanmthgmthLVTtV2pQ/ZVSa7K5MF8NJHbBAOO0Srg2Euw1FWiBo6Eq9TttXD5HEvdyQCIYrOkbTVBynweRPtRhtBrqx8VQ7TDrQZ5M3cHatMyd8dd9xR7xue8rzUy/CT75HJX97KZaUqoiWu52ipvDoY8lNW87iUUV1sTaIMSIktRHzOCFnxLUjpa7d+A509eSsnP/ur2Y37Pe95T91SRDqGq9TB84m8Tj311Lq6F+GRrm1GfOMySKEy+yQJXSc/elEb8HspHx2dGFgkMRoCIGgEjGIjXAQtFCvlRAm5p8fixWVbelYhgs9fGKDEKCegOAip8JSTXpbxfP7yIvCOXJAtYQk7pUJp6Q3qkVEWlJowIN9IX1j5CkNZ62VKT1ndi/LMLFC+nhcoP8UchEz5ElNGtAEvHYgXlZetNjCc4Zlw2pOXtXMvWrLg0x5gQjMiwroG2rswnuGMQNuVBtlCJPxGMYfFC/7www+vxAfR8ekPvxfygDwJ6xwJ8J1C8cyHQkZYi3xqCJQz5F79WIp8qxGRQDqUQd0RBHrBHB1zcmwxgkSxxNBN8rIf2/e+971KaD7ykY/UrUPMtbGdh7RZY8SPjouyIyIIiY9VIx7mt7JOKS8dg4Spn3SQE3JO17EIm3uDjJjTwuIjjnyQKeGCRCk/K5X4yCVCG/qCrqAbDzjggLrnmvieiYnm8jUfSbkQRXkgiMotTR1N842EUQ6/v9/KvUg/MXBIzT8EQJi8hCgpAu0c4XFOCVLEt99+e1UWhN09EyEdvcgoTgqBckRQKGrmfvEIKcVmQ8nIhwIQj7KSnnDyobicC0PIkTSKSLoUBn/h3ZMHokWBInHCWiavV6kMlK1w4s5MULLyjnObu3lu8u984Sf+F9HevMz9rtqK3xj4BxEertCGPAPtmCN/2hTS79uBnhFyANHOtMUINyOQt84LUsDaIj3y6ki2kRgrMMm01V1kkJzrMCFr/A2vKafVVIbf6AD3kRXhkRpQN3WyxYXVaoaVEC9DTuRfnkgFP5YW5aBDfI9NObUbxMvwlueAkBnek6fhPVYudZAHYqatIRp0CBJmmMy2B3QaYkaXqRuiZJiMPjGMp8Ol3OL7Dpq87LtmGE99DT2yiIeucuTvN/RNSvUNK5pnqA5IGWIpbzoRUdOJRB6ljzyxDtFz6h0dVJY16fMjPzqRdKc0PM/EwCKJ0RAAQQoiBMhEKA8WG8rIhycpCmH0JGOuA8G1CsucEL0Y4/x6cBQq5UFw9Zj0sPSWjI0bD2dGtqkkwmXzRYpBz8fKEMpRPspBwVB8NqHUE7TklqI1vs58Tpn6hAlSQgn7wrfw8dKd2aCY5UPJOVdeZaG0KClwP93knd8pnpPn5kXoZeI3nFz44eQ8F5YS7QrhIQ/OwfCNMF7aEC9Dfl6cEW564XeJIRlES3pkmj9yIF9HsujD0zo1Xurf+ta36tJ8BMSLmpWDPuCsMqQ33GOtQUqk6/f2cqdLWKSQB3KNHPCXlzKwjiBrrCw2bvWVe23GZ4BYXVhy7r777iqDVigJT1e5Jp+eDeKi3PQd65L62FCWpcjwGx2njIDIIHvKRN+wQknH8JlwiBXCom6hc6I+fiuETnydJc9Jen5P+SBr2rrhMSvubGFgfpg0kDx6E6m79NJLaz3NPdIGXMfvrlzy9VxZrjyLGSXEif5BEqMhghA2ghW9TpP+CKR7eoXG3ykevS8mcoJooqMdsfV89PAoPOEpBD0vyt1yWBMekSe9Rb1GX8TXG6NILKOlGCgd5mvj6AReWSgTvS0EjUXIEl/kyj4k7iNKQdIoHct9KT3pUjIzG+qHRDKlO8q786WuDOle2GlDnqFzz8/RdfgNZwcItmcEyE8QIP7C9J1Pot2D5zcj8FvIA7GQlhe9I8uNTpKODEsGuTbc42UvzBZbbFHlE1mwB5Kl98qvnLYQILO+pK8eCIR79I26kF0OYbKkXv6GmOSHRNA/yMBaa61Vt3N473vfW4ecDKuZk0PP6CwhTq9//eurnnJPOoCgyEfdzHNCkMiqMiufcDpvrEPisVz5yr+v+bPM0V3C6HzRP4b06CokDhk1V0jaHDLm6Dmw5pjIreOnbJtvvnmtt+v4/fidddZZtUyGSaVp+E1+++67byVWiJ5J43Si8J4Jskqv0s90MyKZ5GjgkfsY9QPiEao/xabezl+qfYxCkOSpp0LI9fYoIEJHGQpz0EEHVRKkvDHGbsyelUg8PSrkxWoUoJgQBmPkenR6PixEyJRrFiNpyUvvi6DrJVkJQpEgVkz2lKVe1Q477FAVo9Uw5ivoNbNm6X1Jw34bepTmGyAo8UJ5qdqRumy88cZ1AixlG206MWXEc3IE59pd7nw99dD+ya0XPQIzo22PvCMuSIsjkCPpIzXuk6+41ikJKwl/+TvX2SLXkZ6wIZeuhePnGEOAyIKyR77gHEnw4lcO5XIunPj0prjRIYoyCuOc6+ywKKs0hY0wnlsQC2WUVpAq533Tdo4ACaNMrEc6hvw5+YgjXdfyd4znqAzCBHTw6Drlct9zi/KKo2yep98ZIn/hxNGxpG/59SXM0wL5STv3MZp+pMVoCEAjotgIlN4agaUYCJfxer0vvTyEh/ISBslh8tY71FPRG9OjMkwWpnNWJekSVj0haSJTTMWIC2WO6JiLIH3+ekqE3zlFgxjpKXlJIj2UgJ6jslkd41wPj7KSFkeJyIuyoMASicS0gU7wQo+XtHMgV/SEoxdQyFmQFvqBP7lzJJeBOBeeXhAGcXDkRyd46buWp7QDiBB/ukk67pNzThqRp3JGWHUI0iKMo7ica+nzizDSiLoJw5+feoX+ooPkHS9eZXYuHFIkHWHlL4+AaxBWGGm6Lz/Pgs7TkeSnDkF2hPt/7Z0HnF1F+b/fu3u3ZNOAUEICJJTQAsHQQm9CEAgllACiQBAQpAlSRXoTRBQRUAF/VEEEFP4ICFKEIEUwEnoJRYEktCSbZLPt3vOfZ/a+m5PN3k1btiTfZz+z59xT5swpM/M977wzh+19G64P27COONmO31x3rHvEzzUSnYuE0RIAGYzMRyYnU5LJcajGPO1OgGRgfAPoRsu2WETwLcLUjE8Q68m49JSg4MBfgC6wiCaWEzdvNCx3p0cEE0PxYwbGkkQ6eEvBVwELFJYq4nP/I9aR6SkMcGAkXYgqLFk4YuM/gCDzQpwC0ueFEAuOV/ZUzF5Ju+jht1fU5Fm29QrdrVasY1sXQ5QZ/GZKIB+TP5kSB8chTo6T3o84mfdyifUcizgQKiwD5j0dXp4RKJfYByh/SBuwHcHnvVkNcUFcxEHcLoLcHwrxQry+v8dB+iEdB2n2dBGfXyumlH28GCK+OD+/psTNekCEcY2A68Q+pIk4CezP8dmP68464ieIzkXCaAmAzAhkSJ/HIoNFCD8BnLDpok97/quvvhozIIUk4oVmK3py0FyGrxBt9GyP4Bk9enTMzB7YnqYvAgKJeMjw7keECMPXCBBSFAwULjhJ4uuEAMLpEqduHLppTkNE0auD7ehJQrxeCHkBI4RYeCgLqLjJR265IJ+5OPF1QF52YcM6yg8qfIQCgsQhHsQK27BtenvEAZU6xyGwjjiB4xAX23oZxbxPCRyPQFo8UI74Mo6BoGDeRQvzTBEzHj/HIo1M2dePwXr2I02kk/3YhnT6OfLb40Acejxs63GxjLjcUoUoA+Lk+hDYBzcFF5/gwon4med68dvFk29L2Sw6FwmjJQAyNgKFDOmZjkzJ4G5YYBBIdEulaYxmNbbHP4htyOyMjks7NBYkCgi2YV8cpXEOpDAhw9KNFz8khA5NZWyLYyXiChHFIHXMY4Wi+z7NczhBktFpamN/nBexWuGHxDJ6xOCQiCMkFi5EFwUO5+FvrUKIhYN8Qz6nAmeePEUF7OUD5QUVuQuldAXNMvYhz1M+IEhYjzhgnedP1jNlf2Ce/YiXdWzLcTwPIwRc5ICLE6bE4fEB27AsHVhPAH5TPlDmpdMKxImg8u2JE+sMaXG4Lqzza4CwAvZ1OE/iYRsXPByL68G18uvEeREXy/jNflxjPzbzwDVkGfuRVo7FOTAlPX4teAkVnYucr9sBv4ScPxmB82a+Iz8iy/E4Lm8vnrGwxtBuTsYk03r6yJy89WC+ZQqso+DwQtP3IU72oSBKF4j+xuT3ne0pINiOjM82LPdjEoiP9cx7oeLb+jX0/fhNQdGRzxDHlPP1wuPXye8h83K+Xjja2/kayEsEKnSsvT44oucr4ic/knc5JsuosD0/Ejyvss5fvFxUETy/glfuBLfAuGggeFnCixK/ESMs4zheDhD4nY6HKWWHp5PfbMM60sIyrNaUR/g1Eq+XTZyPp4/fnEM6/V7OsdzTz3rmWU/6gKnPA3HhbE1Z6+nkXImHY7MvosfLTN/XlwHbcnzuO/gxuQakYVEhbcQj5+tFZ+lQLks4ZEyHzMmDRaCHhGcyX4YQorCg8ODh442Ifci4ZGCf9wztgd9kZApw9m+Z4flNIcsxWE6G999sw7H4DSwjzSzzwgBIK/sy9cJPCLHwkIfIb+Q9rLQMOoiPoedZ8h3z5DHyrgsMz4OeJ1nO9sTFMhc6lAVsRwDWsS35lmXMu5gB5omf41Fh890zxk5ie19OmnxbfnMcjudlAelknu0QGKyjLCJtlGekia7xjGvEMrZnP0+DxwF+/uwPHBORQ7rZlynrOJ5fCyBNfo04JmnnuN7Mx3785lgESF8/LyeZZzmiiN/A8YiPtIjORcJoCYFMBmQs5tMBmJIZWzPTeqHmhQSwzAsz1gG/cWIE4mN7z+BM2dYLEy+0WE7wTE/wwontfBufZx3HIU6WCSEWDSpwz3tYi6ioyVdYj/iILeKAFyV8/RiAFQGFiKDSx9qMryGWf7altyjL2Id4sExjpSE/YzlhO/wHiQNhQN6lwkeM8QFV/AdpXuf4gBM0+yJwGJwR30L2wS8RSyOBjh+8iBEf6+mggY8k/pAck3SQVuJknvOi7GCYEOLx45MmBpFkbDbSzzkiyoiP45A+4iMu0kNgOT6TDD/i1i/iZRBcrgvruQbEQ5pYRjqJg/PiehC4rhyXNGIpY0BI4mA5fpl0kmE/x0WT6FwkjIQQYgmDipiXDCpqKl4GZaWXKOLm6quvjoMcIgZ81Gma+2nOQCQgHPABxNeQQRIZ5oNhNxjZGWFBZc7ArAz5wbZ07MAnER9BmqERQQgu4uKL94yGzzhmfHoDkUHlzxRrNZ08GEWfnq0IJ0beZiBJBp1kYEYGRuQciOfYY4+NxyE+/CJJB/FwfpwvbhyMns9AkYgSRBGdSfg4LPv85Cc/iSKP5jYGoKQTCG4fpPuhhx6KcSFKbr311pgGxoHj23GMzI9AY7BLBnFk3DfSh9WLgSrZH39M4iYt9NDFX5PhSLiuPpo/y+mle+GFF8blpOuRRx6J18GtWohZtzSJzkPCSAghljDcmoIVBustggjhwEeaESIIG4QDnR/4VA+i4KSTTooVOpYNBAKjM/O5H75DRpMPA7FikUH0EGhKwgLCx19pwuKYZ511VrSQID44Hj1OWU48iDCsSnTocKHAUCGMpYZgwBLEOkbBJ+0IDrZHlGAN4uv5CDREDIICIYKowKLN9vioIIr4pMmIESPiOTJOGkKM9aSVQLMX6WcIEY7J9oz8jyhhKJITTjghTkk3gox0Mo+QYXuEIh1Z6GzinUsYA460Yp1DMNHRhH04HkIUocZwJDTzIfhYh2jD8sS1II0cn/2ZF52LhJEQQixhUPFivaCypWmIoTqohOlVSsWMhQKLERYbtsPKg8ig8wHNZlTQ/skLRATNQ1TYzLMdHUvYn/VYYxBZCCGEDf5M9DLFwoPV5JlnnonNUHyChMFe2Y9mOD4ThOUEUYFwQYjR6cG/MYY4Q3gAPWHpAYvfJMKO3qusZz/OlfMhjYgqRBxpxEJEOhFkxEdHFM6L49NTd+jQofH6IKK8ly3pRtjRRMZ+bEvTFy4EiDOEHu4IpIHBcHfYYYd4LHr/+rhFfACX4/CJJaxmOBRz/bkGXCvSxLXkm20ci3RzHblPLOe36FwkjIQQYgmDpiUsRUCTGhYQfIkQGnwfjArcK2AsLYxYz5AeVN6IBfahskcQUGFT6VPZsxwLCcIBPyEEC4IG4cGwG3zpnuYvrDz33ntv/AbbfvvtZwcccEC0DLGvNzcxXAfbIcQQOIgzPlnEUCLsx+CvNK+5uEN0IYAQRO5/iCgCzhWfH4Qb8bE9Vp0tttgiNolxjozXxjnQpOhf7HfwN+J6kA4sRlinEIlYoNxBmmP7Plw/rG9u3SGNWND4fffdd8dz4LhY4/jNcgQV586x+c1wJv5hW46LwHKhJzoXCSMhhFjCoHKl8mVKpU2lTBMPvjNYarCEIC7w/UEUICZomsJHB4sGAgbRQjMPIoBtsfIguBAfWHUQIjhFY4m5884747EQIDS9IXz4JiIDzNKshkjBSoOAQRAwlhmj32Pheeyxx6LwQkj5h2Zp+uOL+C5gOBcEESIF8cA5IVRID2lDXCAsOE/SwzL8lWj2Yh3nePTRR8d9SQ8CkG2IhykWG/aliQ4xxrniw8RwExwXQcOxmec8sR4hsLwzCmnh+KSH5kgscWyH4zcWKbZH2CGe/DpyjognmgK51n6vWCc6F90BIVpAASVEd4ZnmMqcShZLCJU/vb9otsKhGl8dmoNYj58RFh+sI1T2+MVgWfGKnsA8QuO+++6LvjT4yiBAEDSMdo8jtn8EGssTx6O5i95ajz/+eIwfPyNEAc1uCC7ixCrDco7plhN6bCGWbr311igeaG5iiljjvIgbMYFViHNkHwJpZjl+QCwnPnq2YanCSoazNfFg9ULUIdDYhjgRQaxDhNFcx/YEmgMRKwiz8ePHx2vp1wSfIc6XYxEX54BQRNxhneK4XC/Oj6Y0RBLXDQHG/uyLCOT4pB1YLjof3YV2gofbAxkJyMCia8O94p4BhZ+/SfsyIbojVLAIAAQIYgHfHSw/iBksGlg4eM7pRYbwwJEYqwV+SPjb4F9Es5tbQuidhXCihxXNP8wjIvjUD81GCCMsUcRFkxqWKPxxaFa74oorYlw//OEPo4Chic79irCY0GyGYKIZDdGEpQgLD7238Pkh3fT6QnywD+fFfog40kYeRmyQZ/FpQrjhH4SvD6IEp3KEENYrhi3gmuDsjdDCCoTYoXcaxyFezok0cE584Jp94Mgjj4y9+zgeliJ6tnENETWkE4sY1+24446LFrJrrrkmbs/5I4K49lw/9sfyxHWg5x/Hx2JF+iWMugYa+bod4EHnrYGMRcYFMsuGG24Yu5XSXi26JhSS4OZy7hndiqkIWKaCav543veihHmNfL1wIEqopHkeqSj9mnYE6fvnx/R7CZRv5APWMU8gjT7v+/iLoC9Lx8VLB3Gk4wHKS9ZTXvrxfT3bssznWU4eBS9rfR9gnnSx3Pf1+CCd1vS8N9N5+tmP+XSauS8sYzvWg8fh2/p94/jMdxZ+3hr5etFRqd8OkEHIGJ4hyEgON5n1TBW6XuB+ce8ocHn75A2P39AVChAhvm54zskLxWAdwoB8QVkGlHVeriEMKPP4TT7y7Xwfz2cch9++nsByFzn8Bl/vxyVO1rMcAcU+/AamWLWI25en00vw/dmG5X4c9gP2I4DHhR8V58W27Mtx0/unz9f3YzuPW3RvZDFqB/wSkgk5ZzILmZ3upZiqMZmKrguFnReO9LBhcDuaHrwA5LkWxfG87/mAeVmMFo7OtBg5fv8gfS/T6WC5Cxdf7qLChQKCAiHBdi4qPD7yE/NMWU8crHdB4iKLbQh+fOaJ2+PlWDQRsq2LEbZD0PCb4/Kiw3oXLJTJXF+OQZpZ7uvB51nvx8aPCXAaZx3pJF7iIT6Ox5Ttge1p1utMPO2yGC06EkbtgGc2vwZkIKa0Y3MdyCisF10P7h2FLVDwcg/xRcBXgfvoha8ojj/3XpQwL2G0cHSGMGrtGC4ymBJIC88/2xJYxj6+HeUa+YTfzLu4YFsXRJwTy13U+H5pMcSUbVjGMVnGfuzv18PzIfME3wfIu/z2vOzgR4Rw8eUIF+aJH0iPiyRgOXGznKnvx7xvAzht08OMYyKO2I6Ar5T3Xuss/NpIGC06EkbtABmYcydwHch8vGH4NfFMKLoeFHYt7w+FvAumpeUZXhz8OfeihHkJo4Wjs4QR+HH4TeD5x1mZHlM0LfNixzYsbykYXBCx3rfx8jB9HgSPnzzF1PenvHTx4sKJbcibTH1f5lnvy1jPMfiNOAEcs9mGeInPm8Q8LS6C2B9Y7+M9sQ/r3eLPebhQYp5l/OZesT91HK0CLGM9949js45lnQXpJQ0SRouOSv12gAzoBQKZlB4GnqnJ9J5RFbpeAKbcO6bcLwpLMia/0xlYiCUdf96p9OmF5QMsEsgTLjKYUsa5kGE/zy+so+zz9QSfZ8p2Ps92CBMXRcTNcYjHRQx5EtiWdUz9OPxmG0QLoiidZxE4xO1iKb2cffjt1nxfz/5envvxWI/l2NPNPoyGzajddPFnHWU+sD3bie6NhFE74ZkHyHRUtGQi2qPJ4GQyha4XgHvlcB8pTJmy3AtTIZYkeK7n92zTpR6rEd8m40OqdMWn4qe5i274DOCIVYLu8TRZMbo2XfnJN+zHIJAM4EheYnwfxhSibKQrPn58DOhId3gGP0T88LV5xv7hWAwYyW/iQqjQ3Z2xjQiMc4Q1krGHOAdvRuM3Aysi6vgo7cMPPxwHcqTLPmM1Mc6QW4g4HmM5sZyu/aSLcprz4jMefCyWc+Bc+co+4xKRZtaxLeKIcaA49l133RU/pMtQH6xjmejmhAerXQgqOU7HjRuXDBkyJAkPSPy9tODnHzJyEgRRnA+Zb6m7Dt2RUJDFe+b3EEKBqHu3gPh1Y+rz1113XXLMMcfEeTF/ZsyYgUqJ5Qekn8Wvi9aOwTNPfghiITnkkEOSMWPGJJtuummy/PLLJ3fccUdSU1OTBKEQl5eXl8c077DDDnHZPffck5x55pnJ5MmTkyBqkq222iq58cYbY3y33357cuCBByZBRCUXX3xx0r9//6Rfv37JRhttlDz44INJEF3J6aefnmy77bbJqFGjYrwnnnhi8tFHH8W8efPNN8dl22+/fbLddtslY8eOTV5//fV4vTz/jh8/Ptlzzz3jfltvvXUyYMCA5NJLL02+//3vx32PPfbY5O23306qq6uT++67Ly7bYIMN4rZBcMV7wDnvsccecV0QQcnTTz+djB49Ohk+fHhcNnLkyCSIvXjsLbfcMvnd736XjBgxIq7j/ElLZ+P3levK9QDPmx3xXC0ILdPDsxHEaJzvCmmUxaid4I0F3MwMctztHvBGyj3zewiY5nXvxNIGeSDUC9HazWCLdEJgBGi+oM+X8LEKYeFhUEYckGlqY6BDrDhYmFhG81Ko3OKnRWhiwpLD8r333jvOY2lhFGji4RtqWIYoN/lUB8fjWFhgOD7xY2m67bbbogUIaxI9RrFQkWdJq6eZJjOsOnwFn/2DQIr+NQzWiCWLNGLVwYrEWGVYil599VU79NBD43hzWHuw8NNEhmVp2LBhMW2nnnpqHE2btHN80kTZzkdi+WQJFiW+68bnVDhP0f1RyS+EEKIZhAYBx2JGtabZiE9aMLIz4oVPXjBi8y233BJHh/Yv2iOChgwZEpujaKpif5bx8Vqa0hj9ms+RMHwJTVi333573JYXE0DYbL755nFUaT5Oy6c5ECo0yW2yySZRaCGAEC7M08zm+EsMw20gaFjHSNMHH3xwdCAnHYxgzejZNOXhQM1X//mWGiKQNNJsRjo5T+ZJ15577hmX4cRMsyHpYznNcYwQjgjjWHw1H0HoolJ0bySMhBBCzAUWH8SRf8CVCp95BAHfPuPzHgijm266KVpOsN4gZBBQ+CLx9X3EDSICvyGETP/+/eM8w2HwCRKsNnxDDfFD/IgrxBFCg2MiTrAMIZSw4GCxwZKLtcY/xEr89fVNg0qSBoQP1ifiIU4EEOvZB58h1nFepBE/Ivycrr322ij2PA6EFGni2PghYdXCjwiLGSKJ7QhYnzgn0sH80KFD4zVyZ3HRfZEwEkKIpRxEhOMWI0QA1hVv5sJiQqWPEKIpjeaqBx980EaNGhW3x7KEMMDJmQ/WYuVBuCCkEA+M+8NHVREQbMP3xPjCPqIHIYa4AEQMzVpsj1DhY600fyGM2O6jjz6KwwmwDoFC3C54WO7WI5YhlNiO+GjmYn9Ez7bbbhutVqQHJ/L999+/+ev3bvVBGPHdMyxLNCcijOiN5i4SHA/RxXaIKeJ3cSW6NxJGQgixFIMQ8OCiCAGBGMK3BqsQTU6HHXZYbA7jQ6l333139PtBWODX40NcIETw20EY0ZSF1QdLEpYVLD80gyGsrrrqqvj1fCw2CAuEBpYixAUiht/e5EU8fMMQCw+WG6w4xMs2CBMEEBAPPkGk3WE74uPcEDSILwQb4ogxtm688cYofhA9HAu/J8QN54LIO+qoo+I6tiOtq666arwurGdbLFOIP9KOTxTLXZiJ7ovuoBBCiGao3LGA4LyMEMLpGcdqBuHDejNixAjbb7/9Ytd5rEQ0i/F1eUSIf11+5513joIBPyPiwfcIcbL99ttH52kcoRFTF198cfRjwtKD1WaDDTaIaUCU8FV8jofYwkEaYYMgw68HgYIAwTpDehFICDDiwyGaY9GUh78Qwoi0HH/88TG9iJnzzz8/7oMlaIsttrCzzz47xj927Ni4n+9zxBFHxPjvueeeaOm6/PLLY5Mf8PV+BBHNizTxIaI4LstE90YjXwshFgvP+16UMK+RrxcOrBWdMfK13zesLJTX/Gbe7yXziI/0lHXePAXsx3JPL+fAMsQC1hcECL+9uYvAb7fkeDo8uMXGLUFYeWjOYiwjRAiWKvx+EFhYoYiLYyBk/FjpNBMXxyKQJrYBhBD4uSLUWEZzIRaldLzeRIb4Q1gRp1ut/LzSx+hM/Hpq5OtFR8pFCCE6AbcsUOlSwQIVAhV6R5CufIrNky4qe0SBV1gE5lnm4sXFCMtZ5uKAc+E3YoJtWu7v+7GNCwuECMvZhv1pXqNJD18lerLh0zRy5MjYxObxuThBOPl+xEPcwDUmTcRLWlzcEDgm2yOGuCf0YGM58XiaiYftiN8hfgLbpUNnQxo4X8AJ3uc5x66Qvu6AhJEQQnQCVFTg/jlABcw8lVm6sv06A8dzAeC/SYcHKn/fhsCy9Pa+nHkECsHjRowQ0tuxX2v7sp0fC1jGsWhOO/fcc6NPEiNQH3300dFnydezPcf0eBA9xJU+BoLG17cMHDMtrJh68HNhXxdB6Xh96tticWJZZwaH5wsxR9okihYONaUJIRYLz/telDCvprT5Q2VFwGmYShdLBdeLJhqacKjgl1a8Ik+LGeZdqLBetA7XB0GEkzsO4ePGjYvXi+vnQglB2ZmQRof06Ov6QoglCs/7XpQwL2E0f7wpjeuGMGJsIHyNmKfsXJorf64N14FnievAb7cK4TezzTbbREftdqq+lii4Jn7NNtpoo+jE7su4fsxzLTuT9H3jHksYCSGWKDzve1HCvITR/PHKn+tGcxo+LkxpzvE3+6UVrgn1h18DmhapzOm9huP1scceG0elFvOSvmZcQ54lYOpNfbIYtY2UixBCdAJUWvSAQiBRaVEh+Lz78SytAesGgcqdZkWmXBd67uF07ddPYd4AXDueIbccsdx9vdKiRLSOhJEQQnQCVFZUXFRUjK+DNYQpFRqV2dIM14brghjCeuCVOteF0ae5bqJt/Bq5lciftc5uRusOSBgJIUQnQIVP8xkVl1daQHOazy/NcE0QiVwnvz7MYz0SxeEaueWIKQGByTUk6PrNHwkjIYToJNICiMEKgWXpZo+lMSCIsGxQyTv8JtCc5kJJYd7gcO28SRbx7ddPzB8JIyGE6CS84qcCAyoxrEjAuqU1+Pm7QPLrAyznOqW3V5gT/Bq1vGYukiSO5o+EkRBCCCFEAQkjIYQQQogCEkZCCCGEEAUkjIQQQgghCkgYCSGEEEIUkDASQgghhCggYSSEEEIIUUDCSAghhBCigISREEIIIUQBCSMhhBBCiAISRkIIIYQQBSSMhBBCCCEKSBgJIYQQQhSQMBJCCCGEKCBhJIQQQghRQMJICCGEEKKAhJEQQgghRAEJIyGEEEKIAhJGQgghhBAFJIyEEEIIIQpIGAkhhBBCFJAwEkIIIYQoIGEkhBCiS5EkSZzmcjlraGiIvzOZjOXz+eYpyxobG+O8b8syXyfEoiJhJIQQokvhIqekpMRKS0ujOEIE8ZuAOCL4PGKopqbGZs+e3SyihFhUJIyEEEJ0KRBDCCEEESCU6uvr47wLIdaxvK6uLoqhyspKKy8vj8vciiTEoiBhJIQQokuB0HGLEUII0VNRURHX+bKysrIooAgIoWw2O5dFSYhFRcJICCFElwJrEOIG0YOliCYyQABNnz49rmMblrMMEVVbWxsD6ySMxOIgYSSEEKJLgTWIQLMYIgdrEZYgtyKxnCnL2Q5rEVN+u7VJiEVFwkgIIUSXAtGDjxHgN4R1CF8iLEiIIISP+yFhMWL7tD+ShJFYHCSMhBBCdDBBuETxkg5zyIefJSWlVlKataefecbGHnGEXXnllTZ58uQolHr17GX/+Mc/7Nhjj7XLf/pT+3TSJLNMSYwlU5jOHaMvmXeNEC2RMBJCCNGBBGGS5IP6yTWFhDBHsNCfLMmEaUmJ1efytv4GG9qMmTPtnHPOsUMO+ba99K9/2cUXXmBnnXmG3XzzzbbCSitZ32WWsUy2zGob8pbHGTvsSzz5EGfCseIxGptCHkuUeq2J4kgYCSGE6FiiEGqSLnPIxF+sCfrGcmEG6095RaWNHDnS1h6ylj3xxJM2s3qqvf7aK/bc8y/YfvuOtm232SZuU1KSsbLyrDWEuHOEEE8+xJlkCMQfIkQkxSMQhGgdCSMhhBAdCzVPEDJB+TQHlyxMWVUaxUzeKsvLbL/R+9j6665j5WFJQ33OamfXsTIIpm/awAH9LZ/DvyiJIog/lz7EhUDKIboQSCHiRLWemA96RIQQQnQoUbQE4YNYaQyihcatJgtPEwijxoYGS3KNlg0/Bq7c37bfZmtbc43VLBu2ouI6YO/dbesRm1vPqiory5aEZYnV19WGfZMQoqoqiCNEV0mIn8B8k3ASohgSRkIIITqQOUKloSBWmgRLk5ABZE02hLJMqKIa6i2T5O3Qbx9kG623bliWsdKw4R677mpDVh9spaVhz8YGKw179ygvs/ISRNIcmsQRoemYjSEE6RTXCdEaejqEEEJ0GG7FcTEUHaTj0iCIwqQ0H2RLLsgYxjAKgqdxVo3l6upsuYEDbddvftPWWHmA7bbDdrbppptaeVWVWdi2cXatJY2NVobvUmOQP/l8EEpNFVyT7ciPy5L0UiHmRcJICCFEh4FASYIwabLaYN0piSImy2c9GJMoBCxEJdlSKwnT8srKsD5sP2mKHX7QwXbgXnvYSUcfaUMHDzL7aqpZXYOV8zkQImeso1xjFFcxBKGUDUdif/+TKBLzQ8JICCFEh4EsoeJBDMWAeCkImUwub3EQo9l1lvlqmtmMWTbxueft3l9fZ5eddoadeeRRNv6Rv9mt115rp3znO3b1RZfYcw/+1Sa9+prla2ab1TdYBjNUiCfTiNUpH+INoiscw4+nSk/Mj0zSTkOEEg1Dtz/77LM2duxYe+utt+JopEKIJRvP+16UMH/99dfbhAkT4lSIlkSrEf8aaVALfzhL8z00pvV19tUHH9q4x5+05x5/1JapqrIddtnF1hy6vmV69YyjXWNNypZlbdZnU+xf4/5pLzz2lPVbe3XbYqttbcSu37LyFVYI8dSaVVQGNZS12poaK+vZw0riaNk5y2b1odnOJC07uA8HHXSQ7bvvvjZmzJjm8qQzkXIRQgjRsSCI8AXKlFqCf9D0arOGnDV89rn940/32s/POMsy06baCaefYSdc+XPbbI89bPm11rJ+aw2xldZb11boP8CWXWFlW2Xt9WyPww638+64zUbvNdreevY5u/SoY2zS8y+EY4Tj1DWEad4qysstQxf/cIxsqHQzTQMbCdEqEkZCCCE6joTmtBLLBJFitfVWkg2ipWcvmzRxol107PFR3Jxy4YW2+xHfswFDN7Cq5fpZCZafsvIgbILamVljVtkj1F6h+urVx8p7L2s9comtOWILG3vhBfbtww+1E3fazp77871m1UFw8cX9cLwSmurwXwp/QrSFhJEQQoiOp67e6GZvuZxNf/td++2559uwoevbd48Ya/0GDLTSZZc1o9dZ9TR7/akn7fqLLrJzj/uBXXz66XbBCSfaz846y/74i6vtfy88Z7ZsX8sst5xlS0tt7R13tOsffcJuPuMce+Le+yw3Owipulqz8rIokuJnSIRoA/kYCSEWC8/7XpQwLx8jURSek8Z8U6iuti/ef99+fdEFttXmI2zkoYcHkRMEUUW5zXzrDXvyoYfsn8+/YO+8/559Pm2azQgiZ8bsWZava7Cy8nIbtMpqNmTwIFtpxRVtt512ts322zcKLaustNzE9+3g4cPsx3feZcO229ZKllkuHBvn7hCqmnyPROeQlh3yMRJCCLF0E+vE8C/faHUzqu26K39qgwcNsh2/850givqEVfX2xoN/tht/dZX94c477IlnnrTXJr5jH30+xSbXVNuMsG99RYXNzif2WhBMf3vicfv7k0/a735/g9166UVWN/kTs0n/s9JVB9rtr06w4w8+yD56+02z2plBNDWYlQVB1MkVr+jaSBgJIYToWHCEzuVtwmuv2qoDBtm3Dj7Yyhpmx/704+6/32678UZ7+LHHbPy779hX9XU2O4ihrxpzYT5v1WE6taHeZuQarayqyhqC0Hl/ymR75qWXokC67sqf2VS+oN+r0kqCBrrh/j/ZpeedY59N+tSsoiwcQ6JItI2EkRBCiA4kMSsvtekff2QP33ajrbn9COu/0fpmgwbbf/76sD11/1/sxSCY3pvymVU3NNr0uoYwzVkmW2JlleXWmMlYXT6xmiSxL2fPtulBKCWlpVady4X9XrNnX37Z7v7FNTbj3fcsu9pgW2/bbW3wWkPsozfetIapX5o11jelQYgiSBgJIYToEPAfSRoa4gjV4595yjbYalMbtvHa4fcsszffsfeeetb+/cJ4e3fSFHs/l7dpmbAKDZOUWL6xxOrqE2tMSi1XUhq/sxZ+hvVJFEWzw/Sr+gYb//a79sp/XrUJDz1h9V98Yda7rx20z4H2xG/vsOrPqkNkpZaEuPP4GhWI6SoEISSMhBBCtDsuMloTG8mUKTbz9VdthQErWOWKy8bmrdeffd5e+ueLNvnzz20aG2UtWofoYN9UVZWEuJg2/eaTIk1f5m/6On+QW1YfVs1ubAwa6137+98ft+kza82mfGlrDhtuX0z60hIGkcQ5mzRJBIkiSBgJIYToOIIemfLpJJv92Ve26qBBVtmrlzV8/oVNePnf9sZ/J9r0XJ3xUX1qpyTT9HlZOthj34lSJg7OGFaGjZIQckE8IYzYBq3D9H/Tv7Q3Pv7QPnnp32Fh2HaZvrbxPiPt7dfesLrpMy2TkygSxZEwEkII0XEEIfPFlCm2xrrr2soDBlhjXZ198Pbb9tGHH1ptba3VBfnTQM2E/gkgYRBFWISikScEVpdGbRSEUwj5sK1LHYRRXanZZ7Om2zOPPmHVWI1mzbBRY/axfz79tM36cmrThkIUQcJICCFEh4He+fLzryxf0csqqvpafnYQRhPftymTJ1tjLhcFEEInfvG1QLQIZYL0CaEkqKNSZsMyRBHL8qEmi/uwXQg1Ydn7n31q7773rtW8O9GsvNx6r7aKVX/5hTUwcjYfqhWiCBJGQgghOo6gSWpnzLLZOD9nMlbes1f80se0GdOtOtcQ/YSaXYmi2MEilG8SQQG8i6LnEeYjV0MBrEqIIsKsoK6m1+astq4+aKBCZEEcTf34M8vXh4NJF4k2kDASQgjRoQSZExRMCJmsWVlFWBKkTpIPoqbJ+pMr6J1m2UNNFa1DBVdsRJEHCAt9v6iVQqioyFiDNVp+mV5m9bNYEI8bjy1EG0gYCSGE6DgQLuFfPn63LIiUhiBeMBklpVZekuXD+4z92GTVQfsU/hBGUR8xz6ogpDJ84qPpZ/TJzoUNmAZNZLm6xOoRSzO/MsuWR+XUu29vK43OSU37CNEaEkZCCCHaHf/elU/T4wRV9u5tPZZfvmkE7Ia8VfbsbZmykiCI6i3DNzYRRmilKIwg/M9j62m0bKY0CptMEDgxOtrO2D4EPr+GqCoLoW9JJhynykpXXrFp4RfTLJNrtExF2D9baiUlc5yYSKMHISSMhBBCfG3MM45REB99ll8ujmXUWBuEUbbcBvZfyQatvqaV9OgTrUDlbBd2o4IqzZQEEVQWfpQGPVRijUmD5ZJcFDE9ysqsojRjFdmMlZUHYRN2KA96p3fQN2sNWMXWWn9dq8JTm+a6yZ/ZigNXtmyPEHsmCCWcuYVoBQkjIYQQXztpa8xyK69on8+aEb+Yb7X1NnTYMBu85hpB6GStKuiVisaglxqa9Au+R9Hik5RYNlRZmaCYYtMagissL4ke14nl6xPLhHl+9ykpt349qmyzEZtaHwaQDPE+/+hjtuU3t7eynhVNQyEJUQQJIyGEEB0C4ghRsuKqA2xWRcY+/egjhqo2W3kV67/+ejZw5QHWq7zSKsO2VSFgOcKuk+Rylm0MIijIogwWJAZ3TBqj5YgGNgRUNgS275XNWJ9s1gYPGGgbDN3Qsj17mTU22rhHn7TlBq5sPZfvF5vhhCiGng4hhBBfC619DgT/oJ4D+lvPNVa3/730itl0xhXK244772Rbbrml9e/V1/pkSi3IGSsvLbVsScbKwnw2H0RQvsEaghhqqrlCRIXoK8I2VeFn3xCWr6yy1VZd1fbafZT1X23NODLkVxNetqrV+lp5zx5mpVkUWtOOQrSChJEQQogOIzaplZbYxluPsMkfTrQ3J7wWaqISq1xrddttn31si403sxWrekYxlGPAxyCuskEElSOEArEZrKBr8oVZPvGBK1HPUKX1q+ptu++xuw0fuYtZZc+gqKrsl9f80jbYYRtbZeONmnqlaYBH0QYSRkIIIdqddC+0liT5nA1cd13bZNTe9vGjj1vN2++Y1cyytbbe2saMOdhGjtjB1us/2HriNB2iKA1VVXn4n82UWEkpTti4YTcZfkpCKAtiZ7nKCtt47XVtr512sVEHHWgVKy5j9ukUm/nYk1Y9dZoNGr6+lfWosNzs2SFdSCohWkfCSAghRIcRLT7lZagj22zrLW386+/Y4w/9vyYrTlA5G+2ztx1w0EG245Zb2ToDBtqK5eXWN5NYT8tZz7BP3yCq+uRytkzYvl+Ia4Vs1lbp2cuGrb6m7bH9jvb9U06xvuusbdanj9m0aXbG/nvZkaefZqusvY7NxNm7qkdTLzc3OwnRAgkjIYQQ7Q5NZiUlOErPESDMZ+h2n8laXT5juVVWsn2uOtfufuwRe+hPf7R8rt6sfoYN3WtXO+bE4+0HY8bYIdvtYNuuNcTWCUJnSBBJw6p62gbZCtugoodt3ref7bz6WvbdnXaxC048yQ770alWufZaZmXllp80yc684Ce2408vs9U338zyJWVWtfyKlivNWuzVJkQRJIyEEEJ0KLNn1QSVVGp8w2Ptb2xsF157nf32jMvt77fcalZRbtaj0vpstrHtd8rJdtZpp9oPvjfWDjl4jI3abVcbPnQ92/QbG9ro3Xe3E44+0n5y2ml28tln2fr7jg77hX2nT7e6N9+yfdZe19bdbBMb9d3vWs+KSisr7WG1M2riAJH0ahOiGJmkWCPwQkI0vA08++yzNnbsWHvrrbfi24IQYsnG874XJcxff/31NmHChDgVYi54TvK5OPYQ3kM1kyZZRY8eVjdtqh25ziY2dLcd7ITzzrE+K65gVp41W6a3BTVjNmtGeLjCLlWVYf8w89V0Hrawfpmm9rlciHP6LJsS6p7jRu5sP7r+BtvykIPN6uvNKqtwRLKGqVMt26e3ZRBfqp86jbTsoLw46KCDbN9997UxY8Y0lyediZ4MIYQQHQhjGZVakmu0pK7GqoIAKg1ipyoInDven2AjdhtpPzrwUPvrnXdazfRqM0bHnj4zaKgKs4ogir4Ky+obzJZbLoikXmFd+F09yya/NN6uv+QiO//Ms+yE39xgm47Zfy5RVD99mpUu0yf2dEvVy0LMg4SREEKIDgNjT02+wWaVl1pD7yrLVZYG8ZI169PTMgNWtp0PP8wuuutmmzZzlp2w1Si7+vgf2ftPPGu5Nz+w/FsfW2ONWfLh51b91L9s6riXbML/e8x+vM8YO/uAsbbhRpvYrx94wLb/3lirm1Ft9UkQQRUZqwk71fbuYXV8j61XlSUa4FG0gZrShBCLhed9L0rUlCbago7yDSHkCLkGyzXUWVW2zMqTEmuYMTN2xy+t6GVWX2eNkyfZG+P/YxNeecVeGfe8ffnxx1b9wRu23FobWb+B/W3ZFVewdb+xke24007Wm55ojSHmqh6W1NVahsEcy8psevV0ywThVVHR06YGsdS7qpdVZLMWpJjoJNKyoys2pUkYCSEWC8/7XpRIGIn5UdfQGAUSI1uXUgfiIxQVUz0PUJhPLJld0/Sl/SB0+NaZ1cy0pDYInl5BNDU0BPFTZxnWVVRavnqGZXL5pnVYg3DsDtvMnllj5X17W2kQQuEBjXHPmj3bevSoUP3UiaRlR1cURnoyhBBCdChYbHogVhpz1jA7iBw+EovzNJ/rYHkQQhnGIerNh0Hylp8dRFF5WLbcMtFfyHr2sEy/MF9RHvatD9v2CuuWjZ3w+WJ/0hjiKy2zHssuY6XE2ZCzxpqwPBynZ48eVqJeaaIN9HQIIYToeIKKwZJTVlneZBnKBsETrT1hHcNZeygvs5KqqjhNMpnoHxSnBPZjdOxo/clYprzcsj17WgYLU4yrYHkIcWd7VIafYdkcY4UQrcLTJIQQQnQI6JJc0CsNofbx0BhCPoQkhChm0DMFTROb2ULI5ENobRo2YUq8YRLjIeQK0+YQdFcMYZ7thChGeESEEEKIjiE2d4X/dYVQT8g0hcYQciXJHOHCxvgeoaRQOigoD66ooqpCJCGQ4l7hZ1NcxFlXCLUhzC4sw/FbiGKEJ0oIIYToGNA8VDxlQcRkPYTfpYV1gL5BHMUQNvaAxaf5t8/7diEEfRR1FPuH2eZjEYifYwXdpYpPtImeDyGEEB1GJgiTslxiFY15qwyBaXkIZbl8EC75UCnlg8jB4mNWH2qoWkJQNTWFMCuoqNoQ6lOhLiyvC9s1FIQRDWvZMFce4qvIhxDi5jjxWGG+hA/WClEECSMhhBAdD9qkpT5J/U6vditQetmcmTnWIWjaZs5nYlObNTHPAiHmRsJICCFEx+HtW7ENjW71TSEJIY9/UdwoiZYjvoNfFn5VhtAjhKoQeoYNeuTMKgiNTdPysIzA9uwH/MfPqLEkbzniDsdKykLIhhWq+UQb6PEQQgjRodDVvqm3WJAxJWE+UxIljdt9XDuVJpkQmDbrp+gjVFBPTYR5mucI7OOxEJLwn9DUQJexXJjix80yIYrBMySEEEJ0GHSyL7HSEPhLT+cOjIAcR0Em+LhGzDNcdjoU1hMr+/lfWSFkC7/9L2wtRFEkjIQQQnQCyJN0WEBa7uahwLyr+EtPhWgbCSMhhBBCiAISRkIIIYQQBSSMhBBCCCEKSBgJIYQQQhSQMBJCCCGEKCBhJIQQQghRQMJICCGEEKKAhJEQQgghRAEJIyGEEEKIAhJGQgghhBAFJIyEEEIIIQpIGAkhhBBCFJAwEkIIIYQo0O7CKJPJWD6fL/wyS5KkMCeEWBIhj+dyueZ58r/yvRCiGF5GoBeY1tfXN5cdXYF2EUacUGNjYzyp0tJSmzhxYjxhCksvMIUQSxZekJH3vWBraGjoMoWbEKJrQllBAMoLdAJTX9bZtJswomD0Exw8eHAURh5Y5hdCQUFhyQjgLz49evRoFkTZbDZOEUyt7aegoLD0BsqJdBmBMYVpSUlJswWps8mERLRLKiggEUfjx4+3rbfe2u655565lCAnL4RYcki/9JSXlzcXfPCXv/zFXnzxRbv00ku7REEnhOgaoAcqKiqaNQMi6aCDDrJ7773Xdt99dysrK+t0vdAuwogovICcMmWKXXzxxVEYjRgxwmpqaqxv376FLYUQSxLkb5rPKOiAQo2Cr2fPnrE8YJ0QQjiIIQIWIizN06dPt2HDhtlRRx1l66+/fpcworSbMKIwBE6Wk66rq7M+ffo0m8p4uxRCLFm4VRgQRcBvF0vK90KINP7CRNlRWVkZ57Ea+UsU8+iIzqRdhBEniADihIiutrbWqqqq4olSSHLy7XAYIUQXg/zteZz8zgsRggiRRJ5XvhdCpEErgFuXvUkeA4qLpCWqKY0T4qRnz54dTelYjjhBf5MUQiw5kO/dUkw+J7/zUoQw8qY1IYRoiQsid7p2QUToCrSb87UQQv6wU2sAABU9SURBVAghRHdHI18LIYQQQhSQMBJCCCGEKCBhJIQQQghRQMJICCGEEKKAhJEQQgghRAEJIyGEEEKIAuquvwQwc+bMOLCe07t37/jtKod1jCXV2aOJdmcYm4vPXzA+T69evQpLFw6yWnV1dRy7o+U9Kobf2wXdvj0hnQQGb/y6YDwTPgnAMfg8wKLQHnF0NIz5NGvWrHhfu8rYLUKIJlRTdlMoVP/whz/YdtttFwvXAw880H7xi1/YueeeGyvvb3/72/boo4/axx9/bKeffrpNnTq1sGfnMmHCBDvppJNs1113jYHv43SVtLXG//73PzviiCNspZVWsuWXX94GDBhgRx99tH3++eeFLeYPgujf//637bXXXrbMMsvEeFZeeeV4vxBcrTF58uR4HO7tVVddFe/p9ddfP5cA/jpBEF1xxRXxw45fFwwK+/Of/9yWW24523HHHe3dd98trFlw2iOOBeXpp5+2X//617bffvs1P78tw+jRo+N1e+2115oHv2wJzw4fzSTNhx9+eJd+/oVYKsFiJLoXL7/8crL11ltj6Uv22GOPZOLEiYU1TYTKInn++eebtwkFdvLFF18U1nY+r7zySjJkyJAumbY0b7zxRjJixIiYzpbh0EMPTaZPn17Ysm2eeuqpZNCgQa3Gc/zxxyc1NTWFLZsIoijZe++94/r3338/Lrv99tvj75/+9KdJQ0NDXPZ1ESr0eLwgyuL064L7zv33a3HPPfcU1iw47RHHwnLLLbc0H48wbty4eM1Iy0033dR8r0eNGpWMHz++sNcc2N73DeIoeeGFFwprhBBdAVmMuhm8tWINevbZZy0IH/vlL39pa6yxRmFtEzSZhQrd/vjHP1qoYC1UroU1XQOsH3xLrytDk9duu+1mF154oYUKz9566y07+OCDC2vN/vznP1sQToVfxcEasMMOO8QQRI19//vfj5YCB4vMq6++WvjVZAH5/e9/b/fff78deeSR0VIF6667brQyXX311fbPf/4zLvu64Bk7++yzbcaMGYUli08oayyIFgtCobDEovVs5513jlYxrs+mm25aWLPgLEgcb7/9tt18882FX4tPa99x4vMG/fr1i9ZF7h/36sEHH4yWIa5nmoEDB8a8C9tvv72tvvrqcV4I0UVo0keiO/DBBx80W4EIN954Y2FNcbDOLL/88l3KKhNERrLRRhvFc+iqFqMgPpJQoRZ+NfHxxx8nO+64Y/P1581/fjz55JNJqCCjRQGYPvbYY0moOJvjueqqq+I6+OSTT5JQwcflQUQ1W5PS1+zkk09O6urq4vL2pqWV7NFHHy2sWXQ454ceeijG9/nnnxeWNsG6adOmLdb5tBXHhx9+GI+7IPdqQXHrnYeWcdfW1iYnnnhi83ryLHk3DdbGF198MZk5c2ZhiRCiqyCLUTfBLQlYiiBUkrbNNtvE+bYYOnSonXHGGYVf84IT6JdffhkDDqzhmSismT/4x7S2X6iooqWEdcQ/P3gD930I+Le0RTr+Bdk+je+LU3NbbLnllrb22msXfjWBpceXYaVoaalrjeHDh0ffEywKwBRrHvs7K664YmHO7L333rOnnnqq8Kt1sLpgxWpvpkyZEp+VtCVscS173Jtbb73VvvOd79iZZ55pyy67bGFNE1yPvn37LpZjebE48Os65JBDbMiQIR1qlcEiOmrUqMIvi3n2vvvumyuP9OnTxzbbbLP4se1ieP4izO95TeeJhc3HwH1i/9Z83hYnv7VXGSFERyJh1E3Aifrxxx8v/LJY2Pfv37/wqziIju9973vz9KQKb9KxqQZT/nXXXRebjWiWYFnasTi8idtFF10UC3IqIMI//vEPu+WWW2yVVVaJjsTsd/LJJ0eHcJqcaL5DRLBu8803t+eee64QW+tQEfs+hK222sqeeOKJeQp34sdhGVGIE+yxxx7bvP3zzz9f2Kr1NFM5ffLJJ81Or9/61rfiNVgYiHfixIm2zjrr2DnnnBObS+YHFXbLXkf8dsFBHNxL58033yzMFYemoUmTJhV+tQ9c20MPPTTef67ngoAj+GOPPWY/+MEP7PLLL49Tng3uG5XnM888Y2PGjIkOxl999VV8hv/v//4vVpL/+c9/YueBn/zkJ/HeexMbFemLL74Y799dd90VlwHP5PHHH29nnXVWTCuVaWtxcGzuKyJsl112ifcd4fm73/3OPvroo+jUzj6nnXZa83POPn/5y1+i4zTTls/dooAQ22STTQq/LOYBxA33l2viz+U3vvGNeD8djo2gozMF9wLHe15ucPrnmePc0yAwEF08QzzXf/vb32J+X2utteZyCn/55Zft008/jfeo5bFff/312AzJ/ocddlgULLA4+a29ywghOpSQEUU3IBQ0lNbNId3MsrB4c0koBJtN+aEwbnaIbukQTFMXTV5+7J133jm54YYbYjMdzt++/IwzzohTHE5/85vfNC8PFeNcTQbpZiEcfM8777zYtBAqrmanYxxY000U7H/00Ucn6623XvLaa6/FZTSfHHLIIXF7zuedd96JyyFUxHOl7YEHHkgOOOCA5t8cNxTGha3nD80jl156adw3VM5JdXV1Yc3CEyqHJFR6Ma6WTtwXXnhhcxqLNaUReB7aC5y5g7hIbr755nie3F8/TrEmKO7xaqutluy0007N14K0Dx48ODZfsR/3yh2RQyWYbLnllkmoaOMxaFrz5kSaDmlio1NBqNSbj50+f5yqffn9998fm81axjFlypTks88+S7bbbrtk+PDhzdtvscUW8Rm8/vrrk80222yueIDrH4RIXBYq/Zj+tphfUxq0zDMbbrhhEkRRXJfufMA95d467qh/9tlnx04U4M2QhCuuuCIJojMuD6Ko2UmedZ6OdHPsJZdckjz99NPNTZjvvvtuEgRb87E5Xrp5nnXvvffeQue39i4jhOhMZDHqJtBtPA0OnIs6ZgtvxS+88EJ80/RmGywYbsWgq7G/NbYGb5W8lQ4bNiy+/TrshyWDN1HeQHnTBJyLi1k4aFY67rjj4ttmqGij1QJ4u7/xxhub35CJ484774xv3DTNYDGgGcItYZxP2gLEmDa8rTo33XSTXXDBBRYK8/g2jhN0qKwKa4uDVQTLBdaHH//4x3HZZZddZt/97ndj09OiwH6cT6gAo7Mu5w5YS7BqLQgtn4dFJZQB8boCzU7//e9/my0pWCFwam4JzsRYGGlK5NqwzR133BGHiuB60cyHc/HDDz8cn1NgqAKsSz/84Q9jUxMWFawFQHMj12DjjTe2n/3sZ9FyA1gz/DnE+uIOy0CzWcs4sEqssMIK8Tg8fxAq9vgcYak65phjogXEzylU2nHK7yCa4/3AAtMeHQOwCqavHfebZiMo1vkgCEa7++6747MfBE8c2gL8+QDiCWIxzmP9wqkcJ3mujzvq01yJVROefPLJaD3y68Q6nw8iMlqCuIdYbLCi0rGD68CxFya/taQ9ywghOhoJo6UQ92mhQMV3qSVURm31SKJCwlwO6R46CBGajlpCs0prxwH2Tw88SSHuTUvpwpJKxoVOQ0NDHLCyZe8gCvpirL/++tE/iLipCKiA2/LvcKjEaIoYO3Zsc2UD9Bq79tpri55XW9BMSMVC00S6su8MEDlUrjQ9UZkjDBwqb84/DZUhApFKmSYshAgMHjw4VqiITq41IEK9B90WW2wx1/VmHfcXqNTdPwgRQA88QCS6LxXxM64TFanfh2JxsI83zdFLDcHt8Ay5IOYcECM8y/vuu28c7wu/PZp4FheeT4TawsA+9GwDhEhrzxbPuPvk0DRGMxggdlr6b8Hf//73or1SyVv4unFNuD8I2VNOOSU+B9yHxclv7VlGCNHRSBh1E1r6qSBevIB0KMAeeeSR2KUbn490uPLKK2P3fd42qeR5WybwJs9bIT4CXaFbf/ptGr8It8rgZ4ElYNy4cdHvAksSlhvOd0GgQm1ZsC8oVDhcM/w39thjj8JSiz40C2s1orLHdwRfD3xm0veVin1BK+VVV121MLfocN8RRPjcuGjB4uMWiZZQcWFFwG8Hqw4WHgeBh2jCIoMlE0sU4g/wo0p3o+e5dUslFh2sBw73yMUWgzWmBToWNXxTEM9txfHBBx/EZwewJKUtN1g8/DfnQzodjoUlcFGfkzSkNW3VK2Z9S8NxGSbhX//6V3zOEXtMGcCyNRAY+B61Bde+2MjlpMctNi1Z3PwmRHdGwqibQOHvlhSgEG/ZO4S3OszhOLvyJk2lR6AZ6Zvf/GZ8m0d0YKHBxM1b4Z577hkraZo4FqSXVWdCswwVIAU0hTrnNHLkyMLatvG338UBi8ill14a7wXMz7LWEu4XliqaD88///x5LFZpUdAWVHYLYu1qCwQdYgahQPMlVjECTYzFRo/GeZqxeYDnpy2LCONAeVMVlS/XzmnLogPpXnreXIN1gqYwrEZcp7biwHmb+8IzgmNvMdI9orA+YeFAELQHCEyCs+aaa85XxAAvBggiHNQ5L643590aiGNvMsR65E2gPGcubrGAFcvXLG/NyuQsTn4TojsjYdRNoGBNN7vQrZveIK2B5cF9AYACMF1xUHDSY4QCmMKawretArKzoEJ1fwigtw6VN0059GxBYHT099+oOPfZZ584j4hZUAsPlgma8LDm0QyXFkA0abh1YYMNNojTtqApCXG0qPD2jy8Jg1RiFcAS5gHLosMzkbZypJvGEOneVNIaPJ8+tARWm/Tz1ZZFB9LCCHhe6TmJhch9lorFgaDwNPJ806RTDBe1CBh6reFj1R7WIuCepnub4aPmzWRtgaXpkksuidY4Pj1y8cUXFxXBiCjyAi82vAhxPzkXLHW33XZbHDKAuBY1b3eF/CZEZ6CnvJtA4YglyN+8qRRoClkUGIH4hBNOiF2oqQyIu6X1qbNIN+VQ+fqQBFgxqACobM8777woDvAP6WioON0HhrGOXBghfLCQ0JTENN1EA9wvBCh+Le4kiz8Pv/lenPv24Ac1v+7yCIG0YFwYuM+MwM2zxHf22oKKN+1j1JZPSUteeumlZv8wvmGWFhzzs+ikHZNJL1Y2tkunt1gcOC67pYr749faIW78lRyamfD5wtLqomtx4d6TPj9/BAWW2baEJNC0hzM03fLxg6K5smUTekt4/mgqJ08geBkJn2EMaAJDKKWtzAtDV8lvQnQGEkbdCCxGOLxSGVAp4DPkvbYWFEQH4yH527I7t/K7mG/J10nLJgesYN6Ug2XGHTXpNeM+KzRhuZCjyaa9Ie7f/va3sYmJN+WW0ARDc9r+++/fXOFTGeP/gvMqU6+cgWYr3vy5Xwg9KkgC+2L5wSfHm6Vo8qPJArgffp4uGLn3+Dm5o/HC4FYr3vr5vElrFbX3nGqNdCVNryVPGyDssD7RnIPVw5u5EHk0u9HbjeYenjNfh0WHdfitFOuNx4dzETj0gvP0thUHlhN/fnAoJo3eu6slCBEsW4zJg3hrLxBn9NIDXmQQLgsiUHhR4cPPQL6cOXNmvGfFLMPAuWJZ2mmnneIzxgCdp556aiwr5ieq2qIj85sQXQ0Jo24EBR3du/EZosC94YYb4tv0wogjr5AdrBVUCjSh+Js6lgF6s/DW2RppAbUgPUnYPi1+0tDcgO8KEBfHBd5WvckK0mn+1a9+Zdtuu230r0inhTdlvj3Gsaio092JFySdDpU43btpjiANf/3rX5stOqxD/FAJpbv7s5wKEZh6Mwr3hu+t0XxWDCpNb/rkPPEpwZeD47twpQKnEqQL9PwsSq1BBYt4wJEXUdRapck2HMdpKVpp5nP/KgQLcdGkRWWOiMR6QRMh98SvPb+JAyslTWRYUVyoIAoZOoJ7k7bWIP64JjSlYoHjPqdFHAKrWBzegYBj0XTF/sWsa/TowjpD78CFEREtnyV3wOf6cY94PrC0MLI1ju0tLXNcj/Rz63COng6uE8Ib4ffAAw80N51iYcQShAAkHTwjXH+sXqQDYeuBZkXSlIbniTiAZ7rlemdh81tLB+/0dguS99g+/awJ0amEjCG6IaFyiIO3cQsJ4S0xfnmdMGbMmLhsxIgRSXhbjd9pCoVgYc+mwSLXWWeduE0o8OK3u0KhFAePC5VSXH7RRRfFwfUYvI84fDmBgRIZJJKB40Jh2bw8iLU4SGAQBvF7Xr6cECqfOPAcMKAdy+688874NXLmGRzwuOOOi/OhsppnAMVQmDcP0Mhx+L4YA8Klz2X06NFxcL5iaX7mmWeaB8drCwY8vO666+KghL7/8OHDkyBW4sCMoVIubDkH0ueDUzLlN8fimnocxQJfa2/JO++80zzw3gUXXBCnfk8WFq47g3ZyPQhcX9KXZuLEiclll13WPCCjh/R94xm67777mq83gfiIOwjDuA2kB0xk/Zlnntk8eF8Q3fE+sY5jhYp1rmcTXnrppSSIsLkGEEzTVhzXXHNNc9r4un3LOLh+DBzp+zLA4YLCM//73/9+roE2PZDXiI/nhAFAw0tFfI5aEoRTvKbpfckr3A/OgTzhzx3n+PLLL8fn+aSTTorLWEceI+70uRQLDCwZBHGMm2O0li+DwCmkbg5su7j5bXHKCCE6kwz/wkMpuimYuHk75E2f7vq86eFwyttyWwNA0huHJg96pqXfxjHfE8eiDh65IGBFId3eTEY63MKA/0exY4fCPTaj4BOVfsMvdi6Li6eLN3F8VegFlHZqbwnpIH2hglikpq6WcL6hgorWA7qotzb+S2fAdcEihv9Rsfvl23DNsCSl7wv3n+vKvq05FtOkxDPY1vkWi4NrhtWGtNEs2dISRLr4NAVNpVhb8LFrz2emPSCNWFnSzxrFdBAg8Vqnn60//elP0cLINSsGVj62W9gedx2d34ToKkgYCSGWGqjQcTynee2KK65oVZh1J2jCZQwymshouvMmMMQLvfNo0kPc0Cye7tUqhCiOfIyEEEssOFYjCBikECslfjdMERPdXRRhMRs0aFAUQzjV060e52sCvlMPPfRQdPzGP6nYII9CiHmRMBJCLLHQUw7LyY9+9KP4zS66zf/mN79Z4PGnujJu7Ge8IXqOtYRmcZze+RZhsRGuhRDzoqY0IcQSi/vgAENdMHJ2d7cUpaF3Gj3v6EXJh1vxJ8I/ieEi6OlFsyEDPabHoxJCtI2EkRBiiaYjOhR0NhTjOGfTTMg4VXQAWJghCIQQc5AwEkIIIYQoIB8jIYQQQogCEkZCCCGEEAUkjIQQQgghCkgYCSGEEEIUkDASQgghhCggYSSEEEIIETH7/xB/mgeFSEvKAAAAAElFTkSuQmCC;" parent="1" vertex="1">
          <mxGeometry x="949.0799999999999" y="1230" width="494.92" height="449" as="geometry" />
        </mxCell>
        <mxCell id="c3Bb5KOv40KCeekuW3EP-80" value="[Mulai] --&gt; [Pilih Model] --&gt; [Klik Tombol Input] --&gt; [Tampilkan Halaman File Explorer] --&gt; [Pilih File MSD/MSEED] --&gt; [Tampilkan Sinyal dari File] --&gt; [Ekstraksi Fitur] --&gt; [Gabungkan Fitur] --&gt; [Prediksi Hasil] --&gt; [Tampilkan Persentase Prediksi] --&gt; [Gabungkan DataFrame setelah mengisi NaN dengan 0] --&gt; [Selesai]" style="text;whiteSpace=wrap;" parent="1" vertex="1">
          <mxGeometry x="865" y="1703" width="450" height="188" as="geometry" />
        </mxCell>
        <mxCell id="c3Bb5KOv40KCeekuW3EP-83" value="" style="edgeStyle=orthogonalEdgeStyle;rounded=0;orthogonalLoop=1;jettySize=auto;html=1;" parent="1" source="c3Bb5KOv40KCeekuW3EP-81" target="c3Bb5KOv40KCeekuW3EP-82" edge="1">
          <mxGeometry relative="1" as="geometry" />
        </mxCell>
        <mxCell id="c3Bb5KOv40KCeekuW3EP-81" value="" style="ellipse;whiteSpace=wrap;html=1;aspect=fixed;fillColor=#000005;" parent="1" vertex="1">
          <mxGeometry x="155.25" y="1220" width="41" height="41" as="geometry" />
        </mxCell>
        <mxCell id="c3Bb5KOv40KCeekuW3EP-105" value="" style="edgeStyle=orthogonalEdgeStyle;rounded=0;orthogonalLoop=1;jettySize=auto;html=1;" parent="1" source="c3Bb5KOv40KCeekuW3EP-82" target="c3Bb5KOv40KCeekuW3EP-104" edge="1">
          <mxGeometry relative="1" as="geometry" />
        </mxCell>
        <mxCell id="c3Bb5KOv40KCeekuW3EP-82" value="Memilih Model" style="rounded=0;whiteSpace=wrap;html=1;" parent="1" vertex="1">
          <mxGeometry x="131.5" y="1285" width="88.5" height="45" as="geometry" />
        </mxCell>
        <mxCell id="c3Bb5KOv40KCeekuW3EP-84" value="Menampilkan halaman file explorer" style="rounded=0;whiteSpace=wrap;html=1;" parent="1" vertex="1">
          <mxGeometry x="310" y="1357" width="88.5" height="45" as="geometry" />
        </mxCell>
        <mxCell id="c3Bb5KOv40KCeekuW3EP-96" style="edgeStyle=orthogonalEdgeStyle;rounded=0;orthogonalLoop=1;jettySize=auto;html=1;entryX=0;entryY=0.5;entryDx=0;entryDy=0;" parent="1" source="c3Bb5KOv40KCeekuW3EP-85" target="c3Bb5KOv40KCeekuW3EP-87" edge="1">
          <mxGeometry relative="1" as="geometry">
            <Array as="points">
              <mxPoint x="174" y="1546" />
            </Array>
          </mxGeometry>
        </mxCell>
        <mxCell id="c3Bb5KOv40KCeekuW3EP-85" value="Memilih File MSEED/MSD" style="rounded=0;whiteSpace=wrap;html=1;" parent="1" vertex="1">
          <mxGeometry x="130" y="1450" width="88.5" height="45" as="geometry" />
        </mxCell>
        <mxCell id="c3Bb5KOv40KCeekuW3EP-95" value="" style="edgeStyle=orthogonalEdgeStyle;rounded=0;orthogonalLoop=1;jettySize=auto;html=1;exitX=0.5;exitY=1;exitDx=0;exitDy=0;" parent="1" source="c3Bb5KOv40KCeekuW3EP-84" target="c3Bb5KOv40KCeekuW3EP-85" edge="1">
          <mxGeometry relative="1" as="geometry">
            <mxPoint x="312" y="1462.5" as="sourcePoint" />
          </mxGeometry>
        </mxCell>
        <mxCell id="c3Bb5KOv40KCeekuW3EP-97" value="" style="edgeStyle=orthogonalEdgeStyle;rounded=0;orthogonalLoop=1;jettySize=auto;html=1;" parent="1" source="c3Bb5KOv40KCeekuW3EP-87" target="c3Bb5KOv40KCeekuW3EP-88" edge="1">
          <mxGeometry relative="1" as="geometry" />
        </mxCell>
        <mxCell id="c3Bb5KOv40KCeekuW3EP-87" value="Menampilkan Sinyal Seismik" style="rounded=0;whiteSpace=wrap;html=1;" parent="1" vertex="1">
          <mxGeometry x="312" y="1523" width="88.5" height="45" as="geometry" />
        </mxCell>
        <mxCell id="c3Bb5KOv40KCeekuW3EP-98" value="" style="edgeStyle=orthogonalEdgeStyle;rounded=0;orthogonalLoop=1;jettySize=auto;html=1;" parent="1" source="c3Bb5KOv40KCeekuW3EP-88" target="c3Bb5KOv40KCeekuW3EP-89" edge="1">
          <mxGeometry relative="1" as="geometry" />
        </mxCell>
        <mxCell id="c3Bb5KOv40KCeekuW3EP-88" value="Menampilkan&lt;div&gt;Datafame Ekstraksi Fitur&lt;/div&gt;" style="rounded=0;whiteSpace=wrap;html=1;" parent="1" vertex="1">
          <mxGeometry x="312" y="1611" width="88.5" height="45" as="geometry" />
        </mxCell>
        <mxCell id="c3Bb5KOv40KCeekuW3EP-99" value="" style="edgeStyle=orthogonalEdgeStyle;rounded=0;orthogonalLoop=1;jettySize=auto;html=1;" parent="1" source="c3Bb5KOv40KCeekuW3EP-89" target="c3Bb5KOv40KCeekuW3EP-90" edge="1">
          <mxGeometry relative="1" as="geometry" />
        </mxCell>
        <mxCell id="c3Bb5KOv40KCeekuW3EP-89" value="Menampilkan Merged Dataframe" style="rounded=0;whiteSpace=wrap;html=1;" parent="1" vertex="1">
          <mxGeometry x="312" y="1701" width="88.5" height="45" as="geometry" />
        </mxCell>
        <mxCell id="c3Bb5KOv40KCeekuW3EP-100" value="" style="edgeStyle=orthogonalEdgeStyle;rounded=0;orthogonalLoop=1;jettySize=auto;html=1;" parent="1" source="c3Bb5KOv40KCeekuW3EP-90" target="c3Bb5KOv40KCeekuW3EP-91" edge="1">
          <mxGeometry relative="1" as="geometry" />
        </mxCell>
        <mxCell id="c3Bb5KOv40KCeekuW3EP-90" value="Hasil Dataframe Prediksi" style="rounded=0;whiteSpace=wrap;html=1;" parent="1" vertex="1">
          <mxGeometry x="312" y="1790" width="88.5" height="45" as="geometry" />
        </mxCell>
        <mxCell id="c3Bb5KOv40KCeekuW3EP-102" value="" style="edgeStyle=orthogonalEdgeStyle;rounded=0;orthogonalLoop=1;jettySize=auto;html=1;" parent="1" source="c3Bb5KOv40KCeekuW3EP-91" target="c3Bb5KOv40KCeekuW3EP-92" edge="1">
          <mxGeometry relative="1" as="geometry" />
        </mxCell>
        <mxCell id="c3Bb5KOv40KCeekuW3EP-91" value="Presentasi Identifikasi" style="rounded=0;whiteSpace=wrap;html=1;" parent="1" vertex="1">
          <mxGeometry x="312" y="1881" width="88.5" height="45" as="geometry" />
        </mxCell>
        <mxCell id="c3Bb5KOv40KCeekuW3EP-92" value="" style="ellipse;whiteSpace=wrap;html=1;aspect=fixed;fillColor=none;" parent="1" vertex="1">
          <mxGeometry x="335.75" y="1960" width="41" height="41" as="geometry" />
        </mxCell>
        <mxCell id="c3Bb5KOv40KCeekuW3EP-103" value="" style="ellipse;whiteSpace=wrap;html=1;aspect=fixed;fillColor=#000005;" parent="1" vertex="1">
          <mxGeometry x="345.75" y="1970" width="20" height="20" as="geometry" />
        </mxCell>
        <mxCell id="c3Bb5KOv40KCeekuW3EP-106" value="" style="edgeStyle=orthogonalEdgeStyle;rounded=0;orthogonalLoop=1;jettySize=auto;html=1;" parent="1" source="c3Bb5KOv40KCeekuW3EP-104" target="c3Bb5KOv40KCeekuW3EP-84" edge="1">
          <mxGeometry relative="1" as="geometry" />
        </mxCell>
        <mxCell id="c3Bb5KOv40KCeekuW3EP-104" value="Klik Tombol Input" style="rounded=0;whiteSpace=wrap;html=1;" parent="1" vertex="1">
          <mxGeometry x="131.5" y="1357" width="88.5" height="45" as="geometry" />
        </mxCell>
      </root>
    </mxGraphModel>
  </diagram>
</mxfile>
